<?xml version="1.0" encoding="UTF-8" standalone="no"?> <!-- Created with Vectornator for iOS (http://vectornator.io/) --><!DOCTYPE svg PUBLIC "-//W3C//DTD SVG 1.1//EN" "http://www.w3.org/Graphics/SVG/1.1/DTD/svg11.dtd">
<svg style="fill-rule:evenodd;clip-rule:evenodd;stroke-linecap:round;stroke-linejoin:round;" xmlns:vectornator="http://vectornator.io" xmlns:xlink="http://www.w3.org/1999/xlink" xmlns="http://www.w3.org/2000/svg" xml:space="preserve" version="1.1" viewBox="0 0 1024 1024">
<metadata>
<vectornator:setting key="DisplayWhiteBackground" value="1"/>
<vectornator:setting key="RulersVisible" value="1"/>
<vectornator:setting key="SnapToEdges" value="0"/>
<vectornator:setting key="Units" value="Pixels"/>
<vectornator:setting key="DynamicGuides" value="1"/>
<vectornator:setting key="SnapToPoints" value="0"/>
<vectornator:setting key="SnapToGrid" value="0"/>
<vectornator:setting key="SnapToGuides" value="1"/>
<vectornator:setting key="GridSpacing" value="36"/>
</metadata>
<defs/>
<g id="Layer 1" vectornator:layerName="Layer 1">
<path d="M498.137+152.144C496.854+152.289+494.585+152.555+491.511+153.036C486.474+153.824+480.955+154.807+474.945+156.094C457.748+159.777+440.545+164.899+424.356+171.641C400.905+181.407+381.46+193.851+367.651+209.614C355.446+223.546+346.826+241.033+341.146+261.095C333.895+286.707+332.154+313.212+333.373+336.15C333.493+338.399+333.537+340.045+333.628+340.992L360.897+338.316C360.842+337.742+360.741+336.475+360.643+334.621C359.569+314.421+361.099+290.729+367.396+268.486C372.047+252.058+379.022+238.166+388.294+227.581C398.978+215.386+414.893+205.164+434.805+196.871C449.295+190.837+465.007+186.21+480.679+182.854C486.173+181.678+491.165+180.762+495.716+180.051C497.29+179.805+501.01+179.308+501.195+179.286L498.137+152.144Z" opacity="1" fill="#434343"/>
<path d="M298.84+500.277L238.185+655.356L263.67+665.296L324.326+510.216L298.84+500.277Z" opacity="1" fill="#434343"/>
<path d="M385.618+495.689L360.643+506.648L429.708+662.874L454.684+651.916L385.618+495.689Z" opacity="1" fill="#434343"/>
<path d="M298.84+500.277L238.185+655.356L263.67+665.296L324.326+510.216L298.84+500.277Z" opacity="1" fill="#434343"/>
<path d="M385.618+495.689L360.643+506.648L429.708+662.874L454.684+651.916L385.618+495.689Z" opacity="1" fill="#434343"/>
<path d="M268.895+777.05L247.359+793.743L302.026+864.21L323.561+847.517L268.895+777.05Z" opacity="1" fill="#434343"/>
<path d="M606.833+42.429C541.934+42.429+489.345+95.0188+489.344+159.917C489.344+224.816+541.934+277.405+606.833+277.406C671.731+277.406+724.448+224.816+724.449+159.917C724.449+95.0187+671.731+42.4292+606.833+42.429ZM606.833+69.6985C656.643+69.6985+697.052+110.107+697.052+159.917C697.052+209.727+656.643+250.136+606.833+250.136C557.023+250.136+516.741+209.727+516.741+159.917C516.741+110.107+557.023+69.6984+606.833+69.6985Z" opacity="1" fill="#434343"/>
<path d="M677.428+485.368C626+485.368+584.278+527.09+584.278+578.517C584.278+629.945+626+671.667+677.428+671.667L843.976+671.667C895.403+671.667+936.998+629.945+936.998+578.517C936.998+527.09+895.404+485.367+843.976+485.368L677.428+485.368ZM677.428+512.765L843.976+512.765C880.315+512.765+909.728+542.178+909.728+578.517C909.728+614.856+880.315+644.27+843.976+644.27L677.428+644.27C641.089+644.27+611.548+614.856+611.548+578.517C611.548+542.178+641.089+512.764+677.428+512.765Z" opacity="1" fill="#434343"/>
<path d="M257.044+326.465C205.616+326.465+163.894+368.187+163.894+419.615C163.894+471.043+205.616+512.765+257.044+512.765L423.592+512.765C475.019+512.765+516.741+471.042+516.741+419.615C516.741+368.187+475.019+326.466+423.592+326.465L257.044+326.465ZM257.044+353.735L423.592+353.735C459.931+353.735+489.345+383.276+489.344+419.615C489.344+455.954+459.93+485.367+423.592+485.368L257.044+485.368C220.705+485.368+191.291+455.954+191.291+419.615C191.291+383.276+220.705+353.735+257.044+353.735Z" opacity="1" fill="#fe9e3e"/>
<path d="M226.716+638.153C183.232+638.153+147.966+673.42+147.966+716.904C147.966+760.388+183.232+795.654+226.716+795.654C270.2+795.654+305.466+760.388+305.466+716.904C305.466+673.42+270.2+638.153+226.716+638.153ZM226.716+665.423C255.111+665.423+278.069+688.509+278.069+716.904C278.069+745.299+255.111+768.257+226.716+768.257C198.321+768.257+175.235+745.299+175.235+716.904C175.235+688.508+198.321+665.423+226.716+665.423Z" opacity="1" fill="#434343"/>
<path d="M337.706+824.198C294.222+824.198+258.955+859.464+258.955+902.948C258.955+946.432+294.222+981.571+337.706+981.571C381.19+981.571+416.456+946.432+416.456+902.948C416.456+859.464+381.189+824.198+337.706+824.198ZM337.706+851.467C366.101+851.467+389.059+874.553+389.059+902.948C389.059+931.343+366.101+954.301+337.706+954.301C309.31+954.301+286.352+931.344+286.352+902.948C286.352+874.553+309.31+851.467+337.706+851.467Z" opacity="1" fill="#434343"/>
<path d="M455.576+638.153C412.092+638.153+376.826+673.42+376.826+716.904C376.826+760.388+412.092+795.654+455.576+795.654C499.06+795.654+534.326+760.388+534.326+716.904C534.326+673.42+499.06+638.153+455.576+638.153ZM455.576+665.423C483.971+665.423+507.057+688.509+507.057+716.904C507.057+745.299+483.972+768.257+455.576+768.257C427.181+768.257+404.223+745.299+404.223+716.904C404.223+688.508+427.181+665.423+455.576+665.423Z" opacity="1" fill="#434343"/>
<path d="M714.382+202.478L700.62+226.052C701.145+226.359+702.238+227.11+703.933+228.219C706.855+230.131+710.193+232.441+713.745+235.1C723.946+242.735+734.183+251.734+743.69+261.987C767.764+287.952+783.016+317.224+785.741+349.402C788.97+387.522+783.913+425.069+773.508+459.882C770.631+469.51+767.523+478.217+764.461+485.75C763.402+488.355+762.524+490.591+761.657+492.504C761.16+493.601+760.783+494.377+760.638+494.67L785.104+506.775C786.109+504.749+787.755+501.15+789.819+496.072C793.2+487.756+796.622+478.275+799.758+467.783C811.078+429.908+816.556+388.962+813.011+347.109C809.71+308.131+791.588+273.464+763.696+243.382C752.995+231.841+741.506+221.752+730.055+213.182C723.119+207.99+717.698+204.412+714.382+202.478Z" opacity="1" fill="#434343"/>
<path d="M268.895+777.05L247.359+793.743L302.026+864.21L323.561+847.517L268.895+777.05Z" opacity="1" fill="#434343"/>
<path d="M606.833+42.429C541.934+42.429+489.345+95.0188+489.344+159.917C489.344+224.816+541.934+277.405+606.833+277.406C671.731+277.406+724.448+224.816+724.449+159.917C724.449+95.0187+671.731+42.4292+606.833+42.429ZM606.833+69.6985C656.643+69.6985+697.052+110.107+697.052+159.917C697.052+209.727+656.643+250.136+606.833+250.136C557.023+250.136+516.741+209.727+516.741+159.917C516.741+110.107+557.023+69.6984+606.833+69.6985Z" opacity="1" fill="#434343"/>
<path d="M257.171+379.348C235.768+379.348+218.433+396.683+218.433+418.086C218.433+439.489+235.768+456.824+257.171+456.824L257.171+440.386C244.843+440.386+234.871+430.414+234.871+418.086C234.871+405.758+244.844+395.786+257.171+395.786L321.267+395.786L321.267+379.348L257.171+379.348Z" opacity="1" fill="#434343"/>
<path d="M677.428+485.368C626+485.368+584.278+527.09+584.278+578.517C584.278+629.945+626+671.667+677.428+671.667L843.976+671.667C895.403+671.667+936.998+629.945+936.998+578.517C936.998+527.09+895.404+485.367+843.976+485.368L677.428+485.368ZM677.428+512.765L843.976+512.765C880.315+512.765+909.728+542.178+909.728+578.517C909.728+614.856+880.315+644.27+843.976+644.27L677.428+644.27C641.089+644.27+611.548+614.856+611.548+578.517C611.548+542.178+641.089+512.764+677.428+512.765Z" opacity="1" fill="#fe9e3e"/>
<path d="M842.192+537.358L842.192+553.796C855.845+553.796+866.913+564.864+866.913+578.517C866.913+592.17+855.845+603.238+842.192+603.238L773.126+603.238L773.126+619.676L842.192+619.676C864.921+619.676+883.351+601.246+883.351+578.517C883.351+555.788+864.921+537.358+842.192+537.358Z" opacity="1" fill="#434343"/>
<path d="M226.716+638.153C183.232+638.153+147.966+673.42+147.966+716.904C147.966+760.388+183.232+795.654+226.716+795.654C270.2+795.654+305.466+760.388+305.466+716.904C305.466+673.42+270.2+638.153+226.716+638.153ZM226.716+665.423C255.111+665.423+278.069+688.509+278.069+716.904C278.069+745.299+255.111+768.257+226.716+768.257C198.321+768.257+175.235+745.299+175.235+716.904C175.235+688.508+198.321+665.423+226.716+665.423Z" opacity="1" fill="#434343"/>
<path d="M337.706+824.198C294.222+824.198+258.955+859.464+258.955+902.948C258.955+946.432+294.222+981.571+337.706+981.571C381.19+981.571+416.456+946.432+416.456+902.948C416.456+859.464+381.189+824.198+337.706+824.198ZM337.706+851.467C366.101+851.467+389.059+874.553+389.059+902.948C389.059+931.343+366.101+954.301+337.706+954.301C309.31+954.301+286.352+931.344+286.352+902.948C286.352+874.553+309.31+851.467+337.706+851.467Z" opacity="1" fill="#fe9e3e"/>
<path d="M607.088+95.9486C571.999+96.025+543.679+124.446+543.756+159.535L560.067+159.535C560.01+133.455+581.135+112.316+607.215+112.259C633.296+112.203+654.434+133.327+654.491+159.408L670.801+159.28C670.725+124.192+642.177+95.872+607.088+95.9486Z" opacity="1" fill="#fe9e3e"/>
<path d="M455.576+638.153C412.092+638.153+376.826+673.42+376.826+716.904C376.826+760.388+412.092+795.654+455.576+795.654C499.06+795.654+534.326+760.388+534.326+716.904C534.326+673.42+499.06+638.153+455.576+638.153ZM455.576+665.423C483.971+665.423+507.057+688.509+507.057+716.904C507.057+745.299+483.972+768.257+455.576+768.257C427.181+768.257+404.223+745.299+404.223+716.904C404.223+688.508+427.181+665.423+455.576+665.423Z" opacity="1" fill="#434343"/>
<path d="M455.576+682.498L455.576+698.427C463.932+698.427+470.74+705.234+470.74+713.591L486.796+713.591C486.796+696.384+472.783+682.498+455.576+682.498Z" opacity="1" fill="#434343"/>
<path d="M455.576+682.498L455.576+698.427C463.932+698.427+470.74+705.234+470.74+713.591L486.796+713.591C486.796+696.384+472.783+682.498+455.576+682.498Z" opacity="1" fill="#434343"/>
<path d="M455.576+682.498L455.576+698.427C463.932+698.427+470.74+705.234+470.74+713.591L486.796+713.591C486.796+696.384+472.783+682.498+455.576+682.498Z" opacity="1" fill="#434343"/>
<path d="M342.675+867.651L342.675+883.707C351.032+883.707+357.712+890.514+357.712+898.87L373.768+898.87C373.768+881.664+359.882+867.65+342.675+867.651Z" opacity="1" fill="#434343"/>
<path d="M227.863+682.243L227.863+698.554C236.14+698.554+242.772+705.313+242.772+713.591L259.083+713.591C259.083+696.305+245.149+682.243+227.863+682.243Z" opacity="1" fill="#fe9e3e"/>
<path d="M755.286+435.034C751.807+434.691+748.135+435.699+745.219+438.092C739.388+442.878+738.648+451.375+743.435+457.206L775.547+496.454C780.58+502.586+789.801+503.191+795.553+497.728L832.252+462.813C837.723+457.618+837.957+448.915+832.762+443.444C827.567+437.973+818.991+437.739+813.52+442.934L787.398+467.783L764.461+439.876C762.068+436.96+758.765+435.376+755.286+435.034Z" opacity="1" fill="#434343"/>
</g>
</svg>
