<?xml version="1.0" encoding="UTF-8" standalone="no"?> <!-- Created with Vectornator for iOS (http://vectornator.io/) --><!DOCTYPE svg PUBLIC "-//W3C//DTD SVG 1.1//EN" "http://www.w3.org/Graphics/SVG/1.1/DTD/svg11.dtd">
<svg style="fill-rule:evenodd;clip-rule:evenodd;stroke-linecap:round;stroke-linejoin:round;" xmlns:vectornator="http://vectornator.io" xmlns:xlink="http://www.w3.org/1999/xlink" xmlns="http://www.w3.org/2000/svg" xml:space="preserve" version="1.1" viewBox="0 0 1024 1024">
<metadata>
<vectornator:setting key="DisplayWhiteBackground" value="1"/>
<vectornator:setting key="RulersVisible" value="1"/>
<vectornator:setting key="SnapToEdges" value="0"/>
<vectornator:setting key="Units" value="Pixels"/>
<vectornator:setting key="DynamicGuides" value="1"/>
<vectornator:setting key="SnapToPoints" value="0"/>
<vectornator:setting key="CMYKEnabledKey" value="0"/>
<vectornator:setting key="SnapToGrid" value="0"/>
<vectornator:setting key="SnapToGuides" value="1"/>
<vectornator:setting key="GridSpacing" value="36"/>
</metadata>
<defs/>
<g id="Layer 1" vectornator:layerName="Layer 1">
<path d="M0+22.2936L1015.97+22.2936L1015.97+1001.71L0+1001.71L0+22.2936Z" opacity="1" fill="#fe9e3e"/>
<path d="M278.246+320.429L517.085+320.429C577.207+320.429+625.945+369.127+625.945+429.2L625.945+429.2C625.945+489.273+577.207+537.972+517.085+537.972L278.246+537.972C218.124+537.972+169.386+489.273+169.386+429.2L169.386+429.2C169.386+369.127+218.124+320.429+278.246+320.429Z" opacity="1" fill="#ffffff"/>
<path stroke="#434343" stroke-width="3.93" d="M1115.77+0L1115.77+0" fill="#ffffff" stroke-linecap="butt" opacity="1" stroke-linejoin="round"/>
<path d="M19.3037+3.33703e-05C8.62263+3.33703e-05-0.000105778+8.59538+4.33427e-06+19.2414C4.33427e-06+26.9487+4.33427e-06+998.058+4.33427e-06+1005.77C4.33427e-06+1016.41+8.62272+1025.19+19.3037+1025.19L1009.02+1025.19C1019.7+1025.19+1028.33+1016.41+1028.33+1005.77L1028.33+19.2414C1028.33+8.59482+1019.7-0.000544683+1009.02+3.33703e-05L19.3037+3.33703e-05ZM38.6074+38.6626L989.719+38.6626L989.719+986.525L38.6074+986.525C38.6074+943.716+38.6074+81.7961+38.6074+38.6626Z" opacity="1" fill="#434343"/>
<path stroke="#414141" stroke-width="6.7" d="M503.078+129.576L503.078+129.576L503.078+129.576L503.078+129.576L503.078+129.576L503.078+129.576L503.078+129.576L503.078+129.576L503.078+129.576Z" fill="#ffffff" stroke-linecap="butt" opacity="1" stroke-linejoin="round"/>
<path d="M713.632+600.334L693.739+633.406C694.157+633.613+695.263+634.114+696.83+634.981C699.586+636.506+702.728+638.271+706.1+640.406C715.803+646.548+725.472+653.88+734.491+662.104C756.964+682.602+771.03+705.467+773.504+730.174C776.565+760.732+771.825+790.854+761.916+818.892C759.175+826.648+756.321+833.677+753.418+839.716C751.736+843.216+750.351+845.514+749.749+846.54L786.444+864.214C787.534+862.355+789.148+859.183+791.273+854.764C794.715+847.605+798.135+839.443+801.316+830.441C812.801+797.944+818.446+762.893+814.835+726.849C811.375+692.297+792.549+661.86+763.848+635.681C752.965+625.755+741.474+617.138+729.856+609.783C722.792+605.312+717.117+602.052+713.632+600.334Z" opacity="1" fill="#414141"/>
<path d="M513.894+236.984C426.328+236.984+355.37+307.885+355.369+395.38C355.369+482.876+426.328+553.949+513.894+553.949C601.461+553.949+672.419+482.876+672.419+395.38C672.419+307.885+601.461+236.984+513.894+236.984ZM513.894+273.92C581.102+273.92+635.625+328.227+635.625+395.38C635.625+462.534+581.103+517.012+513.894+517.013C446.687+517.013+392.164+462.534+392.164+395.38C392.164+328.227+446.686+273.92+513.894+273.92Z" opacity="1" fill="#414141"/>
<path d="M631.615+761.77L635.422+761.77C649.635+761.77+661.157+773.283+661.157+787.485L661.157+787.485C661.157+801.686+649.635+813.199+635.422+813.199L631.615+813.199C617.402+813.199+605.88+801.686+605.88+787.485L605.88+787.485C605.88+773.283+617.402+761.77+631.615+761.77Z" opacity="1" fill="#ffffff"/>
<path d="M665.198+553.949L665.198+553.949C680.961+553.949+693.739+566.717+693.739+582.467L693.739+600.851C693.739+616.601+680.961+629.369+665.198+629.369L665.198+629.369C649.435+629.369+631.413+616.084+631.413+600.334L636.657+582.467C636.657+566.717+649.435+553.949+665.198+553.949Z" opacity="1" fill="#ffffff"/>
<path d="M769.993+864.214L769.993+864.214C786.862+864.214+800.538+877.878+800.538+894.734L800.538+900.855C800.538+917.711+786.862+931.375+769.993+931.375L769.993+931.375C753.124+931.375+739.448+917.711+739.448+900.855L739.448+894.734C739.448+877.878+753.124+864.214+769.993+864.214Z" opacity="1" fill="#ffffff"/>
<path d="M285.22+302.782C215.829+302.782+159.706+359.031+159.706+428.365C159.706+497.7+215.829+553.949+285.22+553.949L509.94+553.949C579.33+553.949+635.625+497.7+635.625+428.365C635.625+359.031+579.33+302.782+509.94+302.782L285.22+302.782ZM285.22+339.718L509.94+339.718C558.971+339.718+598.831+379.374+598.831+428.365C598.831+477.357+558.971+517.013+509.94+517.013L285.22+517.013C236.188+517.013+196.501+477.357+196.501+428.365C196.501+379.374+236.188+339.718+285.22+339.718Z" opacity="1" fill="#414141"/>
<path d="M769.907+837.07C735.481+837.07+707.666+865.033+707.666+899.432C707.666+933.83+735.481+961.623+769.907+961.622C804.333+961.622+832.32+933.83+832.32+899.432C832.32+865.034+804.333+837.069+769.907+837.07ZM769.907+874.006C783.974+874.006+795.353+885.377+795.354+899.432C795.354+913.487+783.975+924.858+769.907+924.858C755.84+924.858+744.46+913.487+744.46+899.432C744.46+885.376+755.84+874.006+769.907+874.006Z" opacity="1" fill="#414141"/>
<path d="M661.072+537.972C626.646+537.972+598.83+565.936+598.831+600.334C598.831+634.732+626.645+662.697+661.072+662.696C695.497+662.696+723.485+634.732+723.484+600.334C723.484+565.936+695.498+537.971+661.072+537.972ZM661.072+574.908C675.138+574.908+686.518+586.279+686.518+600.334C686.518+614.389+675.139+625.76+661.072+625.76C647.005+625.76+635.625+614.389+635.625+600.334C635.625+586.278+647.005+574.908+661.072+574.908Z" opacity="1" fill="#414141"/>
<path d="M511.057+253.262L511.057+253.262C580.424+253.262+636.657+309.449+636.657+378.759L636.657+396.884C636.657+466.194+580.424+522.381+511.057+522.381L511.057+522.381C441.691+522.381+385.458+466.194+385.458+396.884L385.458+378.759C385.458+309.449+441.691+253.262+511.057+253.262Z" opacity="1" fill="#ffffff"/>
<path d="M530.989+527.066C529.984+528.871+528.487+531.957+526.513+536.258C523.314+543.227+520.115+551.181+517.114+559.961C506.276+591.663+500.588+625.972+503.119+661.414C505.545+695.39+521.725+725.589+546.776+751.778C556.275+761.708+566.339+770.363+576.541+777.781C582.744+782.291+587.733+785.588+590.802+787.335L609.135+755.212C608.766+755.002+607.792+754.49+606.414+753.613C603.989+752.069+601.226+750.283+598.265+748.13C589.745+741.935+581.277+734.571+573.406+726.344C553.791+705.839+541.704+683.154+539.97+658.859C537.824+628.811+542.613+599.324+551.963+571.973C554.55+564.407+557.223+557.557+559.921+551.679C561.485+548.272+562.761+546.04+563.317+545.043L530.989+527.066Z" opacity="1" fill="#414141"/>
<path d="M513.894+236.984C426.328+236.984+355.37+307.885+355.369+395.38C355.369+482.876+426.328+553.949+513.894+553.949C601.461+553.949+672.419+482.876+672.419+395.38C672.419+307.885+601.461+236.984+513.894+236.984ZM513.894+273.92C581.102+273.92+635.625+328.227+635.625+395.38C635.625+462.534+581.103+517.012+513.894+517.013C446.687+517.013+392.164+462.534+392.164+395.38C392.164+328.227+446.686+273.92+513.894+273.92Z" opacity="1" fill="#414141"/>
<path d="M631.499+725.058C597.073+725.058+569.085+753.022+569.086+787.421C569.086+821.818+597.073+849.611+631.499+849.611C665.924+849.611+693.74+821.819+693.739+787.421C693.739+753.023+665.925+725.058+631.499+725.058ZM631.499+761.995C645.565+761.995+656.945+773.365+656.945+787.421C656.945+801.476+645.565+812.846+631.499+812.846C617.432+812.846+605.88+801.477+605.88+787.421C605.88+773.365+617.432+761.994+631.499+761.995Z" opacity="1" fill="#414141"/>
<path d="M492.058+144.214C474.547+144.214+459.219+156.97+459.219+174.622C459.219+192.274+474.547+205.029+492.058+205.03C509.57+205.03+525.071+192.275+525.07+174.622C525.07+156.969+509.57+144.213+492.058+144.214Z" opacity="1" fill="#414141"/>
<path d="M573.04+157.614C555.529+157.614+540.029+170.369+540.029+188.022C540.029+205.674+555.529+218.43+573.04+218.43C590.552+218.43+605.88+205.674+605.88+188.022C605.88+170.369+590.552+157.614+573.04+157.614Z" opacity="1" fill="#414141"/>
<path stroke="#414141" stroke-width="6.7" d="M573.013+175.986L573.013+175.986L573.013+175.986L573.013+175.986L573.013+175.986L573.013+175.986L573.013+175.986L573.013+175.986L573.013+175.986Z" fill="#ffffff" stroke-linecap="butt" opacity="1" stroke-linejoin="round"/>
<path d="M496.013+366.347C496.036+376.793+487.554+385.393+477.1+385.416C466.646+385.439+458.209+376.964+458.187+366.519L421.221+366.519C421.288+397.307+446.459+422.248+477.272+422.181C508.085+422.114+532.874+397.135+532.807+366.347L496.013+366.347Z" opacity="1" fill="#414141"/>
<path d="M255.131+359.303C228.063+363.715+209.623+389.293+214.038+416.34L250.488+410.327C249.351+403.358+254.002+396.861+260.977+395.724L255.131+359.303Z" opacity="1" fill="#414141"/>
<path d="M552.236+202.625L545.702+262.41L582.325+266.361L588.858+206.748L552.236+202.625Z" opacity="1" fill="#414141"/>
<path d="M513.207+182.696L479.679+197.986L508.908+261.894L542.436+246.605L513.207+182.696Z" opacity="1" fill="#414141"/>
</g>
</svg>
