<?xml version="1.0" encoding="UTF-8" standalone="no"?>
<!DOCTYPE svg PUBLIC "-//W3C//DTD SVG 1.1//EN"
 "http://www.w3.org/Graphics/SVG/1.1/DTD/svg11.dtd">
<!-- Generated by graphviz version 2.44.1 (20200629.0846)
 -->
<!-- Pages: 1 -->
<svg width="62pt" height="116pt"
 viewBox="0.00 0.00 62.28 116.00" xmlns="http://www.w3.org/2000/svg" xmlns:xlink="http://www.w3.org/1999/xlink">
<g id="graph0" class="graph" transform="scale(1 1) rotate(0) translate(4 112)">
<polygon fill="white" stroke="transparent" points="-4,4 -4,-112 58.28,-112 58.28,4 -4,4"/>
<!-- Foo -->
<g id="node1" class="node">
<title>Foo</title>
<ellipse fill="none" stroke="black" cx="27.09" cy="-90" rx="27" ry="18"/>
<text text-anchor="middle" x="27.09" y="-86.3" font-family="Times,serif" font-size="14.00">Foo</text>
</g>
<!-- Bar -->
<g id="node2" class="node">
<title>Bar</title>
<ellipse fill="none" stroke="black" cx="27.09" cy="-18" rx="27" ry="18"/>
<text text-anchor="middle" x="27.09" y="-14.3" font-family="Times,serif" font-size="14.00">Bar</text>
</g>
<!-- Foo&#45;&gt;Bar -->
<g id="edge1" class="edge">
<title>Foo&#45;&gt;Bar</title>
<path fill="none" stroke="black" d="M1.79,-66.9C-0.66,-58 -0.46,-47.8 2.39,-39.11"/>
<polygon fill="black" stroke="black" points="1.89,-67.13 8.01,-70.95 6.84,-78.06 0.72,-74.24 1.89,-67.13"/>
<polygon fill="black" stroke="black" points="2.39,-39.1 10.79,-32.04 4.56,-34.6 6.73,-30.09 6.73,-30.09 6.73,-30.09 4.56,-34.6 2.68,-28.14 2.39,-39.1 2.39,-39.1"/>
</g>
<!-- Foo&#45;&gt;Bar -->
<g id="edge2" class="edge">
<title>Foo&#45;&gt;Bar</title>
<path fill="none" stroke="black" d="M15.65,-73.46C13.63,-64.95 13.09,-54.17 14.04,-44.46"/>
<polygon fill="none" stroke="black" points="17.51,-44.92 15.66,-34.49 10.6,-43.8 17.51,-44.92"/>
</g>
<!-- Foo&#45;&gt;Bar -->
<g id="edge3" class="edge">
<title>Foo&#45;&gt;Bar</title>
<path fill="none" stroke="black" d="M27.09,-71.7C27.09,-63.98 27.09,-54.71 27.09,-46.11"/>
<polygon fill="none" stroke="black" points="27.09,-36.1 23.59,-46.1 27.09,-46.1 27.09,-36.1"/>
</g>
<!-- Foo&#45;&gt;Bar -->
<g id="edge4" class="edge">
<title>Foo&#45;&gt;Bar</title>
<path fill="none" stroke="black" d="M38.53,-73.46C40.55,-64.95 41.08,-54.17 40.13,-44.46"/>
<polygon fill="black" stroke="black" points="40.12,-44.36 43.57,-43.8 38.52,-34.49 40.12,-44.36"/>
</g>
<!-- Foo&#45;&gt;Bar -->
<g id="edge5" class="edge">
<title>Foo&#45;&gt;Bar</title>
<path fill="none" stroke="black" d="M47.34,-78.06C52.31,-70.81 54.54,-60.89 54.01,-51.25"/>
<polygon fill="black" stroke="black" points="42.97,-32.53 52.52,-29.56 53.11,-31.47 43.56,-34.44 42.97,-32.53"/>
<polyline fill="none" stroke="black" points="47.44,-30.09 48.93,-34.87 "/>
<polyline fill="none" stroke="black" points="48.93,-34.87 50.41,-39.64 "/>
<polygon fill="none" stroke="black" points="50.41,-39.64 56.01,-44.19 53.97,-51.1 50.41,-39.64"/>
</g>
</g>
</svg>
