<?xml version="1.0" encoding="UTF-8" standalone="no"?>
<!DOCTYPE svg PUBLIC "-//W3C//DTD SVG 1.1//EN"
 "http://www.w3.org/Graphics/SVG/1.1/DTD/svg11.dtd">
<!-- Generated by graphviz version 2.44.0 (20200408.0750)
 -->
<!-- Pages: 1 -->
<svg width="816pt" height="205pt"
 viewBox="0.00 0.00 815.55 205.00" xmlns="http://www.w3.org/2000/svg" xmlns:xlink="http://www.w3.org/1999/xlink">
<g id="graph0" class="graph" transform="scale(1 1) rotate(0) translate(4 201)">
<polygon fill="white" stroke="transparent" points="-4,4 -4,-201 811.55,-201 811.55,4 -4,4"/>
<text text-anchor="middle" x="403.77" y="-7.8" font-family="Times,serif" font-size="14.00">Example Flow</text>
<g id="clust1" class="cluster">
<title>cluster Flow 1</title>
<polygon fill="turquoise" stroke="black" points="258.09,-114 258.09,-189 719.85,-189 719.85,-114 258.09,-114"/>
<text text-anchor="middle" x="488.97" y="-173.8" font-family="Times,serif" font-size="14.00">Flow 1</text>
</g>
<g id="clust2" class="cluster">
<title>cluster Flow 2</title>
<polygon fill="orange" stroke="black" points="258.09,-31 258.09,-106 719.85,-106 719.85,-31 258.09,-31"/>
<text text-anchor="middle" x="488.97" y="-90.8" font-family="Times,serif" font-size="14.00">Flow 2</text>
</g>
<!-- Cluster 1 Start -->
<g id="node1" class="node">
<title>Cluster 1 Start</title>
<ellipse fill="none" stroke="black" cx="327.83" cy="-140" rx="61.99" ry="18"/>
<text text-anchor="middle" x="327.83" y="-136.3" font-family="Times,serif" font-size="14.00">Cluster 1 Start</text>
</g>
<!-- Cluster 1 Node -->
<g id="node2" class="node">
<title>Cluster 1 Node</title>
<ellipse fill="none" stroke="black" cx="490.92" cy="-140" rx="64.19" ry="18"/>
<text text-anchor="middle" x="490.92" y="-136.3" font-family="Times,serif" font-size="14.00">Cluster 1 Node</text>
</g>
<!-- Cluster 1 Start&#45;&gt;Cluster 1 Node -->
<g id="edge1" class="edge">
<title>Cluster 1 Start&#45;&gt;Cluster 1 Node</title>
<path fill="none" stroke="black" d="M389.73,-140C398.47,-140 407.54,-140 416.49,-140"/>
<polygon fill="black" stroke="black" points="416.52,-143.5 426.52,-140 416.52,-136.5 416.52,-143.5"/>
</g>
<!-- Cluster 1 Exit -->
<g id="node3" class="node">
<title>Cluster 1 Exit</title>
<ellipse fill="none" stroke="black" cx="652.06" cy="-140" rx="59.59" ry="18"/>
<text text-anchor="middle" x="652.06" y="-136.3" font-family="Times,serif" font-size="14.00">Cluster 1 Exit</text>
</g>
<!-- Cluster 1 Node&#45;&gt;Cluster 1 Exit -->
<g id="edge2" class="edge">
<title>Cluster 1 Node&#45;&gt;Cluster 1 Exit</title>
<path fill="none" stroke="black" d="M555.27,-140C563.99,-140 572.99,-140 581.81,-140"/>
<polygon fill="black" stroke="black" points="582.06,-143.5 592.06,-140 582.06,-136.5 582.06,-143.5"/>
</g>
<!-- Exit -->
<g id="node9" class="node">
<title>Exit</title>
<ellipse fill="none" stroke="black" cx="778.2" cy="-105" rx="25.22" ry="25.22"/>
<ellipse fill="none" stroke="black" cx="778.2" cy="-105" rx="29.2" ry="29.2"/>
<text text-anchor="middle" x="778.2" y="-101.3" font-family="Times,serif" font-size="14.00">Exit</text>
</g>
<!-- Cluster 1 Exit&#45;&gt;Exit -->
<g id="edge8" class="edge">
<title>Cluster 1 Exit&#45;&gt;Exit</title>
<path fill="none" stroke="black" d="M719.85,-121.17C726.6,-119.27 733.27,-117.38 739.55,-115.62"/>
<polygon fill="black" stroke="black" points="740.85,-118.89 749.52,-112.8 738.95,-112.15 740.85,-118.89"/>
</g>
<!-- Cluster 2 Start -->
<g id="node4" class="node">
<title>Cluster 2 Start</title>
<ellipse fill="none" stroke="black" cx="327.83" cy="-57" rx="61.99" ry="18"/>
<text text-anchor="middle" x="327.83" y="-53.3" font-family="Times,serif" font-size="14.00">Cluster 2 Start</text>
</g>
<!-- Cluster 2 Node -->
<g id="node5" class="node">
<title>Cluster 2 Node</title>
<ellipse fill="none" stroke="black" cx="490.92" cy="-57" rx="64.19" ry="18"/>
<text text-anchor="middle" x="490.92" y="-53.3" font-family="Times,serif" font-size="14.00">Cluster 2 Node</text>
</g>
<!-- Cluster 2 Start&#45;&gt;Cluster 2 Node -->
<g id="edge3" class="edge">
<title>Cluster 2 Start&#45;&gt;Cluster 2 Node</title>
<path fill="none" stroke="black" d="M389.73,-57C398.47,-57 407.54,-57 416.49,-57"/>
<polygon fill="black" stroke="black" points="416.52,-60.5 426.52,-57 416.52,-53.5 416.52,-60.5"/>
</g>
<!-- Cluster 2 Exit -->
<g id="node6" class="node">
<title>Cluster 2 Exit</title>
<ellipse fill="none" stroke="black" cx="652.06" cy="-57" rx="59.59" ry="18"/>
<text text-anchor="middle" x="652.06" y="-53.3" font-family="Times,serif" font-size="14.00">Cluster 2 Exit</text>
</g>
<!-- Cluster 2 Node&#45;&gt;Cluster 2 Exit -->
<g id="edge4" class="edge">
<title>Cluster 2 Node&#45;&gt;Cluster 2 Exit</title>
<path fill="none" stroke="black" d="M555.27,-57C563.99,-57 572.99,-57 581.81,-57"/>
<polygon fill="black" stroke="black" points="582.06,-60.5 592.06,-57 582.06,-53.5 582.06,-60.5"/>
</g>
<!-- Cluster 2 Exit&#45;&gt;Exit -->
<g id="edge9" class="edge">
<title>Cluster 2 Exit&#45;&gt;Exit</title>
<path fill="none" stroke="black" d="M719.85,-82.83C727.02,-85.6 734.11,-88.34 740.73,-90.9"/>
<polygon fill="black" stroke="black" points="739.75,-94.27 750.34,-94.61 742.27,-87.74 739.75,-94.27"/>
</g>
<!-- Start -->
<g id="node7" class="node">
<title>Start</title>
<ellipse fill="none" stroke="black" cx="27.3" cy="-98" rx="27.1" ry="27.1"/>
<text text-anchor="middle" x="27.3" y="-94.3" font-family="Times,serif" font-size="14.00">Start</text>
</g>
<!-- Decision -->
<g id="node8" class="node">
<title>Decision</title>
<polygon fill="none" stroke="black" points="151.34,-116 91.35,-98 151.34,-80 211.33,-98 151.34,-116"/>
<text text-anchor="middle" x="151.34" y="-94.3" font-family="Times,serif" font-size="14.00">Decision</text>
</g>
<!-- Start&#45;&gt;Decision -->
<g id="edge5" class="edge">
<title>Start&#45;&gt;Decision</title>
<path fill="none" stroke="black" d="M54.78,-98C62.71,-98 71.8,-98 81.14,-98"/>
<polygon fill="black" stroke="black" points="81.35,-101.5 91.35,-98 81.35,-94.5 81.35,-101.5"/>
</g>
<!-- Decision&#45;&gt;Cluster 1 Start -->
<g id="edge6" class="edge">
<title>Decision&#45;&gt;Cluster 1 Start</title>
<path fill="none" stroke="black" d="M185.16,-105.9C203.06,-110.21 226.06,-115.74 248.29,-121.09"/>
<polygon fill="black" stroke="black" points="247.55,-124.52 258.09,-123.45 249.19,-117.71 247.55,-124.52"/>
<text text-anchor="middle" x="238.59" y="-124.8" font-family="Times,serif" font-size="14.00">yes</text>
</g>
<!-- Decision&#45;&gt;Cluster 2 Start -->
<g id="edge7" class="edge">
<title>Decision&#45;&gt;Cluster 2 Start</title>
<path fill="none" stroke="black" d="M185.57,-90.19C203.43,-86 226.27,-80.63 248.35,-75.44"/>
<polygon fill="black" stroke="black" points="249.15,-78.85 258.09,-73.15 247.55,-72.03 249.15,-78.85"/>
<text text-anchor="middle" x="238.59" y="-83.8" font-family="Times,serif" font-size="14.00">no</text>
</g>
</g>
</svg>
