<?xml version="1.0" encoding="UTF-8" standalone="no"?>
<!DOCTYPE svg PUBLIC "-//W3C//DTD SVG 1.1//EN"
 "http://www.w3.org/Graphics/SVG/1.1/DTD/svg11.dtd">
<!-- Generated by graphviz version 2.38.0 (20140413.2041)
 -->
<!-- Title: %3 Pages: 1 -->
<svg width="821pt" height="205pt"
 viewBox="0.00 0.00 820.75 205.00" xmlns="http://www.w3.org/2000/svg" xmlns:xlink="http://www.w3.org/1999/xlink">
<g id="graph0" class="graph" transform="scale(1 1) rotate(0) translate(4 201)">
<title>%3</title>
<polygon fill="white" stroke="none" points="-4,4 -4,-201 816.748,-201 816.748,4 -4,4"/>
<text text-anchor="middle" x="406.374" y="-7.8" font-family="Times New Roman,serif" font-size="14.00">Example Flow</text>
<g id="clust1" class="cluster"><title>cluster Negative path</title>
<polygon fill="#ffb6c1" stroke="black" points="259.385,-31 259.385,-106 726.352,-106 726.352,-31 259.385,-31"/>
<text text-anchor="middle" x="492.869" y="-90.8" font-family="Times New Roman,serif" font-size="14.00">Negative path</text>
</g>
<g id="clust2" class="cluster"><title>cluster Positive path</title>
<polygon fill="#90ee90" stroke="black" points="259.385,-114 259.385,-189 726.352,-189 726.352,-114 259.385,-114"/>
<text text-anchor="middle" x="492.869" y="-173.8" font-family="Times New Roman,serif" font-size="14.00">Positive path</text>
</g>
<!-- Decision -->
<g id="node1" class="node"><title>Decision</title>
<polygon fill="none" stroke="black" points="152.64,-121 92.6488,-103 152.64,-85 212.632,-103 152.64,-121"/>
<text text-anchor="middle" x="152.64" y="-99.3" font-family="Times New Roman,serif" font-size="14.00">Decision</text>
</g>
<!-- Cluster 1 Start -->
<g id="node6" class="node"><title>Cluster 1 Start</title>
<ellipse fill="none" stroke="black" cx="330.43" cy="-140" rx="63.0888" ry="18"/>
<text text-anchor="middle" x="330.43" y="-136.3" font-family="Times New Roman,serif" font-size="14.00">Cluster 1 Start</text>
</g>
<!-- Decision&#45;&gt;Cluster 1 Start -->
<g id="edge3" class="edge"><title>Decision&#45;&gt;Cluster 1 Start</title>
<path fill="none" stroke="black" d="M188.371,-110.31C211.35,-115.147 242.096,-121.618 269.017,-127.284"/>
<polygon fill="black" stroke="black" points="268.617,-130.777 279.124,-129.412 270.059,-123.927 268.617,-130.777"/>
<text text-anchor="middle" x="239.885" y="-125.8" font-family="Times New Roman,serif" font-size="14.00">yes</text>
</g>
<!-- Cluster 2 Start -->
<g id="node7" class="node"><title>Cluster 2 Start</title>
<ellipse fill="none" stroke="black" cx="330.43" cy="-57" rx="63.0888" ry="18"/>
<text text-anchor="middle" x="330.43" y="-53.3" font-family="Times New Roman,serif" font-size="14.00">Cluster 2 Start</text>
</g>
<!-- Decision&#45;&gt;Cluster 2 Start -->
<g id="edge4" class="edge"><title>Decision&#45;&gt;Cluster 2 Start</title>
<path fill="none" stroke="black" d="M185.474,-94.6697C209.902,-88.2776 244.244,-79.291 273.26,-71.6984"/>
<polygon fill="black" stroke="black" points="274.487,-74.9951 283.276,-69.0775 272.715,-68.2231 274.487,-74.9951"/>
<text text-anchor="middle" x="239.885" y="-86.8" font-family="Times New Roman,serif" font-size="14.00">no</text>
</g>
<!-- Exit -->
<g id="node2" class="node"><title>Exit</title>
<ellipse fill="none" stroke="black" cx="784.05" cy="-105" rx="24.8692" ry="24.8692"/>
<ellipse fill="none" stroke="black" cx="784.05" cy="-105" rx="28.897" ry="28.897"/>
<text text-anchor="middle" x="784.05" y="-101.3" font-family="Times New Roman,serif" font-size="14.00">Exit</text>
</g>
<!-- Start -->
<g id="node3" class="node"><title>Start</title>
<ellipse fill="none" stroke="black" cx="27.9475" cy="-103" rx="27.8951" ry="27.8951"/>
<text text-anchor="middle" x="27.9475" y="-99.3" font-family="Times New Roman,serif" font-size="14.00">Start</text>
</g>
<!-- Start&#45;&gt;Decision -->
<g id="edge5" class="edge"><title>Start&#45;&gt;Decision</title>
<path fill="none" stroke="black" d="M56.177,-103C64.1612,-103 73.276,-103 82.6322,-103"/>
<polygon fill="black" stroke="black" points="82.8375,-106.5 92.8375,-103 82.8375,-99.5001 82.8375,-106.5"/>
</g>
<!-- Cluster 1 Exit -->
<g id="node4" class="node"><title>Cluster 1 Exit</title>
<ellipse fill="none" stroke="black" cx="658.557" cy="-140" rx="59.5901" ry="18"/>
<text text-anchor="middle" x="658.557" y="-136.3" font-family="Times New Roman,serif" font-size="14.00">Cluster 1 Exit</text>
</g>
<!-- Cluster 1 Exit&#45;&gt;Exit -->
<g id="edge1" class="edge"><title>Cluster 1 Exit&#45;&gt;Exit</title>
<path fill="none" stroke="black" d="M702.749,-127.759C716.938,-123.737 732.568,-119.307 746.238,-115.433"/>
<polygon fill="black" stroke="black" points="747.587,-118.689 756.254,-112.594 745.678,-111.954 747.587,-118.689"/>
</g>
<!-- Cluster 2 Exit -->
<g id="node5" class="node"><title>Cluster 2 Exit</title>
<ellipse fill="none" stroke="black" cx="658.557" cy="-57" rx="59.5901" ry="18"/>
<text text-anchor="middle" x="658.557" y="-53.3" font-family="Times New Roman,serif" font-size="14.00">Cluster 2 Exit</text>
</g>
<!-- Cluster 2 Exit&#45;&gt;Exit -->
<g id="edge2" class="edge"><title>Cluster 2 Exit&#45;&gt;Exit</title>
<path fill="none" stroke="black" d="M695.941,-71.142C712.203,-77.4626 731.305,-84.8874 747.471,-91.1709"/>
<polygon fill="black" stroke="black" points="746.517,-94.555 757.105,-94.9157 749.053,-88.0306 746.517,-94.555"/>
</g>
<!-- Cluster 1 Node -->
<g id="node9" class="node"><title>Cluster 1 Node</title>
<ellipse fill="none" stroke="black" cx="496.118" cy="-140" rx="65.7887" ry="18"/>
<text text-anchor="middle" x="496.118" y="-136.3" font-family="Times New Roman,serif" font-size="14.00">Cluster 1 Node</text>
</g>
<!-- Cluster 1 Start&#45;&gt;Cluster 1 Node -->
<g id="edge9" class="edge"><title>Cluster 1 Start&#45;&gt;Cluster 1 Node</title>
<path fill="none" stroke="black" d="M393.78,-140C402.352,-140 411.227,-140 419.998,-140"/>
<polygon fill="black" stroke="black" points="420.222,-143.5 430.222,-140 420.222,-136.5 420.222,-143.5"/>
</g>
<!-- Cluster 2 Node -->
<g id="node8" class="node"><title>Cluster 2 Node</title>
<ellipse fill="none" stroke="black" cx="496.118" cy="-57" rx="65.7887" ry="18"/>
<text text-anchor="middle" x="496.118" y="-53.3" font-family="Times New Roman,serif" font-size="14.00">Cluster 2 Node</text>
</g>
<!-- Cluster 2 Start&#45;&gt;Cluster 2 Node -->
<g id="edge7" class="edge"><title>Cluster 2 Start&#45;&gt;Cluster 2 Node</title>
<path fill="none" stroke="black" d="M393.78,-57C402.352,-57 411.227,-57 419.998,-57"/>
<polygon fill="black" stroke="black" points="420.222,-60.5001 430.222,-57 420.222,-53.5001 420.222,-60.5001"/>
</g>
<!-- Cluster 2 Node&#45;&gt;Cluster 2 Exit -->
<g id="edge6" class="edge"><title>Cluster 2 Node&#45;&gt;Cluster 2 Exit</title>
<path fill="none" stroke="black" d="M561.913,-57C570.664,-57 579.669,-57 588.492,-57"/>
<polygon fill="black" stroke="black" points="588.738,-60.5001 598.738,-57 588.737,-53.5001 588.738,-60.5001"/>
</g>
<!-- Cluster 1 Node&#45;&gt;Cluster 1 Exit -->
<g id="edge8" class="edge"><title>Cluster 1 Node&#45;&gt;Cluster 1 Exit</title>
<path fill="none" stroke="black" d="M561.913,-140C570.664,-140 579.669,-140 588.492,-140"/>
<polygon fill="black" stroke="black" points="588.738,-143.5 598.738,-140 588.737,-136.5 588.738,-143.5"/>
</g>
</g>
</svg>
