<?xml version="1.0" encoding="UTF-8" standalone="no"?>
<!DOCTYPE svg PUBLIC "-//W3C//DTD SVG 1.1//EN"
 "http://www.w3.org/Graphics/SVG/1.1/DTD/svg11.dtd">
<!-- Generated by graphviz version 2.38.0 (20140413.2041)
 -->
<!-- Title: %3 Pages: 1 -->
<svg width="1052pt" height="205pt"
 viewBox="0.00 0.00 1052.00 205.00" xmlns="http://www.w3.org/2000/svg" xmlns:xlink="http://www.w3.org/1999/xlink">
<g id="graph0" class="graph" transform="scale(1 1) rotate(0) translate(4 201)">
<title>%3</title>
<polygon fill="white" stroke="none" points="-4,4 -4,-201 1048,-201 1048,4 -4,4"/>
<!-- e -->
<g id="node1" class="node"><title>e</title>
<ellipse fill="none" stroke="black" cx="297" cy="-141" rx="27" ry="18"/>
<text text-anchor="middle" x="297" y="-137.3" font-family="Times New Roman,serif" font-size="14.00">e</text>
</g>
<!-- h -->
<g id="node2" class="node"><title>h</title>
<ellipse fill="none" stroke="black" cx="387" cy="-164" rx="27" ry="18"/>
<text text-anchor="middle" x="387" y="-160.3" font-family="Times New Roman,serif" font-size="14.00">h</text>
</g>
<!-- e&#45;&#45;h -->
<g id="edge1" class="edge"><title>e&#45;&#45;h</title>
<path fill="none" stroke="black" d="M322.513,-147.407C334.718,-150.597 349.431,-154.442 361.619,-157.628"/>
</g>
<!-- o -->
<g id="node14" class="node"><title>o</title>
<ellipse fill="none" stroke="black" cx="657" cy="-156" rx="27" ry="18"/>
<text text-anchor="middle" x="657" y="-152.3" font-family="Times New Roman,serif" font-size="14.00">o</text>
</g>
<!-- h&#45;&#45;o -->
<g id="edge17" class="edge"><title>h&#45;&#45;o</title>
<path fill="none" stroke="black" d="M410.881,-172.795C422.422,-176.77 436.751,-181.015 450,-183 515.815,-192.858 593.763,-174.483 632.17,-163.449"/>
</g>
<!-- l -->
<g id="node15" class="node"><title>l</title>
<ellipse fill="none" stroke="black" cx="477" cy="-156" rx="27" ry="18"/>
<text text-anchor="middle" x="477" y="-152.3" font-family="Times New Roman,serif" font-size="14.00">l</text>
</g>
<!-- h&#45;&#45;l -->
<g id="edge18" class="edge"><title>h&#45;&#45;l</title>
<path fill="none" stroke="black" d="M413.927,-161.643C425.283,-160.611 438.584,-159.401 449.954,-158.368"/>
</g>
<!-- g -->
<g id="node3" class="node"><title>g</title>
<ellipse fill="none" stroke="black" cx="387" cy="-18" rx="27" ry="18"/>
<text text-anchor="middle" x="387" y="-14.3" font-family="Times New Roman,serif" font-size="14.00">g</text>
</g>
<!-- k -->
<g id="node4" class="node"><title>k</title>
<ellipse fill="none" stroke="black" cx="567" cy="-18" rx="27" ry="18"/>
<text text-anchor="middle" x="567" y="-14.3" font-family="Times New Roman,serif" font-size="14.00">k</text>
</g>
<!-- g&#45;&#45;k -->
<g id="edge2" class="edge"><title>g&#45;&#45;k</title>
<path fill="none" stroke="black" d="M414.265,-18C448.015,-18 506.256,-18 539.918,-18"/>
</g>
<!-- r -->
<g id="node5" class="node"><title>r</title>
<ellipse fill="none" stroke="black" cx="927" cy="-41" rx="27" ry="18"/>
<text text-anchor="middle" x="927" y="-37.3" font-family="Times New Roman,serif" font-size="14.00">r</text>
</g>
<!-- k&#45;&#45;r -->
<g id="edge25" class="edge"><title>k&#45;&#45;r</title>
<path fill="none" stroke="black" d="M594.035,-19.6726C660.166,-23.9213 834.038,-35.0918 900.063,-39.3336"/>
</g>
<!-- n -->
<g id="node17" class="node"><title>n</title>
<ellipse fill="none" stroke="black" cx="657" cy="-64" rx="27" ry="18"/>
<text text-anchor="middle" x="657" y="-60.3" font-family="Times New Roman,serif" font-size="14.00">n</text>
</g>
<!-- k&#45;&#45;n -->
<g id="edge26" class="edge"><title>k&#45;&#45;n</title>
<path fill="none" stroke="black" d="M588.855,-28.9014C602.883,-36.2341 621.298,-45.8605 635.295,-53.1769"/>
</g>
<!-- t -->
<g id="node6" class="node"><title>t</title>
<ellipse fill="none" stroke="black" cx="1017" cy="-87" rx="27" ry="18"/>
<text text-anchor="middle" x="1017" y="-83.3" font-family="Times New Roman,serif" font-size="14.00">t</text>
</g>
<!-- r&#45;&#45;t -->
<g id="edge3" class="edge"><title>r&#45;&#45;t</title>
<path fill="none" stroke="black" d="M948.855,-51.9014C962.883,-59.2341 981.298,-68.8605 995.295,-76.1769"/>
</g>
<!-- a -->
<g id="node7" class="node"><title>a</title>
<ellipse fill="none" stroke="black" cx="27" cy="-91" rx="27" ry="18"/>
<text text-anchor="middle" x="27" y="-87.3" font-family="Times New Roman,serif" font-size="14.00">a</text>
</g>
<!-- b -->
<g id="node8" class="node"><title>b</title>
<ellipse fill="none" stroke="black" cx="117" cy="-137" rx="27" ry="18"/>
<text text-anchor="middle" x="117" y="-133.3" font-family="Times New Roman,serif" font-size="14.00">b</text>
</g>
<!-- a&#45;&#45;b -->
<g id="edge4" class="edge"><title>a&#45;&#45;b</title>
<path fill="none" stroke="black" d="M48.8548,-101.901C62.8827,-109.234 81.2984,-118.861 95.2949,-126.177"/>
</g>
<!-- c -->
<g id="node9" class="node"><title>c</title>
<ellipse fill="none" stroke="black" cx="207" cy="-95" rx="27" ry="18"/>
<text text-anchor="middle" x="207" y="-91.3" font-family="Times New Roman,serif" font-size="14.00">c</text>
</g>
<!-- a&#45;&#45;c -->
<g id="edge5" class="edge"><title>a&#45;&#45;c</title>
<path fill="none" stroke="black" d="M54.2645,-91.5902C88.0151,-92.3487 146.256,-93.6574 179.918,-94.4139"/>
</g>
<!-- d -->
<g id="node10" class="node"><title>d</title>
<ellipse fill="none" stroke="black" cx="207" cy="-41" rx="27" ry="18"/>
<text text-anchor="middle" x="207" y="-37.3" font-family="Times New Roman,serif" font-size="14.00">d</text>
</g>
<!-- a&#45;&#45;d -->
<g id="edge6" class="edge"><title>a&#45;&#45;d</title>
<path fill="none" stroke="black" d="M52.3769,-84.1526C86.4636,-74.5776 147.99,-57.2951 181.917,-47.7647"/>
</g>
<!-- b&#45;&#45;e -->
<g id="edge7" class="edge"><title>b&#45;&#45;e</title>
<path fill="none" stroke="black" d="M144.265,-137.59C178.015,-138.349 236.256,-139.657 269.918,-140.414"/>
</g>
<!-- b&#45;&#45;c -->
<g id="edge8" class="edge"><title>b&#45;&#45;c</title>
<path fill="none" stroke="black" d="M139.302,-126.833C153.036,-120.278 170.833,-111.784 184.589,-105.219"/>
</g>
<!-- c&#45;&#45;e -->
<g id="edge9" class="edge"><title>c&#45;&#45;e</title>
<path fill="none" stroke="black" d="M228.855,-105.901C242.883,-113.234 261.298,-122.861 275.295,-130.177"/>
</g>
<!-- f -->
<g id="node11" class="node"><title>f</title>
<ellipse fill="none" stroke="black" cx="297" cy="-87" rx="27" ry="18"/>
<text text-anchor="middle" x="297" y="-83.3" font-family="Times New Roman,serif" font-size="14.00">f</text>
</g>
<!-- c&#45;&#45;f -->
<g id="edge10" class="edge"><title>c&#45;&#45;f</title>
<path fill="none" stroke="black" d="M233.927,-92.643C245.283,-91.6106 258.584,-90.4014 269.954,-89.3678"/>
</g>
<!-- d&#45;&#45;g -->
<g id="edge11" class="edge"><title>d&#45;&#45;g</title>
<path fill="none" stroke="black" d="M233.883,-37.6556C267.727,-33.2825 326.659,-25.6677 360.375,-21.3111"/>
</g>
<!-- d&#45;&#45;f -->
<g id="edge12" class="edge"><title>d&#45;&#45;f</title>
<path fill="none" stroke="black" d="M228.855,-51.9014C242.883,-59.2341 261.298,-68.8605 275.295,-76.1769"/>
</g>
<!-- f&#45;&#45;h -->
<g id="edge13" class="edge"><title>f&#45;&#45;h</title>
<path fill="none" stroke="black" d="M314.141,-101.123C330.019,-115.016 354.119,-136.104 369.962,-149.967"/>
</g>
<!-- f&#45;&#45;g -->
<g id="edge14" class="edge"><title>f&#45;&#45;g</title>
<path fill="none" stroke="black" d="M315.386,-73.3678C330.814,-61.2712 353.233,-43.6919 368.65,-31.6039"/>
</g>
<!-- i -->
<g id="node12" class="node"><title>i</title>
<ellipse fill="none" stroke="black" cx="387" cy="-110" rx="27" ry="18"/>
<text text-anchor="middle" x="387" y="-106.3" font-family="Times New Roman,serif" font-size="14.00">i</text>
</g>
<!-- f&#45;&#45;i -->
<g id="edge15" class="edge"><title>f&#45;&#45;i</title>
<path fill="none" stroke="black" d="M322.513,-93.4068C334.718,-96.5969 349.431,-100.442 361.619,-103.628"/>
</g>
<!-- j -->
<g id="node13" class="node"><title>j</title>
<ellipse fill="none" stroke="black" cx="477" cy="-64" rx="27" ry="18"/>
<text text-anchor="middle" x="477" y="-60.3" font-family="Times New Roman,serif" font-size="14.00">j</text>
</g>
<!-- f&#45;&#45;j -->
<g id="edge16" class="edge"><title>f&#45;&#45;j</title>
<path fill="none" stroke="black" d="M323.883,-83.6556C357.727,-79.2825 416.659,-71.6677 450.375,-67.3111"/>
</g>
<!-- i&#45;&#45;j -->
<g id="edge19" class="edge"><title>i&#45;&#45;j</title>
<path fill="none" stroke="black" d="M408.855,-99.0986C422.883,-91.7659 441.298,-82.1395 455.295,-74.8231"/>
</g>
<!-- i&#45;&#45;l -->
<g id="edge20" class="edge"><title>i&#45;&#45;l</title>
<path fill="none" stroke="black" d="M408.855,-120.901C422.883,-128.234 441.298,-137.861 455.295,-145.177"/>
</g>
<!-- m -->
<g id="node16" class="node"><title>m</title>
<ellipse fill="none" stroke="black" cx="567" cy="-110" rx="27" ry="18"/>
<text text-anchor="middle" x="567" y="-106.3" font-family="Times New Roman,serif" font-size="14.00">m</text>
</g>
<!-- i&#45;&#45;m -->
<g id="edge21" class="edge"><title>i&#45;&#45;m</title>
<path fill="none" stroke="black" d="M414.265,-110C448.015,-110 506.256,-110 539.918,-110"/>
</g>
<!-- j&#45;&#45;k -->
<g id="edge22" class="edge"><title>j&#45;&#45;k</title>
<path fill="none" stroke="black" d="M498.855,-53.0986C512.883,-45.7659 531.298,-36.1395 545.295,-28.8231"/>
</g>
<!-- j&#45;&#45;m -->
<g id="edge23" class="edge"><title>j&#45;&#45;m</title>
<path fill="none" stroke="black" d="M498.855,-74.9014C512.883,-82.2341 531.298,-91.8605 545.295,-99.1769"/>
</g>
<!-- j&#45;&#45;n -->
<g id="edge24" class="edge"><title>j&#45;&#45;n</title>
<path fill="none" stroke="black" d="M504.265,-64C538.015,-64 596.256,-64 629.918,-64"/>
</g>
<!-- p -->
<g id="node18" class="node"><title>p</title>
<ellipse fill="none" stroke="black" cx="747" cy="-125" rx="27" ry="18"/>
<text text-anchor="middle" x="747" y="-121.3" font-family="Times New Roman,serif" font-size="14.00">p</text>
</g>
<!-- o&#45;&#45;p -->
<g id="edge34" class="edge"><title>o&#45;&#45;p</title>
<path fill="none" stroke="black" d="M681.121,-147.855C693.954,-143.334 709.871,-137.727 722.728,-133.198"/>
</g>
<!-- s -->
<g id="node20" class="node"><title>s</title>
<ellipse fill="none" stroke="black" cx="747" cy="-179" rx="27" ry="18"/>
<text text-anchor="middle" x="747" y="-175.3" font-family="Times New Roman,serif" font-size="14.00">s</text>
</g>
<!-- o&#45;&#45;s -->
<g id="edge35" class="edge"><title>o&#45;&#45;s</title>
<path fill="none" stroke="black" d="M682.513,-162.407C694.718,-165.597 709.431,-169.442 721.619,-172.628"/>
</g>
<!-- l&#45;&#45;o -->
<g id="edge27" class="edge"><title>l&#45;&#45;o</title>
<path fill="none" stroke="black" d="M504.265,-156C538.015,-156 596.256,-156 629.918,-156"/>
</g>
<!-- l&#45;&#45;m -->
<g id="edge28" class="edge"><title>l&#45;&#45;m</title>
<path fill="none" stroke="black" d="M498.855,-145.099C512.883,-137.766 531.298,-128.139 545.295,-120.823"/>
</g>
<!-- m&#45;&#45;o -->
<g id="edge29" class="edge"><title>m&#45;&#45;o</title>
<path fill="none" stroke="black" d="M588.855,-120.901C602.883,-128.234 621.298,-137.861 635.295,-145.177"/>
</g>
<!-- m&#45;&#45;n -->
<g id="edge30" class="edge"><title>m&#45;&#45;n</title>
<path fill="none" stroke="black" d="M588.855,-99.0986C602.883,-91.7659 621.298,-82.1395 635.295,-74.8231"/>
</g>
<!-- m&#45;&#45;p -->
<g id="edge31" class="edge"><title>m&#45;&#45;p</title>
<path fill="none" stroke="black" d="M593.883,-112.181C627.63,-115.025 686.323,-119.971 720.086,-122.816"/>
</g>
<!-- n&#45;&#45;r -->
<g id="edge32" class="edge"><title>n&#45;&#45;r</title>
<path fill="none" stroke="black" d="M684.185,-61.7528C735.552,-57.3444 848.969,-47.6108 900.103,-43.2225"/>
</g>
<!-- q -->
<g id="node19" class="node"><title>q</title>
<ellipse fill="none" stroke="black" cx="837" cy="-87" rx="27" ry="18"/>
<text text-anchor="middle" x="837" y="-83.3" font-family="Times New Roman,serif" font-size="14.00">q</text>
</g>
<!-- n&#45;&#45;q -->
<g id="edge33" class="edge"><title>n&#45;&#45;q</title>
<path fill="none" stroke="black" d="M683.883,-67.3444C717.727,-71.7175 776.659,-79.3323 810.375,-83.6889"/>
</g>
<!-- p&#45;&#45;t -->
<g id="edge36" class="edge"><title>p&#45;&#45;t</title>
<path fill="none" stroke="black" d="M773.857,-123.103C813.05,-119.977 889.738,-112.878 954,-101 966.37,-98.7136 980.018,-95.6873 991.353,-93.0334"/>
</g>
<!-- p&#45;&#45;q -->
<g id="edge37" class="edge"><title>p&#45;&#45;q</title>
<path fill="none" stroke="black" d="M770.206,-115.411C783.546,-109.65 800.462,-102.346 813.801,-96.5859"/>
</g>
<!-- q&#45;&#45;r -->
<g id="edge38" class="edge"><title>q&#45;&#45;r</title>
<path fill="none" stroke="black" d="M858.855,-76.0986C872.883,-68.7659 891.298,-59.1395 905.295,-51.8231"/>
</g>
<!-- q&#45;&#45;t -->
<g id="edge39" class="edge"><title>q&#45;&#45;t</title>
<path fill="none" stroke="black" d="M864.265,-87C898.015,-87 956.256,-87 989.918,-87"/>
</g>
</g>
</svg>
