<?xml version="1.0" encoding="UTF-8" standalone="no"?>
<!DOCTYPE svg PUBLIC "-//W3C//DTD SVG 1.1//EN"
 "http://www.w3.org/Graphics/SVG/1.1/DTD/svg11.dtd">
<!-- Generated by graphviz version 2.38.0 (20140413.2041)
 -->
<!-- Title: %3 Pages: 1 -->
<svg width="1142pt" height="201pt"
 viewBox="0.00 0.00 1142.00 201.00" xmlns="http://www.w3.org/2000/svg" xmlns:xlink="http://www.w3.org/1999/xlink">
<g id="graph0" class="graph" transform="scale(1 1) rotate(0) translate(4 197)">
<title>%3</title>
<polygon fill="white" stroke="none" points="-4,4 -4,-197 1138,-197 1138,4 -4,4"/>
<!-- a -->
<g id="node1" class="node"><title>a</title>
<ellipse fill="none" stroke="black" cx="27" cy="-89" rx="27" ry="18"/>
<text text-anchor="middle" x="27" y="-85.3" font-family="Times New Roman,serif" font-size="14.00">a</text>
</g>
<!-- b -->
<g id="node2" class="node"><title>b</title>
<ellipse fill="none" stroke="black" cx="117" cy="-43" rx="27" ry="18"/>
<text text-anchor="middle" x="117" y="-39.3" font-family="Times New Roman,serif" font-size="14.00">b</text>
</g>
<!-- a&#45;&#45;b -->
<g id="edge1" class="edge"><title>a&#45;&#45;b</title>
<path fill="none" stroke="black" d="M48.8548,-78.0986C62.8827,-70.7659 81.2984,-61.1395 95.2949,-53.8231"/>
</g>
<!-- c -->
<g id="node3" class="node"><title>c</title>
<ellipse fill="none" stroke="black" cx="207" cy="-81" rx="27" ry="18"/>
<text text-anchor="middle" x="207" y="-77.3" font-family="Times New Roman,serif" font-size="14.00">c</text>
</g>
<!-- a&#45;&#45;c -->
<g id="edge2" class="edge"><title>a&#45;&#45;c</title>
<path fill="none" stroke="black" d="M54.2645,-87.8196C88.0151,-86.3027 146.256,-83.6851 179.918,-82.1722"/>
</g>
<!-- d -->
<g id="node4" class="node"><title>d</title>
<ellipse fill="none" stroke="black" cx="207" cy="-135" rx="27" ry="18"/>
<text text-anchor="middle" x="207" y="-131.3" font-family="Times New Roman,serif" font-size="14.00">d</text>
</g>
<!-- a&#45;&#45;d -->
<g id="edge3" class="edge"><title>a&#45;&#45;d</title>
<path fill="none" stroke="black" d="M52.3769,-95.2997C86.3684,-104.084 147.646,-119.92 181.633,-128.703"/>
</g>
<!-- b&#45;&#45;c -->
<g id="edge4" class="edge"><title>b&#45;&#45;c</title>
<path fill="none" stroke="black" d="M140.206,-52.589C153.546,-58.3495 170.462,-65.6541 183.801,-71.4141"/>
</g>
<!-- e -->
<g id="node5" class="node"><title>e</title>
<ellipse fill="none" stroke="black" cx="297" cy="-35" rx="27" ry="18"/>
<text text-anchor="middle" x="297" y="-31.3" font-family="Times New Roman,serif" font-size="14.00">e</text>
</g>
<!-- b&#45;&#45;e -->
<g id="edge5" class="edge"><title>b&#45;&#45;e</title>
<path fill="none" stroke="black" d="M144.265,-41.8196C178.015,-40.3027 236.256,-37.6851 269.918,-36.1722"/>
</g>
<!-- c&#45;&#45;e -->
<g id="edge6" class="edge"><title>c&#45;&#45;e</title>
<path fill="none" stroke="black" d="M228.855,-70.0986C242.883,-62.7659 261.298,-53.1395 275.295,-45.8231"/>
</g>
<!-- f -->
<g id="node6" class="node"><title>f</title>
<ellipse fill="none" stroke="black" cx="297" cy="-100" rx="27" ry="18"/>
<text text-anchor="middle" x="297" y="-96.3" font-family="Times New Roman,serif" font-size="14.00">f</text>
</g>
<!-- c&#45;&#45;f -->
<g id="edge7" class="edge"><title>c&#45;&#45;f</title>
<path fill="none" stroke="black" d="M232.982,-86.3938C244.872,-88.9611 259.057,-92.0237 270.956,-94.5927"/>
</g>
<!-- d&#45;&#45;f -->
<g id="edge8" class="edge"><title>d&#45;&#45;f</title>
<path fill="none" stroke="black" d="M230.662,-125.987C243.801,-120.761 260.289,-114.203 273.415,-108.983"/>
</g>
<!-- g -->
<g id="node7" class="node"><title>g</title>
<ellipse fill="none" stroke="black" cx="387" cy="-175" rx="27" ry="18"/>
<text text-anchor="middle" x="387" y="-171.3" font-family="Times New Roman,serif" font-size="14.00">g</text>
</g>
<!-- d&#45;&#45;g -->
<g id="edge9" class="edge"><title>d&#45;&#45;g</title>
<path fill="none" stroke="black" d="M232.75,-140.562C266.662,-148.182 327.222,-161.791 361.174,-169.421"/>
</g>
<!-- h -->
<g id="node8" class="node"><title>h</title>
<ellipse fill="none" stroke="black" cx="387" cy="-29" rx="27" ry="18"/>
<text text-anchor="middle" x="387" y="-25.3" font-family="Times New Roman,serif" font-size="14.00">h</text>
</g>
<!-- e&#45;&#45;h -->
<g id="edge10" class="edge"><title>e&#45;&#45;h</title>
<path fill="none" stroke="black" d="M323.927,-33.2323C335.283,-32.4579 348.584,-31.5511 359.954,-30.7758"/>
</g>
<!-- f&#45;&#45;g -->
<g id="edge11" class="edge"><title>f&#45;&#45;g</title>
<path fill="none" stroke="black" d="M314.552,-114.107C330.285,-127.516 353.814,-147.568 369.522,-160.956"/>
</g>
<!-- f&#45;&#45;h -->
<g id="edge12" class="edge"><title>f&#45;&#45;h</title>
<path fill="none" stroke="black" d="M314.967,-86.3105C330.55,-73.738 353.518,-55.2067 369.085,-42.6475"/>
</g>
<!-- i -->
<g id="node9" class="node"><title>i</title>
<ellipse fill="none" stroke="black" cx="387" cy="-83" rx="27" ry="18"/>
<text text-anchor="middle" x="387" y="-79.3" font-family="Times New Roman,serif" font-size="14.00">i</text>
</g>
<!-- f&#45;&#45;i -->
<g id="edge13" class="edge"><title>f&#45;&#45;i</title>
<path fill="none" stroke="black" d="M323.453,-95.0829C335.23,-92.8079 349.176,-90.1137 360.908,-87.8473"/>
</g>
<!-- j -->
<g id="node10" class="node"><title>j</title>
<ellipse fill="none" stroke="black" cx="477" cy="-129" rx="27" ry="18"/>
<text text-anchor="middle" x="477" y="-125.3" font-family="Times New Roman,serif" font-size="14.00">j</text>
</g>
<!-- f&#45;&#45;j -->
<g id="edge14" class="edge"><title>f&#45;&#45;j</title>
<path fill="none" stroke="black" d="M323.503,-104.155C357.341,-109.668 416.73,-119.344 450.544,-124.853"/>
</g>
<!-- k -->
<g id="node11" class="node"><title>k</title>
<ellipse fill="none" stroke="black" cx="567" cy="-175" rx="27" ry="18"/>
<text text-anchor="middle" x="567" y="-171.3" font-family="Times New Roman,serif" font-size="14.00">k</text>
</g>
<!-- g&#45;&#45;k -->
<g id="edge15" class="edge"><title>g&#45;&#45;k</title>
<path fill="none" stroke="black" d="M414.265,-175C448.015,-175 506.256,-175 539.918,-175"/>
</g>
<!-- l -->
<g id="node12" class="node"><title>l</title>
<ellipse fill="none" stroke="black" cx="477" cy="-37" rx="27" ry="18"/>
<text text-anchor="middle" x="477" y="-33.3" font-family="Times New Roman,serif" font-size="14.00">l</text>
</g>
<!-- h&#45;&#45;l -->
<g id="edge16" class="edge"><title>h&#45;&#45;l</title>
<path fill="none" stroke="black" d="M413.927,-31.357C425.283,-32.3894 438.584,-33.5986 449.954,-34.6322"/>
</g>
<!-- o -->
<g id="node13" class="node"><title>o</title>
<ellipse fill="none" stroke="black" cx="657" cy="-37" rx="27" ry="18"/>
<text text-anchor="middle" x="657" y="-33.3" font-family="Times New Roman,serif" font-size="14.00">o</text>
</g>
<!-- h&#45;&#45;o -->
<g id="edge17" class="edge"><title>h&#45;&#45;o</title>
<path fill="none" stroke="black" d="M410.881,-20.2048C422.422,-16.2296 436.751,-11.9846 450,-10 515.815,-0.14178 593.763,-18.5174 632.17,-29.5509"/>
</g>
<!-- i&#45;&#45;j -->
<g id="edge18" class="edge"><title>i&#45;&#45;j</title>
<path fill="none" stroke="black" d="M408.855,-93.9014C422.883,-101.234 441.298,-110.861 455.295,-118.177"/>
</g>
<!-- i&#45;&#45;l -->
<g id="edge19" class="edge"><title>i&#45;&#45;l</title>
<path fill="none" stroke="black" d="M408.855,-72.0986C422.883,-64.7659 441.298,-55.1395 455.295,-47.8231"/>
</g>
<!-- m -->
<g id="node14" class="node"><title>m</title>
<ellipse fill="none" stroke="black" cx="567" cy="-83" rx="27" ry="18"/>
<text text-anchor="middle" x="567" y="-79.3" font-family="Times New Roman,serif" font-size="14.00">m</text>
</g>
<!-- i&#45;&#45;m -->
<g id="edge20" class="edge"><title>i&#45;&#45;m</title>
<path fill="none" stroke="black" d="M414.265,-83C448.015,-83 506.256,-83 539.918,-83"/>
</g>
<!-- j&#45;&#45;k -->
<g id="edge21" class="edge"><title>j&#45;&#45;k</title>
<path fill="none" stroke="black" d="M498.855,-139.901C512.883,-147.234 531.298,-156.861 545.295,-164.177"/>
</g>
<!-- j&#45;&#45;m -->
<g id="edge22" class="edge"><title>j&#45;&#45;m</title>
<path fill="none" stroke="black" d="M498.855,-118.099C512.883,-110.766 531.298,-101.139 545.295,-93.8231"/>
</g>
<!-- n -->
<g id="node15" class="node"><title>n</title>
<ellipse fill="none" stroke="black" cx="657" cy="-129" rx="27" ry="18"/>
<text text-anchor="middle" x="657" y="-125.3" font-family="Times New Roman,serif" font-size="14.00">n</text>
</g>
<!-- j&#45;&#45;n -->
<g id="edge23" class="edge"><title>j&#45;&#45;n</title>
<path fill="none" stroke="black" d="M504.265,-129C538.015,-129 596.256,-129 629.918,-129"/>
</g>
<!-- k&#45;&#45;n -->
<g id="edge24" class="edge"><title>k&#45;&#45;n</title>
<path fill="none" stroke="black" d="M588.855,-164.099C602.883,-156.766 621.298,-147.139 635.295,-139.823"/>
</g>
<!-- r -->
<g id="node16" class="node"><title>r</title>
<ellipse fill="none" stroke="black" cx="927" cy="-154" rx="27" ry="18"/>
<text text-anchor="middle" x="927" y="-150.3" font-family="Times New Roman,serif" font-size="14.00">r</text>
</g>
<!-- k&#45;&#45;r -->
<g id="edge25" class="edge"><title>k&#45;&#45;r</title>
<path fill="none" stroke="black" d="M594.147,-173.819C645.762,-171.438 764.386,-165.708 864,-159 875.852,-158.202 888.966,-157.167 900.069,-156.245"/>
</g>
<!-- l&#45;&#45;o -->
<g id="edge27" class="edge"><title>l&#45;&#45;o</title>
<path fill="none" stroke="black" d="M504.265,-37C538.015,-37 596.256,-37 629.918,-37"/>
</g>
<!-- l&#45;&#45;m -->
<g id="edge26" class="edge"><title>l&#45;&#45;m</title>
<path fill="none" stroke="black" d="M498.855,-47.9014C512.883,-55.2341 531.298,-64.8605 545.295,-72.1769"/>
</g>
<!-- p -->
<g id="node17" class="node"><title>p</title>
<ellipse fill="none" stroke="black" cx="747" cy="-64" rx="27" ry="18"/>
<text text-anchor="middle" x="747" y="-60.3" font-family="Times New Roman,serif" font-size="14.00">p</text>
</g>
<!-- o&#45;&#45;p -->
<g id="edge33" class="edge"><title>o&#45;&#45;p</title>
<path fill="none" stroke="black" d="M682.046,-44.3779C694.565,-48.2188 709.818,-52.8986 722.287,-56.7245"/>
</g>
<!-- s -->
<g id="node19" class="node"><title>s</title>
<ellipse fill="none" stroke="black" cx="837" cy="-18" rx="27" ry="18"/>
<text text-anchor="middle" x="837" y="-14.3" font-family="Times New Roman,serif" font-size="14.00">s</text>
</g>
<!-- o&#45;&#45;s -->
<g id="edge34" class="edge"><title>o&#45;&#45;s</title>
<path fill="none" stroke="black" d="M683.883,-34.2372C717.63,-30.635 776.323,-24.37 810.086,-20.7661"/>
</g>
<!-- m&#45;&#45;o -->
<g id="edge29" class="edge"><title>m&#45;&#45;o</title>
<path fill="none" stroke="black" d="M588.855,-72.0986C602.883,-64.7659 621.298,-55.1395 635.295,-47.8231"/>
</g>
<!-- m&#45;&#45;n -->
<g id="edge28" class="edge"><title>m&#45;&#45;n</title>
<path fill="none" stroke="black" d="M588.855,-93.9014C602.883,-101.234 621.298,-110.861 635.295,-118.177"/>
</g>
<!-- m&#45;&#45;p -->
<g id="edge30" class="edge"><title>m&#45;&#45;p</title>
<path fill="none" stroke="black" d="M593.883,-80.2372C627.63,-76.635 686.323,-70.37 720.086,-66.7661"/>
</g>
<!-- n&#45;&#45;r -->
<g id="edge32" class="edge"><title>n&#45;&#45;r</title>
<path fill="none" stroke="black" d="M684.185,-131.443C735.552,-136.234 848.969,-146.814 900.103,-151.584"/>
</g>
<!-- q -->
<g id="node18" class="node"><title>q</title>
<ellipse fill="none" stroke="black" cx="837" cy="-110" rx="27" ry="18"/>
<text text-anchor="middle" x="837" y="-106.3" font-family="Times New Roman,serif" font-size="14.00">q</text>
</g>
<!-- n&#45;&#45;q -->
<g id="edge31" class="edge"><title>n&#45;&#45;q</title>
<path fill="none" stroke="black" d="M683.883,-126.237C717.63,-122.635 776.323,-116.37 810.086,-112.766"/>
</g>
<!-- t -->
<g id="node20" class="node"><title>t</title>
<ellipse fill="none" stroke="black" cx="1017" cy="-87" rx="27" ry="18"/>
<text text-anchor="middle" x="1017" y="-83.3" font-family="Times New Roman,serif" font-size="14.00">t</text>
</g>
<!-- r&#45;&#45;t -->
<g id="edge40" class="edge"><title>r&#45;&#45;t</title>
<path fill="none" stroke="black" d="M945.386,-140.763C960.814,-129.017 983.233,-111.947 998.65,-100.21"/>
</g>
<!-- p&#45;&#45;q -->
<g id="edge35" class="edge"><title>p&#45;&#45;q</title>
<path fill="none" stroke="black" d="M768.855,-74.9014C782.883,-82.2341 801.298,-91.8605 815.295,-99.1769"/>
</g>
<!-- p&#45;&#45;s -->
<g id="edge36" class="edge"><title>p&#45;&#45;s</title>
<path fill="none" stroke="black" d="M768.855,-53.0986C782.883,-45.7659 801.298,-36.1395 815.295,-28.8231"/>
</g>
<!-- p&#45;&#45;t -->
<g id="edge37" class="edge"><title>p&#45;&#45;t</title>
<path fill="none" stroke="black" d="M774.185,-66.2472C825.552,-70.6556 938.969,-80.3892 990.103,-84.7775"/>
</g>
<!-- q&#45;&#45;r -->
<g id="edge38" class="edge"><title>q&#45;&#45;r</title>
<path fill="none" stroke="black" d="M859.302,-120.651C873.138,-127.569 891.097,-136.549 904.894,-143.447"/>
</g>
<!-- q&#45;&#45;t -->
<g id="edge39" class="edge"><title>q&#45;&#45;t</title>
<path fill="none" stroke="black" d="M863.883,-106.656C897.727,-102.283 956.659,-94.6677 990.375,-90.3111"/>
</g>
<!-- z -->
<g id="node21" class="node"><title>z</title>
<ellipse fill="none" stroke="black" cx="1107" cy="-54" rx="27" ry="18"/>
<text text-anchor="middle" x="1107" y="-50.3" font-family="Times New Roman,serif" font-size="14.00">z</text>
</g>
<!-- s&#45;&#45;z -->
<g id="edge41" class="edge"><title>s&#45;&#45;z</title>
<path fill="none" stroke="black" d="M863.697,-21.4518C914.923,-28.3329 1029.22,-43.6861 1080.38,-50.5586"/>
</g>
<!-- t&#45;&#45;z -->
<g id="edge42" class="edge"><title>t&#45;&#45;z</title>
<path fill="none" stroke="black" d="M1041.12,-78.3296C1054.06,-73.4792 1070.12,-67.4535 1083.03,-62.6125"/>
</g>
</g>
</svg>
