<?xml version="1.0" encoding="UTF-8" standalone="no"?>
<!DOCTYPE svg PUBLIC "-//W3C//DTD SVG 1.1//EN"
 "http://www.w3.org/Graphics/SVG/1.1/DTD/svg11.dtd">
<!-- Generated by graphviz version 2.44.1 (20200629.0846)
 -->
<!-- Pages: 1 -->
<svg width="1052pt" height="205pt"
 viewBox="0.00 0.00 1052.00 205.00" xmlns="http://www.w3.org/2000/svg" xmlns:xlink="http://www.w3.org/1999/xlink">
<g id="graph0" class="graph" transform="scale(1 1) rotate(0) translate(4 201)">
<polygon fill="white" stroke="transparent" points="-4,4 -4,-201 1048,-201 1048,4 -4,4"/>
<!-- e -->
<g id="node1" class="node">
<title>e</title>
<ellipse fill="none" stroke="black" cx="297" cy="-141" rx="27" ry="18"/>
<text text-anchor="middle" x="297" y="-137.3" font-family="Times,serif" font-size="14.00">e</text>
</g>
<!-- h -->
<g id="node2" class="node">
<title>h</title>
<ellipse fill="none" stroke="black" cx="387" cy="-164" rx="27" ry="18"/>
<text text-anchor="middle" x="387" y="-160.3" font-family="Times,serif" font-size="14.00">h</text>
</g>
<!-- e&#45;&#45;h -->
<g id="edge1" class="edge">
<title>e&#45;&#45;h</title>
<path fill="none" stroke="black" d="M322.51,-147.41C334.72,-150.6 349.43,-154.44 361.62,-157.63"/>
</g>
<!-- o -->
<g id="node14" class="node">
<title>o</title>
<ellipse fill="none" stroke="black" cx="657" cy="-156" rx="27" ry="18"/>
<text text-anchor="middle" x="657" y="-152.3" font-family="Times,serif" font-size="14.00">o</text>
</g>
<!-- h&#45;&#45;o -->
<g id="edge17" class="edge">
<title>h&#45;&#45;o</title>
<path fill="none" stroke="black" d="M410.88,-172.8C422.42,-176.77 436.75,-181.02 450,-183 515.81,-192.86 593.76,-174.48 632.17,-163.45"/>
</g>
<!-- l -->
<g id="node15" class="node">
<title>l</title>
<ellipse fill="none" stroke="black" cx="477" cy="-156" rx="27" ry="18"/>
<text text-anchor="middle" x="477" y="-152.3" font-family="Times,serif" font-size="14.00">l</text>
</g>
<!-- h&#45;&#45;l -->
<g id="edge18" class="edge">
<title>h&#45;&#45;l</title>
<path fill="none" stroke="black" d="M413.93,-161.64C425.28,-160.61 438.58,-159.4 449.95,-158.37"/>
</g>
<!-- g -->
<g id="node3" class="node">
<title>g</title>
<ellipse fill="none" stroke="black" cx="387" cy="-18" rx="27" ry="18"/>
<text text-anchor="middle" x="387" y="-14.3" font-family="Times,serif" font-size="14.00">g</text>
</g>
<!-- k -->
<g id="node4" class="node">
<title>k</title>
<ellipse fill="none" stroke="black" cx="567" cy="-18" rx="27" ry="18"/>
<text text-anchor="middle" x="567" y="-14.3" font-family="Times,serif" font-size="14.00">k</text>
</g>
<!-- g&#45;&#45;k -->
<g id="edge2" class="edge">
<title>g&#45;&#45;k</title>
<path fill="none" stroke="black" d="M414.26,-18C448.02,-18 506.26,-18 539.92,-18"/>
</g>
<!-- r -->
<g id="node5" class="node">
<title>r</title>
<ellipse fill="none" stroke="black" cx="927" cy="-41" rx="27" ry="18"/>
<text text-anchor="middle" x="927" y="-37.3" font-family="Times,serif" font-size="14.00">r</text>
</g>
<!-- k&#45;&#45;r -->
<g id="edge25" class="edge">
<title>k&#45;&#45;r</title>
<path fill="none" stroke="black" d="M594.03,-19.67C660.17,-23.92 834.04,-35.09 900.06,-39.33"/>
</g>
<!-- n -->
<g id="node17" class="node">
<title>n</title>
<ellipse fill="none" stroke="black" cx="657" cy="-64" rx="27" ry="18"/>
<text text-anchor="middle" x="657" y="-60.3" font-family="Times,serif" font-size="14.00">n</text>
</g>
<!-- k&#45;&#45;n -->
<g id="edge26" class="edge">
<title>k&#45;&#45;n</title>
<path fill="none" stroke="black" d="M588.85,-28.9C602.88,-36.23 621.3,-45.86 635.29,-53.18"/>
</g>
<!-- t -->
<g id="node6" class="node">
<title>t</title>
<ellipse fill="none" stroke="black" cx="1017" cy="-87" rx="27" ry="18"/>
<text text-anchor="middle" x="1017" y="-83.3" font-family="Times,serif" font-size="14.00">t</text>
</g>
<!-- r&#45;&#45;t -->
<g id="edge3" class="edge">
<title>r&#45;&#45;t</title>
<path fill="none" stroke="black" d="M948.85,-51.9C962.88,-59.23 981.3,-68.86 995.29,-76.18"/>
</g>
<!-- a -->
<g id="node7" class="node">
<title>a</title>
<ellipse fill="none" stroke="black" cx="27" cy="-91" rx="27" ry="18"/>
<text text-anchor="middle" x="27" y="-87.3" font-family="Times,serif" font-size="14.00">a</text>
</g>
<!-- b -->
<g id="node8" class="node">
<title>b</title>
<ellipse fill="none" stroke="black" cx="117" cy="-137" rx="27" ry="18"/>
<text text-anchor="middle" x="117" y="-133.3" font-family="Times,serif" font-size="14.00">b</text>
</g>
<!-- a&#45;&#45;b -->
<g id="edge4" class="edge">
<title>a&#45;&#45;b</title>
<path fill="none" stroke="black" d="M48.85,-101.9C62.88,-109.23 81.3,-118.86 95.29,-126.18"/>
</g>
<!-- c -->
<g id="node9" class="node">
<title>c</title>
<ellipse fill="none" stroke="black" cx="207" cy="-95" rx="27" ry="18"/>
<text text-anchor="middle" x="207" y="-91.3" font-family="Times,serif" font-size="14.00">c</text>
</g>
<!-- a&#45;&#45;c -->
<g id="edge5" class="edge">
<title>a&#45;&#45;c</title>
<path fill="none" stroke="black" d="M54.26,-91.59C88.02,-92.35 146.26,-93.66 179.92,-94.41"/>
</g>
<!-- d -->
<g id="node10" class="node">
<title>d</title>
<ellipse fill="none" stroke="black" cx="207" cy="-41" rx="27" ry="18"/>
<text text-anchor="middle" x="207" y="-37.3" font-family="Times,serif" font-size="14.00">d</text>
</g>
<!-- a&#45;&#45;d -->
<g id="edge6" class="edge">
<title>a&#45;&#45;d</title>
<path fill="none" stroke="black" d="M52.38,-84.15C86.46,-74.58 147.99,-57.3 181.92,-47.76"/>
</g>
<!-- b&#45;&#45;e -->
<g id="edge7" class="edge">
<title>b&#45;&#45;e</title>
<path fill="none" stroke="black" d="M144.26,-137.59C178.02,-138.35 236.26,-139.66 269.92,-140.41"/>
</g>
<!-- b&#45;&#45;c -->
<g id="edge8" class="edge">
<title>b&#45;&#45;c</title>
<path fill="none" stroke="black" d="M139.3,-126.83C153.04,-120.28 170.83,-111.78 184.59,-105.22"/>
</g>
<!-- c&#45;&#45;e -->
<g id="edge9" class="edge">
<title>c&#45;&#45;e</title>
<path fill="none" stroke="black" d="M228.85,-105.9C242.88,-113.23 261.3,-122.86 275.29,-130.18"/>
</g>
<!-- f -->
<g id="node11" class="node">
<title>f</title>
<ellipse fill="none" stroke="black" cx="297" cy="-87" rx="27" ry="18"/>
<text text-anchor="middle" x="297" y="-83.3" font-family="Times,serif" font-size="14.00">f</text>
</g>
<!-- c&#45;&#45;f -->
<g id="edge10" class="edge">
<title>c&#45;&#45;f</title>
<path fill="none" stroke="black" d="M233.93,-92.64C245.28,-91.61 258.58,-90.4 269.95,-89.37"/>
</g>
<!-- d&#45;&#45;g -->
<g id="edge11" class="edge">
<title>d&#45;&#45;g</title>
<path fill="none" stroke="black" d="M233.88,-37.66C267.73,-33.28 326.66,-25.67 360.37,-21.31"/>
</g>
<!-- d&#45;&#45;f -->
<g id="edge12" class="edge">
<title>d&#45;&#45;f</title>
<path fill="none" stroke="black" d="M228.85,-51.9C242.88,-59.23 261.3,-68.86 275.29,-76.18"/>
</g>
<!-- f&#45;&#45;h -->
<g id="edge13" class="edge">
<title>f&#45;&#45;h</title>
<path fill="none" stroke="black" d="M314.14,-101.12C330.02,-115.02 354.12,-136.1 369.96,-149.97"/>
</g>
<!-- f&#45;&#45;g -->
<g id="edge14" class="edge">
<title>f&#45;&#45;g</title>
<path fill="none" stroke="black" d="M315.39,-73.37C330.81,-61.27 353.23,-43.69 368.65,-31.6"/>
</g>
<!-- i -->
<g id="node12" class="node">
<title>i</title>
<ellipse fill="none" stroke="black" cx="387" cy="-110" rx="27" ry="18"/>
<text text-anchor="middle" x="387" y="-106.3" font-family="Times,serif" font-size="14.00">i</text>
</g>
<!-- f&#45;&#45;i -->
<g id="edge15" class="edge">
<title>f&#45;&#45;i</title>
<path fill="none" stroke="black" d="M322.51,-93.41C334.72,-96.6 349.43,-100.44 361.62,-103.63"/>
</g>
<!-- j -->
<g id="node13" class="node">
<title>j</title>
<ellipse fill="none" stroke="black" cx="477" cy="-64" rx="27" ry="18"/>
<text text-anchor="middle" x="477" y="-60.3" font-family="Times,serif" font-size="14.00">j</text>
</g>
<!-- f&#45;&#45;j -->
<g id="edge16" class="edge">
<title>f&#45;&#45;j</title>
<path fill="none" stroke="black" d="M323.88,-83.66C357.73,-79.28 416.66,-71.67 450.37,-67.31"/>
</g>
<!-- i&#45;&#45;j -->
<g id="edge19" class="edge">
<title>i&#45;&#45;j</title>
<path fill="none" stroke="black" d="M408.85,-99.1C422.88,-91.77 441.3,-82.14 455.29,-74.82"/>
</g>
<!-- i&#45;&#45;l -->
<g id="edge20" class="edge">
<title>i&#45;&#45;l</title>
<path fill="none" stroke="black" d="M408.85,-120.9C422.88,-128.23 441.3,-137.86 455.29,-145.18"/>
</g>
<!-- m -->
<g id="node16" class="node">
<title>m</title>
<ellipse fill="none" stroke="black" cx="567" cy="-110" rx="27" ry="18"/>
<text text-anchor="middle" x="567" y="-106.3" font-family="Times,serif" font-size="14.00">m</text>
</g>
<!-- i&#45;&#45;m -->
<g id="edge21" class="edge">
<title>i&#45;&#45;m</title>
<path fill="none" stroke="black" d="M414.26,-110C448.02,-110 506.26,-110 539.92,-110"/>
</g>
<!-- j&#45;&#45;k -->
<g id="edge22" class="edge">
<title>j&#45;&#45;k</title>
<path fill="none" stroke="black" d="M498.85,-53.1C512.88,-45.77 531.3,-36.14 545.29,-28.82"/>
</g>
<!-- j&#45;&#45;m -->
<g id="edge23" class="edge">
<title>j&#45;&#45;m</title>
<path fill="none" stroke="black" d="M498.85,-74.9C512.88,-82.23 531.3,-91.86 545.29,-99.18"/>
</g>
<!-- j&#45;&#45;n -->
<g id="edge24" class="edge">
<title>j&#45;&#45;n</title>
<path fill="none" stroke="black" d="M504.26,-64C538.02,-64 596.26,-64 629.92,-64"/>
</g>
<!-- p -->
<g id="node18" class="node">
<title>p</title>
<ellipse fill="none" stroke="black" cx="747" cy="-125" rx="27" ry="18"/>
<text text-anchor="middle" x="747" y="-121.3" font-family="Times,serif" font-size="14.00">p</text>
</g>
<!-- o&#45;&#45;p -->
<g id="edge34" class="edge">
<title>o&#45;&#45;p</title>
<path fill="none" stroke="black" d="M681.12,-147.86C693.95,-143.33 709.87,-137.73 722.73,-133.2"/>
</g>
<!-- s -->
<g id="node20" class="node">
<title>s</title>
<ellipse fill="none" stroke="black" cx="747" cy="-179" rx="27" ry="18"/>
<text text-anchor="middle" x="747" y="-175.3" font-family="Times,serif" font-size="14.00">s</text>
</g>
<!-- o&#45;&#45;s -->
<g id="edge35" class="edge">
<title>o&#45;&#45;s</title>
<path fill="none" stroke="black" d="M682.51,-162.41C694.72,-165.6 709.43,-169.44 721.62,-172.63"/>
</g>
<!-- l&#45;&#45;o -->
<g id="edge27" class="edge">
<title>l&#45;&#45;o</title>
<path fill="none" stroke="black" d="M504.26,-156C538.02,-156 596.26,-156 629.92,-156"/>
</g>
<!-- l&#45;&#45;m -->
<g id="edge28" class="edge">
<title>l&#45;&#45;m</title>
<path fill="none" stroke="black" d="M498.85,-145.1C512.88,-137.77 531.3,-128.14 545.29,-120.82"/>
</g>
<!-- m&#45;&#45;o -->
<g id="edge29" class="edge">
<title>m&#45;&#45;o</title>
<path fill="none" stroke="black" d="M588.85,-120.9C602.88,-128.23 621.3,-137.86 635.29,-145.18"/>
</g>
<!-- m&#45;&#45;n -->
<g id="edge30" class="edge">
<title>m&#45;&#45;n</title>
<path fill="none" stroke="black" d="M588.85,-99.1C602.88,-91.77 621.3,-82.14 635.29,-74.82"/>
</g>
<!-- m&#45;&#45;p -->
<g id="edge31" class="edge">
<title>m&#45;&#45;p</title>
<path fill="none" stroke="black" d="M593.88,-112.18C627.63,-115.03 686.32,-119.97 720.09,-122.82"/>
</g>
<!-- n&#45;&#45;r -->
<g id="edge32" class="edge">
<title>n&#45;&#45;r</title>
<path fill="none" stroke="black" d="M684.18,-61.75C735.55,-57.34 848.97,-47.61 900.1,-43.22"/>
</g>
<!-- q -->
<g id="node19" class="node">
<title>q</title>
<ellipse fill="none" stroke="black" cx="837" cy="-87" rx="27" ry="18"/>
<text text-anchor="middle" x="837" y="-83.3" font-family="Times,serif" font-size="14.00">q</text>
</g>
<!-- n&#45;&#45;q -->
<g id="edge33" class="edge">
<title>n&#45;&#45;q</title>
<path fill="none" stroke="black" d="M683.88,-67.34C717.73,-71.72 776.66,-79.33 810.37,-83.69"/>
</g>
<!-- p&#45;&#45;t -->
<g id="edge36" class="edge">
<title>p&#45;&#45;t</title>
<path fill="none" stroke="black" d="M773.86,-123.1C813.05,-119.98 889.74,-112.88 954,-101 966.37,-98.71 980.02,-95.69 991.35,-93.03"/>
</g>
<!-- p&#45;&#45;q -->
<g id="edge37" class="edge">
<title>p&#45;&#45;q</title>
<path fill="none" stroke="black" d="M770.21,-115.41C783.55,-109.65 800.46,-102.35 813.8,-96.59"/>
</g>
<!-- q&#45;&#45;r -->
<g id="edge38" class="edge">
<title>q&#45;&#45;r</title>
<path fill="none" stroke="black" d="M858.85,-76.1C872.88,-68.77 891.3,-59.14 905.29,-51.82"/>
</g>
<!-- q&#45;&#45;t -->
<g id="edge39" class="edge">
<title>q&#45;&#45;t</title>
<path fill="none" stroke="black" d="M864.26,-87C898.02,-87 956.26,-87 989.92,-87"/>
</g>
</g>
</svg>
