<?xml version="1.0" encoding="UTF-8" standalone="no"?>
<!DOCTYPE svg PUBLIC "-//W3C//DTD SVG 1.1//EN"
 "http://www.w3.org/Graphics/SVG/1.1/DTD/svg11.dtd">
<!-- Generated by graphviz version 2.38.0 (20140413.2041)
 -->
<!-- Title: %3 Pages: 1 -->
<svg width="602pt" height="244pt"
 viewBox="0.00 0.00 602.00 244.00" xmlns="http://www.w3.org/2000/svg" xmlns:xlink="http://www.w3.org/1999/xlink">
<g id="graph0" class="graph" transform="scale(1 1) rotate(0) translate(4 240)">
<title>%3</title>
<polygon fill="white" stroke="none" points="-4,4 -4,-240 598,-240 598,4 -4,4"/>
<!-- e -->
<g id="node1" class="node"><title>e</title>
<ellipse fill="none" stroke="black" cx="207" cy="-199" rx="27" ry="18"/>
<text text-anchor="middle" x="207" y="-195.3" font-family="Times New Roman,serif" font-size="14.00">e</text>
</g>
<!-- h -->
<g id="node2" class="node"><title>h</title>
<ellipse fill="none" stroke="black" cx="297" cy="-199" rx="27" ry="18"/>
<text text-anchor="middle" x="297" y="-195.3" font-family="Times New Roman,serif" font-size="14.00">h</text>
</g>
<!-- e&#45;&#45;h -->
<g id="edge1" class="edge"><title>e&#45;&#45;h</title>
<path fill="none" stroke="black" d="M234.403,-199C245.642,-199 258.715,-199 269.919,-199"/>
</g>
<!-- o -->
<g id="node14" class="node"><title>o</title>
<ellipse fill="none" stroke="black" cx="477" cy="-218" rx="27" ry="18"/>
<text text-anchor="middle" x="477" y="-214.3" font-family="Times New Roman,serif" font-size="14.00">o</text>
</g>
<!-- h&#45;&#45;o -->
<g id="edge17" class="edge"><title>h&#45;&#45;o</title>
<path fill="none" stroke="black" d="M323.883,-201.763C357.63,-205.365 416.323,-211.63 450.086,-215.234"/>
</g>
<!-- l -->
<g id="node15" class="node"><title>l</title>
<ellipse fill="none" stroke="black" cx="387" cy="-172" rx="27" ry="18"/>
<text text-anchor="middle" x="387" y="-168.3" font-family="Times New Roman,serif" font-size="14.00">l</text>
</g>
<!-- h&#45;&#45;l -->
<g id="edge18" class="edge"><title>h&#45;&#45;l</title>
<path fill="none" stroke="black" d="M322.046,-191.622C334.565,-187.781 349.818,-183.101 362.287,-179.275"/>
</g>
<!-- g -->
<g id="node3" class="node"><title>g</title>
<ellipse fill="none" stroke="black" cx="207" cy="-91" rx="27" ry="18"/>
<text text-anchor="middle" x="207" y="-87.3" font-family="Times New Roman,serif" font-size="14.00">g</text>
</g>
<!-- k -->
<g id="node4" class="node"><title>k</title>
<ellipse fill="none" stroke="black" cx="297" cy="-37" rx="27" ry="18"/>
<text text-anchor="middle" x="297" y="-33.3" font-family="Times New Roman,serif" font-size="14.00">k</text>
</g>
<!-- g&#45;&#45;k -->
<g id="edge2" class="edge"><title>g&#45;&#45;k</title>
<path fill="none" stroke="black" d="M227.53,-79.0156C242.113,-70.0669 261.955,-57.8915 276.525,-48.9508"/>
</g>
<!-- r -->
<g id="node5" class="node"><title>r</title>
<ellipse fill="none" stroke="black" cx="477" cy="-18" rx="27" ry="18"/>
<text text-anchor="middle" x="477" y="-14.3" font-family="Times New Roman,serif" font-size="14.00">r</text>
</g>
<!-- k&#45;&#45;r -->
<g id="edge25" class="edge"><title>k&#45;&#45;r</title>
<path fill="none" stroke="black" d="M323.883,-34.2372C357.63,-30.635 416.323,-24.37 450.086,-20.7661"/>
</g>
<!-- n -->
<g id="node17" class="node"><title>n</title>
<ellipse fill="none" stroke="black" cx="387" cy="-64" rx="27" ry="18"/>
<text text-anchor="middle" x="387" y="-60.3" font-family="Times New Roman,serif" font-size="14.00">n</text>
</g>
<!-- k&#45;&#45;n -->
<g id="edge26" class="edge"><title>k&#45;&#45;n</title>
<path fill="none" stroke="black" d="M322.046,-44.3779C334.565,-48.2188 349.818,-52.8986 362.287,-56.7245"/>
</g>
<!-- t -->
<g id="node6" class="node"><title>t</title>
<ellipse fill="none" stroke="black" cx="567" cy="-64" rx="27" ry="18"/>
<text text-anchor="middle" x="567" y="-60.3" font-family="Times New Roman,serif" font-size="14.00">t</text>
</g>
<!-- r&#45;&#45;t -->
<g id="edge3" class="edge"><title>r&#45;&#45;t</title>
<path fill="none" stroke="black" d="M498.855,-28.9014C512.883,-36.2341 531.298,-45.8605 545.295,-53.1769"/>
</g>
<!-- a -->
<g id="node7" class="node"><title>a</title>
<ellipse fill="none" stroke="black" cx="27" cy="-145" rx="27" ry="18"/>
<text text-anchor="middle" x="27" y="-141.3" font-family="Times New Roman,serif" font-size="14.00">a</text>
</g>
<!-- b -->
<g id="node8" class="node"><title>b</title>
<ellipse fill="none" stroke="black" cx="117" cy="-199" rx="27" ry="18"/>
<text text-anchor="middle" x="117" y="-195.3" font-family="Times New Roman,serif" font-size="14.00">b</text>
</g>
<!-- a&#45;&#45;b -->
<g id="edge4" class="edge"><title>a&#45;&#45;b</title>
<path fill="none" stroke="black" d="M47.5301,-156.984C62.1132,-165.933 81.9546,-178.108 96.5245,-187.049"/>
</g>
<!-- c -->
<g id="node9" class="node"><title>c</title>
<ellipse fill="none" stroke="black" cx="117" cy="-145" rx="27" ry="18"/>
<text text-anchor="middle" x="117" y="-141.3" font-family="Times New Roman,serif" font-size="14.00">c</text>
</g>
<!-- a&#45;&#45;c -->
<g id="edge5" class="edge"><title>a&#45;&#45;c</title>
<path fill="none" stroke="black" d="M54.4029,-145C65.6421,-145 78.7152,-145 89.919,-145"/>
</g>
<!-- d -->
<g id="node10" class="node"><title>d</title>
<ellipse fill="none" stroke="black" cx="117" cy="-91" rx="27" ry="18"/>
<text text-anchor="middle" x="117" y="-87.3" font-family="Times New Roman,serif" font-size="14.00">d</text>
</g>
<!-- a&#45;&#45;d -->
<g id="edge6" class="edge"><title>a&#45;&#45;d</title>
<path fill="none" stroke="black" d="M47.5301,-133.016C62.1132,-124.067 81.9546,-111.892 96.5245,-102.951"/>
</g>
<!-- b&#45;&#45;e -->
<g id="edge7" class="edge"><title>b&#45;&#45;e</title>
<path fill="none" stroke="black" d="M144.403,-199C155.642,-199 168.715,-199 179.919,-199"/>
</g>
<!-- b&#45;&#45;c -->
<g id="edge8" class="edge"><title>b&#45;&#45;c</title>
<path fill="none" stroke="black" d="M117,-180.79C117,-174.907 117,-169.024 117,-163.141"/>
</g>
<!-- c&#45;&#45;e -->
<g id="edge9" class="edge"><title>c&#45;&#45;e</title>
<path fill="none" stroke="black" d="M137.53,-156.984C152.113,-165.933 171.955,-178.108 186.525,-187.049"/>
</g>
<!-- f -->
<g id="node11" class="node"><title>f</title>
<ellipse fill="none" stroke="black" cx="207" cy="-145" rx="27" ry="18"/>
<text text-anchor="middle" x="207" y="-141.3" font-family="Times New Roman,serif" font-size="14.00">f</text>
</g>
<!-- c&#45;&#45;f -->
<g id="edge10" class="edge"><title>c&#45;&#45;f</title>
<path fill="none" stroke="black" d="M144.403,-145C155.642,-145 168.715,-145 179.919,-145"/>
</g>
<!-- d&#45;&#45;g -->
<g id="edge11" class="edge"><title>d&#45;&#45;g</title>
<path fill="none" stroke="black" d="M144.403,-91C155.642,-91 168.715,-91 179.919,-91"/>
</g>
<!-- d&#45;&#45;f -->
<g id="edge12" class="edge"><title>d&#45;&#45;f</title>
<path fill="none" stroke="black" d="M137.53,-102.984C152.113,-111.933 171.955,-124.108 186.525,-133.049"/>
</g>
<!-- f&#45;&#45;h -->
<g id="edge13" class="edge"><title>f&#45;&#45;h</title>
<path fill="none" stroke="black" d="M227.53,-156.984C242.113,-165.933 261.955,-178.108 276.525,-187.049"/>
</g>
<!-- f&#45;&#45;g -->
<g id="edge14" class="edge"><title>f&#45;&#45;g</title>
<path fill="none" stroke="black" d="M207,-126.79C207,-120.907 207,-115.024 207,-109.141"/>
</g>
<!-- i -->
<g id="node12" class="node"><title>i</title>
<ellipse fill="none" stroke="black" cx="297" cy="-145" rx="27" ry="18"/>
<text text-anchor="middle" x="297" y="-141.3" font-family="Times New Roman,serif" font-size="14.00">i</text>
</g>
<!-- f&#45;&#45;i -->
<g id="edge15" class="edge"><title>f&#45;&#45;i</title>
<path fill="none" stroke="black" d="M234.403,-145C245.642,-145 258.715,-145 269.919,-145"/>
</g>
<!-- j -->
<g id="node13" class="node"><title>j</title>
<ellipse fill="none" stroke="black" cx="297" cy="-91" rx="27" ry="18"/>
<text text-anchor="middle" x="297" y="-87.3" font-family="Times New Roman,serif" font-size="14.00">j</text>
</g>
<!-- f&#45;&#45;j -->
<g id="edge16" class="edge"><title>f&#45;&#45;j</title>
<path fill="none" stroke="black" d="M227.53,-133.016C242.113,-124.067 261.955,-111.892 276.525,-102.951"/>
</g>
<!-- i&#45;&#45;j -->
<g id="edge19" class="edge"><title>i&#45;&#45;j</title>
<path fill="none" stroke="black" d="M297,-126.79C297,-120.907 297,-115.024 297,-109.141"/>
</g>
<!-- i&#45;&#45;l -->
<g id="edge20" class="edge"><title>i&#45;&#45;l</title>
<path fill="none" stroke="black" d="M322.046,-152.378C334.565,-156.219 349.818,-160.899 362.287,-164.725"/>
</g>
<!-- m -->
<g id="node16" class="node"><title>m</title>
<ellipse fill="none" stroke="black" cx="387" cy="-118" rx="27" ry="18"/>
<text text-anchor="middle" x="387" y="-114.3" font-family="Times New Roman,serif" font-size="14.00">m</text>
</g>
<!-- i&#45;&#45;m -->
<g id="edge21" class="edge"><title>i&#45;&#45;m</title>
<path fill="none" stroke="black" d="M322.046,-137.622C334.565,-133.781 349.818,-129.101 362.287,-125.275"/>
</g>
<!-- j&#45;&#45;k -->
<g id="edge22" class="edge"><title>j&#45;&#45;k</title>
<path fill="none" stroke="black" d="M297,-72.7902C297,-66.907 297,-61.0238 297,-55.1406"/>
</g>
<!-- j&#45;&#45;m -->
<g id="edge23" class="edge"><title>j&#45;&#45;m</title>
<path fill="none" stroke="black" d="M322.046,-98.3779C334.565,-102.219 349.818,-106.899 362.287,-110.725"/>
</g>
<!-- j&#45;&#45;n -->
<g id="edge24" class="edge"><title>j&#45;&#45;n</title>
<path fill="none" stroke="black" d="M322.046,-83.6221C334.565,-79.7812 349.818,-75.1014 362.287,-71.2755"/>
</g>
<!-- p -->
<g id="node18" class="node"><title>p</title>
<ellipse fill="none" stroke="black" cx="567" cy="-118" rx="27" ry="18"/>
<text text-anchor="middle" x="567" y="-114.3" font-family="Times New Roman,serif" font-size="14.00">p</text>
</g>
<!-- o&#45;&#45;p -->
<g id="edge34" class="edge"><title>o&#45;&#45;p</title>
<path fill="none" stroke="black" d="M492.745,-203.021C496.466,-199.15 500.42,-194.957 504,-191 521.512,-171.64 540.864,-148.57 553.212,-133.622"/>
</g>
<!-- s -->
<g id="node20" class="node"><title>s</title>
<ellipse fill="none" stroke="black" cx="477" cy="-164" rx="27" ry="18"/>
<text text-anchor="middle" x="477" y="-160.3" font-family="Times New Roman,serif" font-size="14.00">s</text>
</g>
<!-- o&#45;&#45;s -->
<g id="edge35" class="edge"><title>o&#45;&#45;s</title>
<path fill="none" stroke="black" d="M477,-199.79C477,-193.907 477,-188.024 477,-182.141"/>
</g>
<!-- l&#45;&#45;o -->
<g id="edge27" class="edge"><title>l&#45;&#45;o</title>
<path fill="none" stroke="black" d="M408.855,-182.901C422.883,-190.234 441.298,-199.861 455.295,-207.177"/>
</g>
<!-- l&#45;&#45;m -->
<g id="edge28" class="edge"><title>l&#45;&#45;m</title>
<path fill="none" stroke="black" d="M387,-153.79C387,-147.907 387,-142.024 387,-136.141"/>
</g>
<!-- m&#45;&#45;o -->
<g id="edge29" class="edge"><title>m&#45;&#45;o</title>
<path fill="none" stroke="black" d="M402.856,-132.881C406.575,-136.754 410.5,-140.972 414,-145 431.026,-164.598 432.974,-171.402 450,-191 453.5,-195.028 457.425,-199.246 461.144,-203.119"/>
</g>
<!-- m&#45;&#45;n -->
<g id="edge30" class="edge"><title>m&#45;&#45;n</title>
<path fill="none" stroke="black" d="M387,-99.7902C387,-93.907 387,-88.0238 387,-82.1406"/>
</g>
<!-- m&#45;&#45;p -->
<g id="edge31" class="edge"><title>m&#45;&#45;p</title>
<path fill="none" stroke="black" d="M414.265,-118C448.015,-118 506.256,-118 539.918,-118"/>
</g>
<!-- n&#45;&#45;r -->
<g id="edge32" class="edge"><title>n&#45;&#45;r</title>
<path fill="none" stroke="black" d="M408.855,-53.0986C422.883,-45.7659 441.298,-36.1395 455.295,-28.8231"/>
</g>
<!-- q -->
<g id="node19" class="node"><title>q</title>
<ellipse fill="none" stroke="black" cx="477" cy="-72" rx="27" ry="18"/>
<text text-anchor="middle" x="477" y="-68.3" font-family="Times New Roman,serif" font-size="14.00">q</text>
</g>
<!-- n&#45;&#45;q -->
<g id="edge33" class="edge"><title>n&#45;&#45;q</title>
<path fill="none" stroke="black" d="M413.927,-66.357C425.283,-67.3894 438.584,-68.5986 449.954,-69.6322"/>
</g>
<!-- p&#45;&#45;t -->
<g id="edge36" class="edge"><title>p&#45;&#45;t</title>
<path fill="none" stroke="black" d="M567,-99.7902C567,-93.907 567,-88.0238 567,-82.1406"/>
</g>
<!-- p&#45;&#45;q -->
<g id="edge37" class="edge"><title>p&#45;&#45;q</title>
<path fill="none" stroke="black" d="M545.295,-107.177C531.298,-99.8605 512.883,-90.2341 498.855,-82.9014"/>
</g>
<!-- q&#45;&#45;r -->
<g id="edge38" class="edge"><title>q&#45;&#45;r</title>
<path fill="none" stroke="black" d="M477,-53.7902C477,-47.907 477,-42.0238 477,-36.1406"/>
</g>
<!-- q&#45;&#45;t -->
<g id="edge39" class="edge"><title>q&#45;&#45;t</title>
<path fill="none" stroke="black" d="M503.927,-69.643C515.283,-68.6106 528.584,-67.4014 539.954,-66.3678"/>
</g>
</g>
</svg>
