<?xml version="1.0" encoding="UTF-8" standalone="no"?>
<!DOCTYPE svg PUBLIC "-//W3C//DTD SVG 1.1//EN"
 "http://www.w3.org/Graphics/SVG/1.1/DTD/svg11.dtd">
<!-- Generated by graphviz version 2.44.1 (20200629.0846)
 -->
<!-- Pages: 1 -->
<svg width="692pt" height="234pt"
 viewBox="0.00 0.00 692.00 234.00" xmlns="http://www.w3.org/2000/svg" xmlns:xlink="http://www.w3.org/1999/xlink">
<g id="graph0" class="graph" transform="scale(1 1) rotate(0) translate(4 230)">
<polygon fill="white" stroke="transparent" points="-4,4 -4,-230 688,-230 688,4 -4,4"/>
<!-- b -->
<g id="node1" class="node">
<title>b</title>
<ellipse fill="none" stroke="black" cx="117" cy="-208" rx="27" ry="18"/>
<text text-anchor="middle" x="117" y="-204.3" font-family="Times,serif" font-size="14.00">b</text>
</g>
<!-- c -->
<g id="node2" class="node">
<title>c</title>
<ellipse fill="none" stroke="black" cx="117" cy="-154" rx="27" ry="18"/>
<text text-anchor="middle" x="117" y="-150.3" font-family="Times,serif" font-size="14.00">c</text>
</g>
<!-- b&#45;&#45;c -->
<g id="edge7" class="edge">
<title>b&#45;&#45;c</title>
<path fill="none" stroke="black" d="M117,-189.79C117,-183.91 117,-178.02 117,-172.14"/>
</g>
<!-- e -->
<g id="node4" class="node">
<title>e</title>
<ellipse fill="none" stroke="black" cx="207" cy="-208" rx="27" ry="18"/>
<text text-anchor="middle" x="207" y="-204.3" font-family="Times,serif" font-size="14.00">e</text>
</g>
<!-- b&#45;&#45;e -->
<g id="edge8" class="edge">
<title>b&#45;&#45;e</title>
<path fill="none" stroke="black" d="M144.4,-208C155.64,-208 168.72,-208 179.92,-208"/>
</g>
<!-- c&#45;&#45;e -->
<g id="edge9" class="edge">
<title>c&#45;&#45;e</title>
<path fill="none" stroke="black" d="M137.53,-165.98C152.11,-174.93 171.95,-187.11 186.52,-196.05"/>
</g>
<!-- f -->
<g id="node5" class="node">
<title>f</title>
<ellipse fill="none" stroke="black" cx="207" cy="-154" rx="27" ry="18"/>
<text text-anchor="middle" x="207" y="-150.3" font-family="Times,serif" font-size="14.00">f</text>
</g>
<!-- c&#45;&#45;f -->
<g id="edge10" class="edge">
<title>c&#45;&#45;f</title>
<path fill="none" stroke="black" d="M144.4,-154C155.64,-154 168.72,-154 179.92,-154"/>
</g>
<!-- d -->
<g id="node3" class="node">
<title>d</title>
<ellipse fill="none" stroke="black" cx="117" cy="-100" rx="27" ry="18"/>
<text text-anchor="middle" x="117" y="-96.3" font-family="Times,serif" font-size="14.00">d</text>
</g>
<!-- d&#45;&#45;f -->
<g id="edge11" class="edge">
<title>d&#45;&#45;f</title>
<path fill="none" stroke="black" d="M137.53,-111.98C152.11,-120.93 171.95,-133.11 186.52,-142.05"/>
</g>
<!-- g -->
<g id="node6" class="node">
<title>g</title>
<ellipse fill="none" stroke="black" cx="207" cy="-100" rx="27" ry="18"/>
<text text-anchor="middle" x="207" y="-96.3" font-family="Times,serif" font-size="14.00">g</text>
</g>
<!-- d&#45;&#45;g -->
<g id="edge12" class="edge">
<title>d&#45;&#45;g</title>
<path fill="none" stroke="black" d="M144.4,-100C155.64,-100 168.72,-100 179.92,-100"/>
</g>
<!-- h -->
<g id="node7" class="node">
<title>h</title>
<ellipse fill="none" stroke="black" cx="297" cy="-208" rx="27" ry="18"/>
<text text-anchor="middle" x="297" y="-204.3" font-family="Times,serif" font-size="14.00">h</text>
</g>
<!-- e&#45;&#45;h -->
<g id="edge1" class="edge">
<title>e&#45;&#45;h</title>
<path fill="none" stroke="black" d="M234.4,-208C245.64,-208 258.72,-208 269.92,-208"/>
</g>
<!-- f&#45;&#45;g -->
<g id="edge13" class="edge">
<title>f&#45;&#45;g</title>
<path fill="none" stroke="black" d="M207,-135.79C207,-129.91 207,-124.02 207,-118.14"/>
</g>
<!-- f&#45;&#45;h -->
<g id="edge14" class="edge">
<title>f&#45;&#45;h</title>
<path fill="none" stroke="black" d="M227.53,-165.98C242.11,-174.93 261.95,-187.11 276.52,-196.05"/>
</g>
<!-- i -->
<g id="node8" class="node">
<title>i</title>
<ellipse fill="none" stroke="black" cx="297" cy="-154" rx="27" ry="18"/>
<text text-anchor="middle" x="297" y="-150.3" font-family="Times,serif" font-size="14.00">i</text>
</g>
<!-- f&#45;&#45;i -->
<g id="edge15" class="edge">
<title>f&#45;&#45;i</title>
<path fill="none" stroke="black" d="M234.4,-154C245.64,-154 258.72,-154 269.92,-154"/>
</g>
<!-- j -->
<g id="node9" class="node">
<title>j</title>
<ellipse fill="none" stroke="black" cx="297" cy="-100" rx="27" ry="18"/>
<text text-anchor="middle" x="297" y="-96.3" font-family="Times,serif" font-size="14.00">j</text>
</g>
<!-- f&#45;&#45;j -->
<g id="edge16" class="edge">
<title>f&#45;&#45;j</title>
<path fill="none" stroke="black" d="M227.53,-142.02C242.11,-133.07 261.95,-120.89 276.52,-111.95"/>
</g>
<!-- k -->
<g id="node10" class="node">
<title>k</title>
<ellipse fill="none" stroke="black" cx="297" cy="-46" rx="27" ry="18"/>
<text text-anchor="middle" x="297" y="-42.3" font-family="Times,serif" font-size="14.00">k</text>
</g>
<!-- g&#45;&#45;k -->
<g id="edge2" class="edge">
<title>g&#45;&#45;k</title>
<path fill="none" stroke="black" d="M227.53,-88.02C242.11,-79.07 261.95,-66.89 276.52,-57.95"/>
</g>
<!-- l -->
<g id="node11" class="node">
<title>l</title>
<ellipse fill="none" stroke="black" cx="387" cy="-185" rx="27" ry="18"/>
<text text-anchor="middle" x="387" y="-181.3" font-family="Times,serif" font-size="14.00">l</text>
</g>
<!-- h&#45;&#45;l -->
<g id="edge17" class="edge">
<title>h&#45;&#45;l</title>
<path fill="none" stroke="black" d="M322.51,-201.59C334.72,-198.4 349.43,-194.56 361.62,-191.37"/>
</g>
<!-- o -->
<g id="node16" class="node">
<title>o</title>
<ellipse fill="none" stroke="black" cx="657" cy="-192" rx="27" ry="18"/>
<text text-anchor="middle" x="657" y="-188.3" font-family="Times,serif" font-size="14.00">o</text>
</g>
<!-- h&#45;&#45;o -->
<g id="edge18" class="edge">
<title>h&#45;&#45;o</title>
<path fill="none" stroke="black" d="M323.92,-210.05C335.03,-210.83 348.14,-211.62 360,-212 464.02,-215.35 490.58,-214.71 594,-203 606.27,-201.61 619.79,-199.3 631.07,-197.16"/>
</g>
<!-- i&#45;&#45;j -->
<g id="edge19" class="edge">
<title>i&#45;&#45;j</title>
<path fill="none" stroke="black" d="M297,-135.79C297,-129.91 297,-124.02 297,-118.14"/>
</g>
<!-- i&#45;&#45;l -->
<g id="edge20" class="edge">
<title>i&#45;&#45;l</title>
<path fill="none" stroke="black" d="M321.12,-162.14C333.95,-166.67 349.87,-172.27 362.73,-176.8"/>
</g>
<!-- m -->
<g id="node12" class="node">
<title>m</title>
<ellipse fill="none" stroke="black" cx="387" cy="-128" rx="27" ry="18"/>
<text text-anchor="middle" x="387" y="-124.3" font-family="Times,serif" font-size="14.00">m</text>
</g>
<!-- i&#45;&#45;m -->
<g id="edge21" class="edge">
<title>i&#45;&#45;m</title>
<path fill="none" stroke="black" d="M322.05,-146.9C334.46,-143.23 349.57,-138.76 361.98,-135.1"/>
</g>
<!-- j&#45;&#45;k -->
<g id="edge22" class="edge">
<title>j&#45;&#45;k</title>
<path fill="none" stroke="black" d="M297,-81.79C297,-75.91 297,-70.02 297,-64.14"/>
</g>
<!-- j&#45;&#45;m -->
<g id="edge23" class="edge">
<title>j&#45;&#45;m</title>
<path fill="none" stroke="black" d="M321.58,-107.5C334.21,-111.52 349.72,-116.46 362.35,-120.48"/>
</g>
<!-- n -->
<g id="node13" class="node">
<title>n</title>
<ellipse fill="none" stroke="black" cx="387" cy="-72" rx="27" ry="18"/>
<text text-anchor="middle" x="387" y="-68.3" font-family="Times,serif" font-size="14.00">n</text>
</g>
<!-- j&#45;&#45;n -->
<g id="edge24" class="edge">
<title>j&#45;&#45;n</title>
<path fill="none" stroke="black" d="M321.58,-92.5C334.21,-88.48 349.72,-83.54 362.35,-79.52"/>
</g>
<!-- k&#45;&#45;n -->
<g id="edge25" class="edge">
<title>k&#45;&#45;n</title>
<path fill="none" stroke="black" d="M322.05,-53.1C334.46,-56.77 349.57,-61.24 361.98,-64.9"/>
</g>
<!-- r -->
<g id="node15" class="node">
<title>r</title>
<ellipse fill="none" stroke="black" cx="477" cy="-18" rx="27" ry="18"/>
<text text-anchor="middle" x="477" y="-14.3" font-family="Times,serif" font-size="14.00">r</text>
</g>
<!-- k&#45;&#45;r -->
<g id="edge26" class="edge">
<title>k&#45;&#45;r</title>
<path fill="none" stroke="black" d="M323.5,-41.99C357.34,-36.67 416.73,-27.32 450.54,-22"/>
</g>
<!-- l&#45;&#45;m -->
<g id="edge27" class="edge">
<title>l&#45;&#45;m</title>
<path fill="none" stroke="black" d="M387,-166.84C387,-159.98 387,-153.12 387,-146.26"/>
</g>
<!-- l&#45;&#45;o -->
<g id="edge28" class="edge">
<title>l&#45;&#45;o</title>
<path fill="none" stroke="black" d="M414.18,-185.68C465.42,-187.02 578.39,-189.97 629.71,-191.31"/>
</g>
<!-- m&#45;&#45;n -->
<g id="edge29" class="edge">
<title>m&#45;&#45;n</title>
<path fill="none" stroke="black" d="M387,-109.78C387,-103.31 387,-96.84 387,-90.38"/>
</g>
<!-- m&#45;&#45;o -->
<g id="edge30" class="edge">
<title>m&#45;&#45;o</title>
<path fill="none" stroke="black" d="M412.73,-133.91C463.79,-146.1 580.32,-173.93 631.33,-186.11"/>
</g>
<!-- p -->
<g id="node18" class="node">
<title>p</title>
<ellipse fill="none" stroke="black" cx="657" cy="-83" rx="27" ry="18"/>
<text text-anchor="middle" x="657" y="-79.3" font-family="Times,serif" font-size="14.00">p</text>
</g>
<!-- m&#45;&#45;p -->
<g id="edge31" class="edge">
<title>m&#45;&#45;p</title>
<path fill="none" stroke="black" d="M413.7,-123.69C464.92,-115.08 579.22,-95.89 630.38,-87.3"/>
</g>
<!-- q -->
<g id="node14" class="node">
<title>q</title>
<ellipse fill="none" stroke="black" cx="477" cy="-72" rx="27" ry="18"/>
<text text-anchor="middle" x="477" y="-68.3" font-family="Times,serif" font-size="14.00">q</text>
</g>
<!-- n&#45;&#45;q -->
<g id="edge32" class="edge">
<title>n&#45;&#45;q</title>
<path fill="none" stroke="black" d="M414.4,-72C425.64,-72 438.72,-72 449.92,-72"/>
</g>
<!-- n&#45;&#45;r -->
<g id="edge33" class="edge">
<title>n&#45;&#45;r</title>
<path fill="none" stroke="black" d="M407.53,-60.02C422.11,-51.07 441.95,-38.89 456.52,-29.95"/>
</g>
<!-- q&#45;&#45;r -->
<g id="edge38" class="edge">
<title>q&#45;&#45;r</title>
<path fill="none" stroke="black" d="M477,-53.79C477,-47.91 477,-42.02 477,-36.14"/>
</g>
<!-- t -->
<g id="node19" class="node">
<title>t</title>
<ellipse fill="none" stroke="black" cx="567" cy="-34" rx="27" ry="18"/>
<text text-anchor="middle" x="567" y="-30.3" font-family="Times,serif" font-size="14.00">t</text>
</g>
<!-- q&#45;&#45;t -->
<g id="edge39" class="edge">
<title>q&#45;&#45;t</title>
<path fill="none" stroke="black" d="M500.21,-62.41C513.55,-56.65 530.46,-49.35 543.8,-43.59"/>
</g>
<!-- r&#45;&#45;t -->
<g id="edge3" class="edge">
<title>r&#45;&#45;t</title>
<path fill="none" stroke="black" d="M503.45,-22.63C515.13,-24.75 528.94,-27.26 540.6,-29.38"/>
</g>
<!-- s -->
<g id="node17" class="node">
<title>s</title>
<ellipse fill="none" stroke="black" cx="657" cy="-138" rx="27" ry="18"/>
<text text-anchor="middle" x="657" y="-134.3" font-family="Times,serif" font-size="14.00">s</text>
</g>
<!-- o&#45;&#45;s -->
<g id="edge34" class="edge">
<title>o&#45;&#45;s</title>
<path fill="none" stroke="black" d="M657,-173.79C657,-167.91 657,-162.02 657,-156.14"/>
</g>
<!-- o&#45;&#45;p -->
<g id="edge35" class="edge">
<title>o&#45;&#45;p</title>
<path fill="none" stroke="black" d="M635.38,-180.55C626.4,-174.54 616.94,-166.28 612,-156 605.07,-141.58 605.17,-134.47 612,-120 617.01,-109.39 626.72,-100.8 635.84,-94.58"/>
</g>
<!-- p&#45;&#45;q -->
<g id="edge36" class="edge">
<title>p&#45;&#45;q</title>
<path fill="none" stroke="black" d="M629.92,-81.39C596.26,-79.31 538.02,-75.71 504.26,-73.62"/>
</g>
<!-- p&#45;&#45;t -->
<g id="edge37" class="edge">
<title>p&#45;&#45;t</title>
<path fill="none" stroke="black" d="M635.7,-71.7C621.51,-63.79 602.63,-53.28 588.41,-45.36"/>
</g>
<!-- a -->
<g id="node20" class="node">
<title>a</title>
<ellipse fill="none" stroke="black" cx="27" cy="-154" rx="27" ry="18"/>
<text text-anchor="middle" x="27" y="-150.3" font-family="Times,serif" font-size="14.00">a</text>
</g>
<!-- a&#45;&#45;b -->
<g id="edge4" class="edge">
<title>a&#45;&#45;b</title>
<path fill="none" stroke="black" d="M47.53,-165.98C62.11,-174.93 81.95,-187.11 96.52,-196.05"/>
</g>
<!-- a&#45;&#45;c -->
<g id="edge5" class="edge">
<title>a&#45;&#45;c</title>
<path fill="none" stroke="black" d="M54.4,-154C65.64,-154 78.72,-154 89.92,-154"/>
</g>
<!-- a&#45;&#45;d -->
<g id="edge6" class="edge">
<title>a&#45;&#45;d</title>
<path fill="none" stroke="black" d="M47.53,-142.02C62.11,-133.07 81.95,-120.89 96.52,-111.95"/>
</g>
</g>
</svg>
