<?xml version="1.0" encoding="UTF-8" standalone="no"?>
<!DOCTYPE svg PUBLIC "-//W3C//DTD SVG 1.1//EN"
 "http://www.w3.org/Graphics/SVG/1.1/DTD/svg11.dtd">
<!-- Generated by graphviz version 2.44.0 (20200408.0750)
 -->
<!-- Pages: 1 -->
<svg width="479pt" height="98pt"
 viewBox="0.00 0.00 478.79 98.00" xmlns="http://www.w3.org/2000/svg" xmlns:xlink="http://www.w3.org/1999/xlink">
<g id="graph0" class="graph" transform="scale(1 1) rotate(0) translate(4 94)">
<polygon fill="white" stroke="transparent" points="-4,4 -4,-94 474.79,-94 474.79,4 -4,4"/>
<!-- Option1 -->
<g id="node1" class="node">
<title>Option1</title>
<polygon fill="#9acd32" stroke="black" stroke-width="2" points="372.59,-90 285.59,-90 285.59,-54 372.59,-54 372.59,-90"/>
<text text-anchor="middle" x="329.09" y="-68.3" font-family="Times,serif" font-size="14.00">Positive path</text>
</g>
<!-- Exit -->
<g id="node5" class="node">
<title>Exit</title>
<ellipse fill="#ff8c00" stroke="black" stroke-width="2" cx="441.44" cy="-44" rx="25.22" ry="25.22"/>
<ellipse fill="none" stroke="black" stroke-width="2" cx="441.44" cy="-44" rx="29.2" ry="29.2"/>
<text text-anchor="middle" x="441.44" y="-40.3" font-family="Times,serif" font-size="14.00">Exit</text>
</g>
<!-- Option1&#45;&gt;Exit -->
<g id="edge4" class="edge">
<title>Option1&#45;&gt;Exit</title>
<path fill="none" stroke="black" d="M372.76,-61.17C382.75,-58.64 393.32,-55.96 403.06,-53.48"/>
<polygon fill="black" stroke="black" points="412.86,-51 404.27,-57.82 408.01,-52.23 403.16,-53.46 403.16,-53.46 403.16,-53.46 408.01,-52.23 402.06,-49.1 412.86,-51 412.86,-51"/>
</g>
<!-- Option2 -->
<g id="node2" class="node">
<title>Option2</title>
<polygon fill="#9acd32" stroke="black" stroke-width="2" points="375.09,-36 283.09,-36 283.09,0 375.09,0 375.09,-36"/>
<text text-anchor="middle" x="329.09" y="-14.3" font-family="Times,serif" font-size="14.00">Negative path</text>
</g>
<!-- Option2&#45;&gt;Exit -->
<g id="edge5" class="edge">
<title>Option2&#45;&gt;Exit</title>
<path fill="none" stroke="black" d="M375.3,-28.65C384.36,-30.79 393.81,-33.01 402.59,-35.08"/>
<polygon fill="black" stroke="black" points="412.55,-37.43 401.78,-39.51 407.68,-36.28 402.82,-35.13 402.82,-35.13 402.82,-35.13 407.68,-36.28 403.85,-30.75 412.55,-37.43 412.55,-37.43"/>
</g>
<!-- Entry -->
<g id="node3" class="node">
<title>Entry</title>
<ellipse fill="#ff8c00" stroke="black" stroke-width="2" cx="30.55" cy="-45" rx="30.59" ry="30.59"/>
<text text-anchor="middle" x="30.55" y="-41.3" font-family="Times,serif" font-size="14.00">Entry</text>
</g>
<!-- Decision -->
<g id="node4" class="node">
<title>Decision</title>
<polygon fill="#ff8c00" stroke="black" stroke-width="2" points="163.09,-83 98.09,-45 163.09,-7 228.09,-45 163.09,-83"/>
<text text-anchor="middle" x="163.09" y="-48.8" font-family="Times,serif" font-size="14.00">Decision</text>
<text text-anchor="middle" x="163.09" y="-33.8" font-family="Times,serif" font-size="14.00">point</text>
</g>
<!-- Entry&#45;&gt;Decision -->
<g id="edge1" class="edge">
<title>Entry&#45;&gt;Decision</title>
<path fill="none" stroke="black" d="M61.17,-45C69.24,-45 78.35,-45 87.72,-45"/>
<polygon fill="black" stroke="black" points="97.95,-45 87.95,-49.5 92.95,-45 87.95,-45 87.95,-45 87.95,-45 92.95,-45 87.95,-40.5 97.95,-45 97.95,-45"/>
</g>
<!-- Decision&#45;&gt;Option1 -->
<g id="edge2" class="edge">
<title>Decision&#45;&gt;Option1</title>
<path fill="none" stroke="#008000" d="M214.19,-53.25C233.6,-56.44 255.84,-60.1 275.49,-63.34"/>
<polygon fill="#008000" stroke="#008000" points="285.49,-64.99 274.9,-67.8 280.56,-64.17 275.63,-63.36 275.63,-63.36 275.63,-63.36 280.56,-64.17 276.36,-58.92 285.49,-64.99 285.49,-64.99"/>
<text text-anchor="middle" x="255.59" y="-63.8" font-family="Times,serif" font-size="14.00">yes</text>
</g>
<!-- Decision&#45;&gt;Option2 -->
<g id="edge3" class="edge">
<title>Decision&#45;&gt;Option2</title>
<path fill="none" stroke="#8b0000" d="M214.19,-36.75C232.8,-33.69 254,-30.2 273.02,-27.07"/>
<polygon fill="#8b0000" stroke="#8b0000" points="283.04,-25.42 273.9,-31.48 278.11,-26.23 273.17,-27.04 273.17,-27.04 273.17,-27.04 278.11,-26.23 272.44,-22.6 283.04,-25.42 283.04,-25.42"/>
<text text-anchor="middle" x="255.59" y="-35.8" font-family="Times,serif" font-size="14.00">no</text>
</g>
</g>
</svg>
