<?xml version="1.0" encoding="UTF-8" standalone="no"?>
<!DOCTYPE svg PUBLIC "-//W3C//DTD SVG 1.1//EN"
 "http://www.w3.org/Graphics/SVG/1.1/DTD/svg11.dtd">
<!-- Generated by graphviz version 2.44.0 (20200408.0750)
 -->
<!-- Pages: 1 -->
<svg width="328pt" height="326pt"
 viewBox="0.00 0.00 327.69 326.00" xmlns="http://www.w3.org/2000/svg" xmlns:xlink="http://www.w3.org/1999/xlink">
<g id="graph0" class="graph" transform="scale(1 1) rotate(0) translate(4 322)">
<polygon fill="white" stroke="transparent" points="-4,4 -4,-322 323.69,-322 323.69,4 -4,4"/>
<!-- G -->
<g id="node1" class="node">
<title>G</title>
<defs>
<linearGradient id="l_0" gradientUnits="userSpaceOnUse" x1="10.5" y1="-18" x2="64.5" y2="-18" >
<stop offset="0" style="stop-color:turquoise;stop-opacity:1.;"/>
<stop offset="1" style="stop-color:royalblue;stop-opacity:1.;"/>
</linearGradient>
</defs>
<polygon fill="url(#l_0)" stroke="black" points="64.5,-36 10.5,-36 10.5,0 64.5,0 64.5,-36"/>
<text text-anchor="middle" x="37.5" y="-14.3" font-family="Helvetica,sans-Serif" font-size="14.00">G</text>
</g>
<!-- H -->
<g id="node2" class="node">
<title>H</title>
<defs>
<linearGradient id="l_1" gradientUnits="userSpaceOnUse" x1="241.35" y1="-18" x2="295.35" y2="-18" >
<stop offset="0" style="stop-color:turquoise;stop-opacity:1.;"/>
<stop offset="1" style="stop-color:royalblue;stop-opacity:1.;"/>
</linearGradient>
</defs>
<polygon fill="url(#l_1)" stroke="black" points="295.35,-36 241.35,-36 241.35,0 295.35,0 295.35,-36"/>
<text text-anchor="middle" x="268.35" y="-14.3" font-family="Helvetica,sans-Serif" font-size="14.00">H</text>
</g>
<!-- G&#45;&gt;H -->
<g id="edge1" class="edge">
<title>G&#45;&gt;H</title>
<path fill="none" stroke="black" stroke-dasharray="1,5" d="M64.75,-18C105.6,-18 184.47,-18 230.84,-18"/>
<polygon fill="black" stroke="black" points="241.05,-18 231.05,-22.5 236.05,-18 231.05,-18 231.05,-18 231.05,-18 236.05,-18 231.05,-13.5 241.05,-18 241.05,-18"/>
<text text-anchor="middle" x="146" y="-21" font-family="Helvetica,sans-Serif" font-size="10.00">DOTTED</text>
</g>
<!-- E -->
<g id="node3" class="node">
<title>E</title>
<defs>
<linearGradient id="l_2" gradientUnits="userSpaceOnUse" x1="10.5" y1="-72" x2="64.5" y2="-72" >
<stop offset="0" style="stop-color:turquoise;stop-opacity:1.;"/>
<stop offset="1" style="stop-color:royalblue;stop-opacity:1.;"/>
</linearGradient>
</defs>
<polygon fill="url(#l_2)" stroke="black" points="64.5,-90 10.5,-90 10.5,-54 64.5,-54 64.5,-90"/>
<text text-anchor="middle" x="37.5" y="-68.3" font-family="Helvetica,sans-Serif" font-size="14.00">E</text>
</g>
<!-- F -->
<g id="node4" class="node">
<title>F</title>
<defs>
<linearGradient id="l_3" gradientUnits="userSpaceOnUse" x1="241.35" y1="-72" x2="295.35" y2="-72" >
<stop offset="0" style="stop-color:turquoise;stop-opacity:1.;"/>
<stop offset="1" style="stop-color:royalblue;stop-opacity:1.;"/>
</linearGradient>
</defs>
<polygon fill="url(#l_3)" stroke="black" points="295.35,-90 241.35,-90 241.35,-54 295.35,-54 295.35,-90"/>
<text text-anchor="middle" x="268.35" y="-68.3" font-family="Helvetica,sans-Serif" font-size="14.00">F</text>
</g>
<!-- E&#45;&gt;F -->
<g id="edge2" class="edge">
<title>E&#45;&gt;F</title>
<path fill="none" stroke="turquoise" d="M74.96,-71C117.68,-71 188.05,-71 230.81,-71"/>
<path fill="none" stroke="royalblue" d="M74.96,-73C117.68,-73 188.05,-73 230.81,-73"/>
<polygon fill="royalblue" stroke="royalblue" points="64.75,-72 74.75,-67.5 69.75,-72 74.75,-72 74.75,-72 74.75,-72 69.75,-72 74.75,-76.5 64.75,-72 64.75,-72"/>
<polygon fill="turquoise" stroke="turquoise" points="241.05,-72 231.05,-76.5 236.05,-72 231.05,-72 231.05,-72 231.05,-72 236.05,-72 231.05,-67.5 241.05,-72 241.05,-72"/>
<text text-anchor="middle" x="146" y="-75" font-family="Helvetica,sans-Serif" font-size="10.00">PARALLEL SPLINES</text>
</g>
<!-- C -->
<g id="node5" class="node">
<title>C</title>
<defs>
<linearGradient id="l_4" gradientUnits="userSpaceOnUse" x1="10.5" y1="-126" x2="64.5" y2="-126" >
<stop offset="0.749" style="stop-color:royalblue;stop-opacity:1.;"/>
<stop offset="0.750" style="stop-color:turquoise;stop-opacity:1.;"/>
</linearGradient>
</defs>
<polygon fill="url(#l_4)" stroke="black" points="64.5,-144 10.5,-144 10.5,-108 64.5,-108 64.5,-144"/>
<text text-anchor="middle" x="37.5" y="-122.3" font-family="Helvetica,sans-Serif" font-size="14.00">C</text>
</g>
<!-- D -->
<g id="node6" class="node">
<title>D</title>
<defs>
<linearGradient id="l_5" gradientUnits="userSpaceOnUse" x1="241.35" y1="-126" x2="295.35" y2="-126" >
<stop offset="0.249" style="stop-color:navy;stop-opacity:1.;"/>
<stop offset="0.250" style="stop-color:royalblue;stop-opacity:1.;"/>
</linearGradient>
</defs>
<polygon fill="url(#l_5)" stroke="black" points="295.35,-144 241.35,-144 241.35,-108 295.35,-108 295.35,-144"/>
<text text-anchor="middle" x="268.35" y="-122.3" font-family="Helvetica,sans-Serif" font-size="14.00">D</text>
</g>
<!-- C&#45;&gt;D -->
<g id="edge3" class="edge">
<title>C&#45;&gt;D</title>
<path fill="none" stroke="turquoise" d="M74.96,-126C89.05,-126 106.16,-126 124.3,-126"/>
<path fill="none" stroke="gray" d="M124.3,-126C142.43,-126 161.59,-126 179.79,-126"/>
<path fill="none" stroke="navy" d="M179.79,-126C198.54,-126 216.27,-126 230.81,-126"/>
<polygon fill="turquoise" stroke="turquoise" points="64.75,-126 74.75,-121.5 69.75,-126 74.75,-126 74.75,-126 74.75,-126 69.75,-126 74.75,-130.5 64.75,-126 64.75,-126"/>
<polygon fill="navy" stroke="navy" points="241.05,-126 231.05,-130.5 236.05,-126 231.05,-126 231.05,-126 231.05,-126 236.05,-126 231.05,-121.5 241.05,-126 241.05,-126"/>
<text text-anchor="middle" x="146" y="-129" font-family="Helvetica,sans-Serif" font-size="10.00">MULTICOLOR SERIES</text>
</g>
<!-- STRIPED -->
<g id="node7" class="node">
<title>STRIPED</title>
<polygon fill="navy" stroke="transparent" stroke-width="0.5" points="0,-195 7.5,-195 7.5,-231 0,-231 0,-195"/>
<polygon fill="royalblue" stroke="transparent" stroke-width="0.5" points="7.5,-195 30,-195 30,-231 7.5,-231 7.5,-195"/>
<polygon fill="turquoise" stroke="transparent" stroke-width="0.5" points="30,-195 52.5,-195 52.5,-231 30,-231 30,-195"/>
<polygon fill="orange" stroke="transparent" stroke-width="0.5" points="52.5,-195 75,-195 75,-231 52.5,-231 52.5,-195"/>
<polygon fill="none" stroke="transparent" points="75,-231 0,-231 0,-195 75,-195 75,-231"/>
<text text-anchor="middle" x="37.5" y="-209.3" font-family="Helvetica,sans-Serif" font-size="14.00">STRIPED</text>
</g>
<!-- WEDGED -->
<g id="node8" class="node">
<title>WEDGED</title>
<path fill="orange" stroke="transparent" stroke-width="0.5" d="M268.35,-213C268.35,-213 319.54,-213 319.54,-213 319.54,-215.01 319.42,-217.02 319.18,-219.02 318.95,-221.01 318.59,-223 318.12,-224.95 317.65,-226.91 317.07,-228.83 316.37,-230.72 315.68,-232.6 314.87,-234.45 313.96,-236.24 313.04,-238.03 312.03,-239.77 310.91,-241.44 309.79,-243.11 308.58,-244.72 307.27,-246.25 305.97,-247.78 304.57,-249.23 303.09,-250.59 301.62,-251.96 300.06,-253.23 298.43,-254.41 296.81,-255.6 295.11,-256.68 293.36,-257.66 291.6,-258.65 289.79,-259.53 287.94,-260.29 286.08,-261.06 284.18,-261.72 282.24,-262.27 280.31,-262.82 278.34,-263.25 276.35,-263.56 274.37,-263.88 272.36,-264.07 270.36,-264.15 268.35,-264.23 266.33,-264.19 264.33,-264.03 262.32,-263.88 260.33,-263.6 258.36,-263.21 256.39,-262.82 254.44,-262.31 252.53,-261.69 252.53,-261.69 268.35,-213 268.35,-213"/>
<path fill="royalblue" stroke="transparent" stroke-width="0.5" d="M268.35,-213C268.35,-213 252.53,-261.69 252.53,-261.69 250.61,-261.06 248.74,-260.33 246.91,-259.49 245.09,-258.65 243.31,-257.7 241.6,-256.65 239.88,-255.6 238.23,-254.45 236.65,-253.2 235.07,-251.96 233.57,-250.62 232.15,-249.2 230.73,-247.78 229.39,-246.27 228.14,-244.69 226.9,-243.11 225.75,-241.46 224.7,-239.75 223.65,-238.03 222.7,-236.26 221.86,-234.43 221.01,-232.61 220.28,-230.73 219.66,-228.82 219.04,-226.91 218.53,-224.96 218.14,-222.99 217.75,-221.01 217.47,-219.02 217.31,-217.02 217.15,-215.01 217.11,-213 217.19,-210.99 217.27,-208.98 217.47,-206.98 217.78,-204.99 218.1,-203.01 218.53,-201.04 219.08,-199.1 219.62,-197.17 220.28,-195.27 221.05,-193.41 221.82,-191.55 222.7,-189.74 223.68,-187.99 224.66,-186.23 225.75,-184.54 226.93,-182.91 226.93,-182.91 268.35,-213 268.35,-213"/>
<path fill="navy" stroke="transparent" stroke-width="0.5" d="M268.35,-213C268.35,-213 226.93,-182.91 226.93,-182.91 227.72,-181.83 228.55,-180.77 229.42,-179.75 230.29,-178.73 231.2,-177.75 232.15,-176.8 233.1,-175.85 234.08,-174.94 235.1,-174.07 236.12,-173.2 237.17,-172.37 238.26,-171.59 239.34,-170.8 240.46,-170.05 241.6,-169.35 242.74,-168.65 243.91,-168 245.11,-167.39 246.3,-166.78 247.52,-166.22 248.76,-165.71 249.99,-165.19 251.25,-164.73 252.53,-164.31 252.53,-164.31 268.35,-213 268.35,-213"/>
<path fill="turquoise" stroke="transparent" stroke-width="0.5" d="M268.35,-213C268.35,-213 252.53,-164.31 252.53,-164.31 254.44,-163.69 256.39,-163.18 258.36,-162.79 260.33,-162.4 262.32,-162.12 264.33,-161.97 266.33,-161.81 268.35,-161.77 270.36,-161.85 272.36,-161.93 274.37,-162.12 276.35,-162.44 278.34,-162.75 280.31,-163.18 282.24,-163.73 284.18,-164.28 286.08,-164.94 287.94,-165.71 289.79,-166.47 291.6,-167.35 293.36,-168.34 295.11,-169.32 296.81,-170.4 298.43,-171.59 300.06,-172.77 301.62,-174.04 303.09,-175.41 304.57,-176.77 305.97,-178.22 307.27,-179.75 308.58,-181.28 309.79,-182.89 310.91,-184.56 312.03,-186.23 313.04,-187.97 313.96,-189.76 314.87,-191.55 315.68,-193.4 316.37,-195.28 317.07,-197.17 317.65,-199.09 318.12,-201.05 318.59,-203 318.95,-204.99 319.18,-206.98 319.42,-208.98 319.54,-210.99 319.54,-213 319.54,-213 268.35,-213 268.35,-213"/>
<ellipse fill="none" stroke="transparent" cx="268.35" cy="-213" rx="51.19" ry="51.19"/>
<text text-anchor="middle" x="268.35" y="-209.3" font-family="Helvetica,sans-Serif" font-size="14.00">WEDGED</text>
</g>
<!-- STRIPED&#45;&gt;WEDGED -->
<g id="edge4" class="edge">
<title>STRIPED&#45;&gt;WEDGED</title>
<path fill="none" stroke="black" d="M75.01,-213C110.45,-213 164.88,-213 206.81,-213"/>
<polygon fill="black" stroke="black" points="216.9,-213 206.9,-217.5 211.9,-213 206.9,-213 206.9,-213 206.9,-213 211.9,-213 206.9,-208.5 216.9,-213 216.9,-213"/>
</g>
<!-- A -->
<g id="node9" class="node">
<title>A</title>
<ellipse fill="orange" stroke="royalblue" cx="37.5" cy="-300" rx="18" ry="18"/>
<text text-anchor="middle" x="37.5" y="-296.3" font-family="Helvetica,sans-Serif" font-size="14.00">A</text>
</g>
<!-- B -->
<g id="node10" class="node">
<title>B</title>
<ellipse fill="orange" stroke="royalblue" cx="268.35" cy="-300" rx="18" ry="18"/>
<text text-anchor="middle" x="268.35" y="-296.3" font-family="Helvetica,sans-Serif" font-size="14.00">B</text>
</g>
<!-- A&#45;&gt;B -->
<g id="edge5" class="edge">
<title>A&#45;&gt;B</title>
<path fill="none" stroke="royalblue" d="M55.7,-300C95.14,-300 192.37,-300 240.06,-300"/>
<polygon fill="royalblue" stroke="royalblue" points="250.26,-300 240.26,-304.5 245.26,-300 240.26,-300 240.26,-300 240.26,-300 245.26,-300 240.26,-295.5 250.26,-300 250.26,-300"/>
<text text-anchor="middle" x="146" y="-303" font-family="Helvetica,sans-Serif" font-size="10.00">PLAIN COLOR</text>
</g>
</g>
</svg>
