<?xml version="1.0" encoding="UTF-8" standalone="no"?>
<!DOCTYPE svg PUBLIC "-//W3C//DTD SVG 1.1//EN"
 "http://www.w3.org/Graphics/SVG/1.1/DTD/svg11.dtd">
<!-- Generated by graphviz version 2.44.0 (20200408.0750)
 -->
<!-- Pages: 1 -->
<svg width="273pt" height="304pt"
 viewBox="0.00 0.00 272.59 304.00" xmlns="http://www.w3.org/2000/svg" xmlns:xlink="http://www.w3.org/1999/xlink">
<g id="graph0" class="graph" transform="scale(1 1) rotate(0) translate(4 300)">
<polygon fill="white" stroke="transparent" points="-4,4 -4,-300 268.59,-300 268.59,4 -4,4"/>
<!-- G -->
<g id="node1" class="node">
<title>G</title>
<defs>
<linearGradient id="l_0" gradientUnits="userSpaceOnUse" x1="1" y1="-18" x2="55" y2="-18" >
<stop offset="0" style="stop-color:turquoise;stop-opacity:1.;"/>
<stop offset="1" style="stop-color:royalblue;stop-opacity:1.;"/>
</linearGradient>
</defs>
<polygon fill="url(#l_0)" stroke="black" points="55,-36 1,-36 1,0 55,0 55,-36"/>
<text text-anchor="middle" x="28" y="-14.3" font-family="Times,serif" font-size="14.00">G</text>
</g>
<!-- H -->
<g id="node2" class="node">
<title>H</title>
<defs>
<linearGradient id="l_1" gradientUnits="userSpaceOnUse" x1="197.3" y1="-18" x2="251.3" y2="-18" >
<stop offset="0" style="stop-color:turquoise;stop-opacity:1.;"/>
<stop offset="1" style="stop-color:royalblue;stop-opacity:1.;"/>
</linearGradient>
</defs>
<polygon fill="url(#l_1)" stroke="black" points="251.3,-36 197.3,-36 197.3,0 251.3,0 251.3,-36"/>
<text text-anchor="middle" x="224.3" y="-14.3" font-family="Times,serif" font-size="14.00">H</text>
</g>
<!-- G&#45;&gt;H -->
<g id="edge1" class="edge">
<title>G&#45;&gt;H</title>
<path fill="none" stroke="black" stroke-dasharray="1,5" d="M55.2,-18C89.19,-18 148.66,-18 186.99,-18"/>
<polygon fill="black" stroke="black" points="197.2,-18 187.2,-22.5 192.2,-18 187.2,-18 187.2,-18 187.2,-18 192.2,-18 187.2,-13.5 197.2,-18 197.2,-18"/>
<text text-anchor="middle" x="120" y="-21.8" font-family="Times,serif" font-size="14.00">dotted</text>
</g>
<!-- E -->
<g id="node3" class="node">
<title>E</title>
<defs>
<linearGradient id="l_2" gradientUnits="userSpaceOnUse" x1="1" y1="-72" x2="55" y2="-72" >
<stop offset="0" style="stop-color:turquoise;stop-opacity:1.;"/>
<stop offset="1" style="stop-color:royalblue;stop-opacity:1.;"/>
</linearGradient>
</defs>
<polygon fill="url(#l_2)" stroke="black" points="55,-90 1,-90 1,-54 55,-54 55,-90"/>
<text text-anchor="middle" x="28" y="-68.3" font-family="Times,serif" font-size="14.00">E</text>
</g>
<!-- F -->
<g id="node4" class="node">
<title>F</title>
<defs>
<linearGradient id="l_3" gradientUnits="userSpaceOnUse" x1="197.3" y1="-72" x2="251.3" y2="-72" >
<stop offset="0" style="stop-color:turquoise;stop-opacity:1.;"/>
<stop offset="1" style="stop-color:royalblue;stop-opacity:1.;"/>
</linearGradient>
</defs>
<polygon fill="url(#l_3)" stroke="black" points="251.3,-90 197.3,-90 197.3,-54 251.3,-54 251.3,-90"/>
<text text-anchor="middle" x="224.3" y="-68.3" font-family="Times,serif" font-size="14.00">F</text>
</g>
<!-- E&#45;&gt;F -->
<g id="edge2" class="edge">
<title>E&#45;&gt;F</title>
<path fill="none" stroke="turquoise" d="M65.43,-71C100.2,-71 152.3,-71 187.02,-71"/>
<path fill="none" stroke="royalblue" d="M65.43,-73C100.2,-73 152.3,-73 187.02,-73"/>
<polygon fill="royalblue" stroke="royalblue" points="55.2,-72 65.2,-67.5 60.2,-72 65.2,-72 65.2,-72 65.2,-72 60.2,-72 65.2,-76.5 55.2,-72 55.2,-72"/>
<polygon fill="turquoise" stroke="turquoise" points="197.2,-72 187.2,-76.5 192.2,-72 187.2,-72 187.2,-72 187.2,-72 192.2,-72 187.2,-67.5 197.2,-72 197.2,-72"/>
<text text-anchor="middle" x="120" y="-75.8" font-family="Times,serif" font-size="14.00">parallel splines</text>
</g>
<!-- C -->
<g id="node5" class="node">
<title>C</title>
<defs>
<linearGradient id="l_4" gradientUnits="userSpaceOnUse" x1="1" y1="-126" x2="55" y2="-126" >
<stop offset="0.749" style="stop-color:royalblue;stop-opacity:1.;"/>
<stop offset="0.750" style="stop-color:turquoise;stop-opacity:1.;"/>
</linearGradient>
</defs>
<polygon fill="url(#l_4)" stroke="black" points="55,-144 1,-144 1,-108 55,-108 55,-144"/>
<text text-anchor="middle" x="28" y="-122.3" font-family="Times,serif" font-size="14.00">C</text>
</g>
<!-- D -->
<g id="node6" class="node">
<title>D</title>
<defs>
<linearGradient id="l_5" gradientUnits="userSpaceOnUse" x1="197.3" y1="-126" x2="251.3" y2="-126" >
<stop offset="0.249" style="stop-color:navy;stop-opacity:1.;"/>
<stop offset="0.250" style="stop-color:royalblue;stop-opacity:1.;"/>
</linearGradient>
</defs>
<polygon fill="url(#l_5)" stroke="black" points="251.3,-144 197.3,-144 197.3,-108 251.3,-108 251.3,-144"/>
<text text-anchor="middle" x="224.3" y="-122.3" font-family="Times,serif" font-size="14.00">D</text>
</g>
<!-- C&#45;&gt;D -->
<g id="edge3" class="edge">
<title>C&#45;&gt;D</title>
<path fill="none" stroke="turquoise" d="M65.43,-126C76.9,-126 90.26,-126 104.27,-126"/>
<path fill="none" stroke="gray" d="M104.27,-126C118.27,-126 132.91,-126 146.94,-126"/>
<path fill="none" stroke="navy" d="M146.94,-126C161.4,-126 175.21,-126 187.02,-126"/>
<polygon fill="turquoise" stroke="turquoise" points="55.2,-126 65.2,-121.5 60.2,-126 65.2,-126 65.2,-126 65.2,-126 60.2,-126 65.2,-130.5 55.2,-126 55.2,-126"/>
<polygon fill="navy" stroke="navy" points="197.2,-126 187.2,-130.5 192.2,-126 187.2,-126 187.2,-126 187.2,-126 192.2,-126 187.2,-121.5 197.2,-126 197.2,-126"/>
<text text-anchor="middle" x="120" y="-129.8" font-family="Times,serif" font-size="14.00">multicolor series</text>
</g>
<!-- Striped -->
<g id="node7" class="node">
<title>Striped</title>
<polygon fill="navy" stroke="transparent" stroke-width="0.5" points="0,-184 5.6,-184 5.6,-220 0,-220 0,-184"/>
<polygon fill="royalblue" stroke="transparent" stroke-width="0.5" points="5.6,-184 22.4,-184 22.4,-220 5.6,-220 5.6,-184"/>
<polygon fill="turquoise" stroke="transparent" stroke-width="0.5" points="22.4,-184 39.2,-184 39.2,-220 22.4,-220 22.4,-184"/>
<polygon fill="orange" stroke="transparent" stroke-width="0.5" points="39.2,-184 56,-184 56,-220 39.2,-220 39.2,-184"/>
<polygon fill="none" stroke="transparent" points="56,-220 0,-220 0,-184 56,-184 56,-220"/>
<text text-anchor="middle" x="28" y="-198.3" font-family="Times,serif" font-size="14.00">Striped</text>
</g>
<!-- Wedged -->
<g id="node8" class="node">
<title>Wedged</title>
<path fill="orange" stroke="transparent" stroke-width="0.5" d="M224.3,-202C224.3,-202 264.39,-202 264.39,-202 264.39,-203.57 264.3,-205.15 264.11,-206.71 263.93,-208.28 263.65,-209.83 263.28,-211.36 262.91,-212.89 262.46,-214.4 261.91,-215.88 261.37,-217.35 260.74,-218.8 260.02,-220.2 259.31,-221.61 258.51,-222.97 257.63,-224.27 256.76,-225.58 255.81,-226.84 254.78,-228.04 253.76,-229.24 252.67,-230.37 251.51,-231.44 250.36,-232.51 249.14,-233.51 247.86,-234.44 246.59,-235.36 245.26,-236.21 243.89,-236.98 242.51,-237.75 241.09,-238.44 239.64,-239.04 238.18,-239.64 236.7,-240.16 235.18,-240.59 233.66,-241.02 232.12,-241.35 230.57,-241.6 229.01,-241.85 227.44,-242 225.87,-242.06 224.3,-242.12 222.72,-242.09 221.15,-241.97 219.58,-241.85 218.02,-241.63 216.47,-241.32 214.93,-241.02 213.4,-240.62 211.91,-240.13 211.91,-240.13 224.3,-202 224.3,-202"/>
<path fill="royalblue" stroke="transparent" stroke-width="0.5" d="M224.3,-202C224.3,-202 211.91,-240.13 211.91,-240.13 210.41,-239.64 208.94,-239.07 207.51,-238.41 206.08,-237.75 204.69,-237.01 203.35,-236.19 202,-235.36 200.71,-234.46 199.47,-233.49 198.24,-232.51 197.06,-231.46 195.95,-230.35 194.83,-229.24 193.79,-228.06 192.81,-226.82 191.83,-225.59 190.93,-224.29 190.11,-222.95 189.29,-221.61 188.54,-220.22 187.89,-218.79 187.23,-217.36 186.65,-215.89 186.16,-214.39 185.68,-212.89 185.28,-211.37 184.97,-209.82 184.67,-208.28 184.45,-206.72 184.33,-205.15 184.2,-203.58 184.17,-202 184.23,-200.43 184.3,-198.85 184.45,-197.28 184.7,-195.73 184.94,-194.17 185.28,-192.63 185.71,-191.12 186.14,-189.6 186.65,-188.11 187.25,-186.66 187.86,-185.2 188.55,-183.78 189.31,-182.41 190.08,-181.04 190.93,-179.71 191.86,-178.43 191.86,-178.43 224.3,-202 224.3,-202"/>
<path fill="navy" stroke="transparent" stroke-width="0.5" d="M224.3,-202C224.3,-202 191.86,-178.43 191.86,-178.43 192.48,-177.58 193.13,-176.76 193.81,-175.96 194.49,-175.16 195.2,-174.39 195.95,-173.65 196.69,-172.91 197.46,-172.19 198.26,-171.51 199.06,-170.83 199.88,-170.18 200.73,-169.56 201.58,-168.95 202.45,-168.36 203.35,-167.81 204.24,-167.27 205.16,-166.75 206.09,-166.28 207.03,-165.8 207.98,-165.36 208.95,-164.96 209.92,-164.56 210.91,-164.19 211.91,-163.87 211.91,-163.87 224.3,-202 224.3,-202"/>
<path fill="turquoise" stroke="transparent" stroke-width="0.5" d="M224.3,-202C224.3,-202 211.91,-163.87 211.91,-163.87 213.4,-163.38 214.93,-162.98 216.47,-162.68 218.02,-162.37 219.58,-162.15 221.15,-162.03 222.72,-161.91 224.3,-161.88 225.87,-161.94 227.44,-162 229.01,-162.15 230.57,-162.4 232.12,-162.65 233.66,-162.98 235.18,-163.41 236.7,-163.84 238.18,-164.36 239.64,-164.96 241.09,-165.56 242.51,-166.25 243.89,-167.02 245.26,-167.79 246.59,-168.64 247.86,-169.56 249.14,-170.49 250.36,-171.49 251.51,-172.56 252.67,-173.63 253.76,-174.76 254.78,-175.96 255.81,-177.16 256.76,-178.42 257.63,-179.73 258.51,-181.03 259.31,-182.39 260.02,-183.8 260.74,-185.2 261.37,-186.65 261.91,-188.12 262.46,-189.6 262.91,-191.11 263.28,-192.64 263.65,-194.17 263.93,-195.72 264.11,-197.29 264.3,-198.85 264.39,-200.43 264.39,-202 264.39,-202 224.3,-202 224.3,-202"/>
<ellipse fill="none" stroke="transparent" cx="224.3" cy="-202" rx="40.09" ry="40.09"/>
<text text-anchor="middle" x="224.3" y="-198.3" font-family="Times,serif" font-size="14.00">Wedged</text>
</g>
<!-- Striped&#45;&gt;Wedged -->
<g id="edge4" class="edge">
<title>Striped&#45;&gt;Wedged</title>
<path fill="none" stroke="black" d="M56.02,-202C86.33,-202 136.14,-202 173.54,-202"/>
<polygon fill="black" stroke="black" points="183.73,-202 173.73,-206.5 178.73,-202 173.73,-202 173.73,-202 173.73,-202 178.73,-202 173.73,-197.5 183.73,-202 183.73,-202"/>
</g>
<!-- A -->
<g id="node9" class="node">
<title>A</title>
<ellipse fill="orange" stroke="royalblue" cx="28" cy="-278" rx="18" ry="18"/>
<text text-anchor="middle" x="28" y="-274.3" font-family="Times,serif" font-size="14.00">A</text>
</g>
<!-- B -->
<g id="node10" class="node">
<title>B</title>
<ellipse fill="orange" stroke="royalblue" cx="224.3" cy="-278" rx="18" ry="18"/>
<text text-anchor="middle" x="224.3" y="-274.3" font-family="Times,serif" font-size="14.00">B</text>
</g>
<!-- A&#45;&gt;B -->
<g id="edge5" class="edge">
<title>A&#45;&gt;B</title>
<path fill="none" stroke="royalblue" d="M46.24,-278C80.09,-278 155.45,-278 196.09,-278"/>
<polygon fill="royalblue" stroke="royalblue" points="206.09,-278 196.09,-282.5 201.09,-278 196.09,-278 196.09,-278 196.09,-278 201.09,-278 196.09,-273.5 206.09,-278 206.09,-278"/>
<text text-anchor="middle" x="120" y="-281.8" font-family="Times,serif" font-size="14.00">plain color</text>
</g>
</g>
</svg>
