<?xml version="1.0" encoding="UTF-8" standalone="no"?>
<!DOCTYPE svg PUBLIC "-//W3C//DTD SVG 1.1//EN"
 "http://www.w3.org/Graphics/SVG/1.1/DTD/svg11.dtd">
<!-- Generated by graphviz version 2.44.0 (20200408.0750)
 -->
<!-- Pages: 1 -->
<svg width="206pt" height="188pt"
 viewBox="0.00 0.00 206.00 188.00" xmlns="http://www.w3.org/2000/svg" xmlns:xlink="http://www.w3.org/1999/xlink">
<g id="graph0" class="graph" transform="scale(1 1) rotate(0) translate(4 184)">
<polygon fill="white" stroke="transparent" points="-4,4 -4,-184 202,-184 202,4 -4,4"/>
<!-- Foo -->
<g id="node1" class="node">
<title>Foo</title>
<ellipse fill="none" stroke="black" cx="99" cy="-162" rx="27" ry="18"/>
<text text-anchor="middle" x="99" y="-158.3" font-family="Times,serif" font-size="14.00">Foo</text>
</g>
<!-- Bar -->
<g id="node2" class="node">
<title>Bar</title>
<ellipse fill="none" stroke="black" cx="27" cy="-90" rx="27" ry="18"/>
<text text-anchor="middle" x="27" y="-86.3" font-family="Times,serif" font-size="14.00">Bar</text>
</g>
<!-- Foo&#45;&gt;Bar -->
<g id="edge1" class="edge">
<title>Foo&#45;&gt;Bar</title>
<path fill="none" stroke="black" d="M84.43,-146.83C74.25,-136.94 60.48,-123.55 48.97,-112.36"/>
<polygon fill="black" stroke="black" points="51.41,-109.85 41.8,-105.38 46.53,-114.87 51.41,-109.85"/>
</g>
<!-- Baz -->
<g id="node3" class="node">
<title>Baz</title>
<ellipse fill="none" stroke="black" cx="99" cy="-90" rx="27" ry="18"/>
<text text-anchor="middle" x="99" y="-86.3" font-family="Times,serif" font-size="14.00">Baz</text>
</g>
<!-- Foo&#45;&gt;Baz -->
<g id="edge2" class="edge">
<title>Foo&#45;&gt;Baz</title>
<path fill="none" stroke="black" d="M99,-143.7C99,-135.98 99,-126.71 99,-118.11"/>
<polygon fill="black" stroke="black" points="102.5,-118.1 99,-108.1 95.5,-118.1 102.5,-118.1"/>
</g>
<!-- Qux -->
<g id="node4" class="node">
<title>Qux</title>
<ellipse fill="none" stroke="black" cx="171" cy="-90" rx="27" ry="18"/>
<text text-anchor="middle" x="171" y="-86.3" font-family="Times,serif" font-size="14.00">Qux</text>
</g>
<!-- Foo&#45;&gt;Qux -->
<g id="edge3" class="edge">
<title>Foo&#45;&gt;Qux</title>
<path fill="none" stroke="black" d="M113.57,-146.83C123.75,-136.94 137.52,-123.55 149.03,-112.36"/>
<polygon fill="black" stroke="black" points="151.47,-114.87 156.2,-105.38 146.59,-109.85 151.47,-114.87"/>
</g>
<!-- Quux -->
<g id="node5" class="node">
<title>Quux</title>
<ellipse fill="none" stroke="black" cx="99" cy="-18" rx="30.59" ry="18"/>
<text text-anchor="middle" x="99" y="-14.3" font-family="Times,serif" font-size="14.00">Quux</text>
</g>
<!-- Bar&#45;&gt;Quux -->
<g id="edge4" class="edge">
<title>Bar&#45;&gt;Quux</title>
<path fill="none" stroke="black" d="M41.57,-74.83C51.52,-65.16 64.9,-52.15 76.25,-41.12"/>
<polygon fill="black" stroke="black" points="78.98,-43.35 83.71,-33.87 74.1,-38.33 78.98,-43.35"/>
</g>
<!-- Baz&#45;&gt;Quux -->
<g id="edge5" class="edge">
<title>Baz&#45;&gt;Quux</title>
<path fill="none" stroke="black" d="M99,-71.7C99,-63.98 99,-54.71 99,-46.11"/>
<polygon fill="black" stroke="black" points="102.5,-46.1 99,-36.1 95.5,-46.1 102.5,-46.1"/>
</g>
<!-- Qux&#45;&gt;Quux -->
<g id="edge6" class="edge">
<title>Qux&#45;&gt;Quux</title>
<path fill="none" stroke="black" d="M156.43,-74.83C146.48,-65.16 133.1,-52.15 121.75,-41.12"/>
<polygon fill="black" stroke="black" points="123.9,-38.33 114.29,-33.87 119.02,-43.35 123.9,-38.33"/>
</g>
</g>
</svg>
