<?xml version="1.0" encoding="UTF-8" standalone="no"?>
<!DOCTYPE svg PUBLIC "-//W3C//DTD SVG 1.1//EN"
 "http://www.w3.org/Graphics/SVG/1.1/DTD/svg11.dtd">
<!-- Generated by graphviz version 2.44.1 (20200629.0846)
 -->
<!-- Pages: 1 -->
<svg width="134pt" height="116pt"
 viewBox="0.00 0.00 134.00 116.00" xmlns="http://www.w3.org/2000/svg" xmlns:xlink="http://www.w3.org/1999/xlink">
<g id="graph0" class="graph" transform="scale(1 1) rotate(0) translate(4 112)">
<polygon fill="white" stroke="transparent" points="-4,4 -4,-112 130,-112 130,4 -4,4"/>
<!-- Foo -->
<g id="node1" class="node">
<title>Foo</title>
<ellipse fill="none" stroke="black" cx="63" cy="-90" rx="27" ry="18"/>
<text text-anchor="middle" x="63" y="-86.3" font-family="Times,serif" font-size="14.00">Foo</text>
</g>
<!-- Bar -->
<g id="node2" class="node">
<title>Bar</title>
<ellipse fill="none" stroke="black" cx="27" cy="-18" rx="27" ry="18"/>
<text text-anchor="middle" x="27" y="-14.3" font-family="Times,serif" font-size="14.00">Bar</text>
</g>
<!-- Foo&#45;&gt;Bar -->
<g id="edge1" class="edge">
<title>Foo&#45;&gt;Bar:nw</title>
<path fill="none" stroke="black" d="M41.76,-78.44C25.67,-69.4 6.49,-55.85 7.43,-43.08"/>
<polygon fill="black" stroke="black" points="10.63,-44.51 12,-34 4.38,-41.36 10.63,-44.51"/>
</g>
<!-- Baz -->
<g id="node3" class="node">
<title>Baz</title>
<ellipse fill="none" stroke="black" cx="99" cy="-18" rx="27" ry="18"/>
<text text-anchor="middle" x="99" y="-14.3" font-family="Times,serif" font-size="14.00">Baz</text>
</g>
<!-- Foo&#45;&gt;Baz -->
<g id="edge2" class="edge">
<title>Foo&#45;&gt;Baz:ne</title>
<path fill="none" stroke="black" d="M84.24,-78.44C100.33,-69.4 119.51,-55.85 118.57,-43.08"/>
<polygon fill="black" stroke="black" points="121.62,-41.36 114,-34 115.37,-44.51 121.62,-41.36"/>
</g>
</g>
</svg>
