<?xml version="1.0" encoding="UTF-8" standalone="no"?>
<!DOCTYPE svg PUBLIC "-//W3C//DTD SVG 1.1//EN"
 "http://www.w3.org/Graphics/SVG/1.1/DTD/svg11.dtd">
<!-- Generated by graphviz version 2.44.0 (20200408.0750)
 -->
<!-- Pages: 1 -->
<svg width="134pt" height="116pt"
 viewBox="0.00 0.00 134.00 116.00" xmlns="http://www.w3.org/2000/svg" xmlns:xlink="http://www.w3.org/1999/xlink">
<g id="graph0" class="graph" transform="scale(1 1) rotate(0) translate(4 112)">
<polygon fill="white" stroke="transparent" points="-4,4 -4,-112 130,-112 130,4 -4,4"/>
<!-- Foo -->
<g id="node1" class="node">
<title>Foo</title>
<ellipse fill="none" stroke="black" cx="27" cy="-90" rx="27" ry="18"/>
<text text-anchor="middle" x="27" y="-86.3" font-family="Times,serif" font-size="14.00">Foo</text>
</g>
<!-- Baz -->
<g id="node3" class="node">
<title>Baz</title>
<ellipse fill="none" stroke="black" cx="27" cy="-18" rx="27" ry="18"/>
<text text-anchor="middle" x="27" y="-14.3" font-family="Times,serif" font-size="14.00">Baz</text>
</g>
<!-- Foo&#45;&gt;Baz -->
<g id="edge1" class="edge">
<title>Foo&#45;&gt;Baz</title>
<path fill="none" stroke="black" d="M27,-71.7C27,-63.98 27,-54.71 27,-46.11"/>
<polygon fill="black" stroke="black" points="30.5,-46.1 27,-36.1 23.5,-46.1 30.5,-46.1"/>
</g>
<!-- Qux -->
<g id="node4" class="node">
<title>Qux</title>
<ellipse fill="none" stroke="black" cx="99" cy="-18" rx="27" ry="18"/>
<text text-anchor="middle" x="99" y="-14.3" font-family="Times,serif" font-size="14.00">Qux</text>
</g>
<!-- Foo&#45;&gt;Qux -->
<g id="edge2" class="edge">
<title>Foo&#45;&gt;Qux</title>
<path fill="none" stroke="black" d="M41.57,-74.83C51.75,-64.94 65.52,-51.55 77.03,-40.36"/>
<polygon fill="black" stroke="black" points="79.47,-42.87 84.2,-33.38 74.59,-37.85 79.47,-42.87"/>
</g>
<!-- Bar -->
<g id="node2" class="node">
<title>Bar</title>
<ellipse fill="none" stroke="black" cx="99" cy="-90" rx="27" ry="18"/>
<text text-anchor="middle" x="99" y="-86.3" font-family="Times,serif" font-size="14.00">Bar</text>
</g>
<!-- Bar&#45;&gt;Baz -->
<g id="edge3" class="edge">
<title>Bar&#45;&gt;Baz</title>
<path fill="none" stroke="black" d="M84.43,-74.83C74.25,-64.94 60.48,-51.55 48.97,-40.36"/>
<polygon fill="black" stroke="black" points="51.41,-37.85 41.8,-33.38 46.53,-42.87 51.41,-37.85"/>
</g>
<!-- Bar&#45;&gt;Qux -->
<g id="edge4" class="edge">
<title>Bar&#45;&gt;Qux</title>
<path fill="none" stroke="black" d="M99,-71.7C99,-63.98 99,-54.71 99,-46.11"/>
<polygon fill="black" stroke="black" points="102.5,-46.1 99,-36.1 95.5,-46.1 102.5,-46.1"/>
</g>
</g>
</svg>
