<?xml version="1.0" encoding="UTF-8" standalone="no"?>
<!DOCTYPE svg PUBLIC "-//W3C//DTD SVG 1.1//EN"
 "http://www.w3.org/Graphics/SVG/1.1/DTD/svg11.dtd">
<!-- Generated by graphviz version 2.44.0 (20200408.0750)
 -->
<!-- Pages: 1 -->
<svg width="206pt" height="188pt"
 viewBox="0.00 0.00 206.00 188.00" xmlns="http://www.w3.org/2000/svg" xmlns:xlink="http://www.w3.org/1999/xlink">
<g id="graph0" class="graph" transform="scale(1 1) rotate(0) translate(4 184)">
<polygon fill="white" stroke="transparent" points="-4,4 -4,-184 202,-184 202,4 -4,4"/>
<!-- Foo -->
<g id="node1" class="node">
<title>Foo</title>
<ellipse fill="none" stroke="black" cx="99" cy="-162" rx="27" ry="18"/>
<text text-anchor="middle" x="99" y="-158.3" font-family="Times,serif" font-size="14.00">Foo</text>
</g>
<!-- Bar -->
<g id="node2" class="node">
<title>Bar</title>
<ellipse fill="none" stroke="black" cx="27" cy="-90" rx="27" ry="18"/>
<text text-anchor="middle" x="27" y="-86.3" font-family="Times,serif" font-size="14.00">Bar</text>
</g>
<!-- Foo&#45;&gt;Bar -->
<g id="edge1" class="edge">
<title>Foo&#45;&gt;Bar</title>
<path fill="none" stroke="red" d="M84.43,-146.83C74.25,-136.94 60.48,-123.55 48.97,-112.36"/>
<polygon fill="red" stroke="red" points="51.41,-109.85 41.8,-105.38 46.53,-114.87 51.41,-109.85"/>
</g>
<!-- Baz -->
<g id="node3" class="node">
<title>Baz</title>
<ellipse fill="none" stroke="black" cx="99" cy="-90" rx="27" ry="18"/>
<text text-anchor="middle" x="99" y="-86.3" font-family="Times,serif" font-size="14.00">Baz</text>
</g>
<!-- Foo&#45;&gt;Baz -->
<g id="edge2" class="edge">
<title>Foo&#45;&gt;Baz</title>
<path fill="none" stroke="red" d="M99,-143.7C99,-135.98 99,-126.71 99,-118.11"/>
<polygon fill="red" stroke="red" points="102.5,-118.1 99,-108.1 95.5,-118.1 102.5,-118.1"/>
</g>
<!-- Qux -->
<g id="node4" class="node">
<title>Qux</title>
<ellipse fill="none" stroke="black" cx="171" cy="-90" rx="27" ry="18"/>
<text text-anchor="middle" x="171" y="-86.3" font-family="Times,serif" font-size="14.00">Qux</text>
</g>
<!-- Foo&#45;&gt;Qux -->
<g id="edge3" class="edge">
<title>Foo&#45;&gt;Qux</title>
<path fill="none" stroke="red" d="M113.57,-146.83C123.75,-136.94 137.52,-123.55 149.03,-112.36"/>
<polygon fill="red" stroke="red" points="151.47,-114.87 156.2,-105.38 146.59,-109.85 151.47,-114.87"/>
</g>
<!-- Quux -->
<g id="node5" class="node">
<title>Quux</title>
<ellipse fill="none" stroke="black" cx="99" cy="-18" rx="30.59" ry="18"/>
<text text-anchor="middle" x="99" y="-14.3" font-family="Times,serif" font-size="14.00">Quux</text>
</g>
<!-- Bar&#45;&gt;Quux -->
<g id="edge4" class="edge">
<title>Bar&#45;&gt;Quux:n</title>
<path fill="none" stroke="red" d="M47.83,-78.52C64.27,-69.7 85.89,-56.75 94.84,-45.41"/>
<polygon fill="red" stroke="red" points="98.16,-46.56 99,-36 91.76,-43.73 98.16,-46.56"/>
</g>
<!-- Baz&#45;&gt;Quux -->
<g id="edge5" class="edge">
<title>Baz&#45;&gt;Quux:n</title>
<path fill="none" stroke="red" d="M99,-71.81C99,-64.28 99,-55.1 99,-46.06"/>
<polygon fill="red" stroke="red" points="102.5,-46 99,-36 95.5,-46 102.5,-46"/>
</g>
<!-- Qux&#45;&gt;Quux -->
<g id="edge6" class="edge">
<title>Qux&#45;&gt;Quux:n</title>
<path fill="none" stroke="red" d="M150.17,-78.52C133.73,-69.7 112.11,-56.75 103.16,-45.41"/>
<polygon fill="red" stroke="red" points="106.24,-43.73 99,-36 99.84,-46.56 106.24,-43.73"/>
</g>
</g>
</svg>
