<?xml version="1.0" encoding="UTF-8" standalone="no"?>
<!DOCTYPE svg PUBLIC "-//W3C//DTD SVG 1.1//EN"
 "http://www.w3.org/Graphics/SVG/1.1/DTD/svg11.dtd">
<!-- Generated by graphviz version 2.38.0 (20140413.2041)
 -->
<!-- Title: %3 Pages: 1 -->
<svg width="477pt" height="98pt"
 viewBox="0.00 0.00 477.49 98.00" xmlns="http://www.w3.org/2000/svg" xmlns:xlink="http://www.w3.org/1999/xlink">
<g id="graph0" class="graph" transform="scale(1 1) rotate(0) translate(4 94)">
<title>%3</title>
<polygon fill="white" stroke="none" points="-4,4 -4,-94 473.49,-94 473.49,4 -4,4"/>
<!-- Decision -->
<g id="node1" class="node"><title>Decision</title>
<polygon fill="#ff8c00" stroke="black" stroke-width="2" points="163.095,-79 98.0946,-41 163.095,-3 228.095,-41 163.095,-79"/>
<text text-anchor="middle" x="163.095" y="-44.8" font-family="Times New Roman,serif" font-size="14.00">Decision</text>
<text text-anchor="middle" x="163.095" y="-29.8" font-family="Times New Roman,serif" font-size="14.00">point</text>
</g>
<!-- Option1 -->
<g id="node4" class="node"><title>Option1</title>
<polygon fill="#ff8c00" stroke="#008000" stroke-width="2" points="373.595,-90 284.595,-90 284.595,-54 373.595,-54 373.595,-90"/>
<text text-anchor="middle" x="329.095" y="-68.3" font-family="Times New Roman,serif" font-size="14.00">Positive path</text>
</g>
<!-- Decision&#45;&gt;Option1 -->
<g id="edge1" class="edge"><title>Decision&#45;&gt;Option1</title>
<path fill="none" stroke="#008000" d="M212.856,-50.2171C232.322,-53.8967 254.797,-58.1449 274.701,-61.9072"/>
<polygon fill="#008000" stroke="#008000" points="284.542,-63.7674 273.88,-66.3317 279.629,-62.8387 274.716,-61.91 274.716,-61.91 274.716,-61.91 279.629,-62.8387 275.552,-57.4883 284.542,-63.7674 284.542,-63.7674"/>
<text text-anchor="middle" x="255.595" y="-62.8" font-family="Times New Roman,serif" font-size="14.00">yes</text>
</g>
<!-- Option2 -->
<g id="node5" class="node"><title>Option2</title>
<polygon fill="#ff8c00" stroke="#8b0000" stroke-width="2" points="375.095,-36 283.095,-36 283.095,-0 375.095,-0 375.095,-36"/>
<text text-anchor="middle" x="329.095" y="-14.3" font-family="Times New Roman,serif" font-size="14.00">Negative path</text>
</g>
<!-- Decision&#45;&gt;Option2 -->
<g id="edge2" class="edge"><title>Decision&#45;&gt;Option2</title>
<path fill="none" stroke="#8b0000" d="M215.985,-33.7227C234.117,-31.1798 254.53,-28.317 272.92,-25.7379"/>
<polygon fill="#8b0000" stroke="#8b0000" points="282.901,-24.3381 273.623,-30.1834 277.95,-25.0326 272.998,-25.727 272.998,-25.727 272.998,-25.727 277.95,-25.0326 272.373,-21.2707 282.901,-24.3381 282.901,-24.3381"/>
<text text-anchor="middle" x="255.595" y="-33.8" font-family="Times New Roman,serif" font-size="14.00">no</text>
</g>
<!-- Entry -->
<g id="node2" class="node"><title>Entry</title>
<ellipse fill="#ff8c00" stroke="black" stroke-width="2" cx="30.5473" cy="-41" rx="30.5947" ry="30.5947"/>
<text text-anchor="middle" x="30.5473" y="-37.3" font-family="Times New Roman,serif" font-size="14.00">Entry</text>
</g>
<!-- Entry&#45;&gt;Decision -->
<g id="edge3" class="edge"><title>Entry&#45;&gt;Decision</title>
<path fill="none" stroke="black" d="M61.1705,-41C69.2364,-41 78.3499,-41 87.7187,-41"/>
<polygon fill="black" stroke="black" points="97.9474,-41 87.9474,-45.5001 92.9474,-41 87.9474,-41.0001 87.9474,-41.0001 87.9474,-41.0001 92.9474,-41 87.9473,-36.5001 97.9474,-41 97.9474,-41"/>
</g>
<!-- Exit -->
<g id="node3" class="node"><title>Exit</title>
<ellipse fill="#ff8c00" stroke="black" stroke-width="2" cx="440.792" cy="-48" rx="24.8692" ry="24.8692"/>
<ellipse fill="none" stroke="black" stroke-width="2" cx="440.792" cy="-48" rx="28.897" ry="28.897"/>
<text text-anchor="middle" x="440.792" y="-44.3" font-family="Times New Roman,serif" font-size="14.00">Exit</text>
</g>
<!-- Option1&#45;&gt;Exit -->
<g id="edge4" class="edge"><title>Option1&#45;&gt;Exit</title>
<path fill="none" stroke="black" d="M373.765,-62.4456C383.418,-60.3337 393.554,-58.1162 402.906,-56.0701"/>
<polygon fill="black" stroke="black" points="412.687,-53.9302 403.88,-60.4636 407.803,-54.9989 402.918,-56.0675 402.918,-56.0675 402.918,-56.0675 407.803,-54.9989 401.956,-51.6715 412.687,-53.9302 412.687,-53.9302"/>
</g>
<!-- Option2&#45;&gt;Exit -->
<g id="edge5" class="edge"><title>Option2&#45;&gt;Exit</title>
<path fill="none" stroke="black" d="M375.346,-30.3754C384.608,-32.9084 394.248,-35.5445 403.162,-37.9824"/>
<polygon fill="black" stroke="black" points="412.861,-40.6348 402.028,-42.3374 408.038,-39.3158 403.215,-37.9968 403.215,-37.9968 403.215,-37.9968 408.038,-39.3158 404.402,-33.6562 412.861,-40.6348 412.861,-40.6348"/>
</g>
</g>
</svg>
