<?xml version="1.0" encoding="UTF-8" standalone="no"?>
<!DOCTYPE svg PUBLIC "-//W3C//DTD SVG 1.1//EN"
 "http://www.w3.org/Graphics/SVG/1.1/DTD/svg11.dtd">
<!-- Generated by graphviz version 2.44.0 (20200408.0750)
 -->
<!-- Pages: 1 -->
<svg width="245pt" height="155pt"
 viewBox="0.00 0.00 245.00 155.00" xmlns="http://www.w3.org/2000/svg" xmlns:xlink="http://www.w3.org/1999/xlink">
<g id="graph0" class="graph" transform="scale(1 1) rotate(0) translate(4 151)">
<polygon fill="white" stroke="transparent" points="-4,4 -4,-151 241,-151 241,4 -4,4"/>
<!-- Bar -->
<g id="node1" class="node">
<title>Bar</title>
<polygon fill="none" stroke="black" points="0.5,0.5 0.5,-74.5 32.5,-74.5 32.5,0.5 0.5,0.5"/>
<text text-anchor="start" x="5.5" y="-40.8" font-family="Times,serif" font-size="14.00">Foo</text>
<text text-anchor="start" x="6.5" y="-25.8" font-family="Times,serif" font-size="14.00">Bar</text>
<polygon fill="none" stroke="black" points="32.5,-49.5 32.5,-74.5 162.5,-74.5 162.5,-49.5 32.5,-49.5"/>
<text text-anchor="start" x="86.5" y="-58.3" font-family="Times,serif" font-size="14.00">Baz</text>
<polygon fill="none" stroke="black" points="162.5,0.5 162.5,-74.5 196.5,-74.5 196.5,0.5 162.5,0.5"/>
<text text-anchor="start" x="167.5" y="-33.3" font-family="Times,serif" font-size="14.00">Qux</text>
<polygon fill="none" stroke="black" points="196.5,0.5 196.5,-74.5 237.5,-74.5 237.5,0.5 196.5,0.5"/>
<text text-anchor="start" x="201.5" y="-33.3" font-family="Times,serif" font-size="14.00">Quux</text>
<polygon fill="none" stroke="black" points="32.5,-24.5 32.5,-49.5 80.5,-49.5 80.5,-24.5 32.5,-24.5"/>
<text text-anchor="start" x="37.5" y="-33.3" font-family="Times,serif" font-size="14.00">Garply</text>
<polygon fill="none" stroke="black" points="80.5,-24.5 80.5,-49.5 127.5,-49.5 127.5,-24.5 80.5,-24.5"/>
<text text-anchor="start" x="85.5" y="-33.3" font-family="Times,serif" font-size="14.00">Waldo</text>
<polygon fill="none" stroke="black" points="127.5,-24.5 127.5,-49.5 162.5,-49.5 162.5,-24.5 127.5,-24.5"/>
<text text-anchor="start" x="132.5" y="-33.3" font-family="Times,serif" font-size="14.00">Fred</text>
<polygon fill="none" stroke="black" points="32.5,0.5 32.5,-24.5 162.5,-24.5 162.5,0.5 32.5,0.5"/>
<text text-anchor="start" x="81.5" y="-8.3" font-family="Times,serif" font-size="14.00">Plugh</text>
</g>
<!-- Foo -->
<g id="node2" class="node">
<title>Foo</title>
<ellipse fill="none" stroke="black" cx="162.5" cy="-129" rx="27" ry="18"/>
<text text-anchor="middle" x="162.5" y="-125.3" font-family="Times,serif" font-size="14.00">Foo</text>
</g>
<!-- Foo&#45;&gt;Bar -->
<g id="edge1" class="edge">
<title>Foo&#45;&gt;Bar:ne</title>
<path fill="none" stroke="black" d="M168.55,-111.21C172.91,-96.28 176.71,-74.43 168.42,-58.6"/>
<polygon fill="black" stroke="black" points="171.23,-56.5 162.5,-50.5 165.58,-60.64 171.23,-56.5"/>
</g>
</g>
</svg>
