<?xml version="1.0" encoding="UTF-8" standalone="no"?>
<!DOCTYPE svg PUBLIC "-//W3C//DTD SVG 1.1//EN"
 "http://www.w3.org/Graphics/SVG/1.1/DTD/svg11.dtd">
<!-- Generated by graphviz version 2.47.3 (20210619.1520)
 -->
<!-- Pages: 1 -->
<svg width="251pt" height="83pt"
 viewBox="0.00 0.00 251.00 83.00" xmlns="http://www.w3.org/2000/svg" xmlns:xlink="http://www.w3.org/1999/xlink">
<g id="graph0" class="graph" transform="scale(1 1) rotate(0) translate(4 79)">
<polygon fill="white" stroke="transparent" points="-4,4 -4,-79 247,-79 247,4 -4,4"/>
<!-- Bar -->
<g id="node1" class="node">
<title>Bar</title>
<polygon fill="none" stroke="black" points="0.5,0.5 0.5,-74.5 32.5,-74.5 32.5,0.5 0.5,0.5"/>
<text text-anchor="start" x="5.5" y="-40.8" font-family="Times,serif" font-size="14.00">Foo</text>
<text text-anchor="start" x="6" y="-25.8" font-family="Times,serif" font-size="14.00">Bar</text>
<polygon fill="none" stroke="black" points="32.5,-49.5 32.5,-74.5 166.5,-74.5 166.5,-49.5 32.5,-49.5"/>
<text text-anchor="start" x="37.5" y="-58.3" font-family="Times,serif" font-size="14.00">Baz</text>
<polygon fill="none" stroke="black" points="166.5,0.5 166.5,-74.5 201.5,-74.5 201.5,0.5 166.5,0.5"/>
<text text-anchor="start" x="171.5" y="-33.3" font-family="Times,serif" font-size="14.00">Qux</text>
<polygon fill="none" stroke="black" points="201.5,0.5 201.5,-74.5 243.5,-74.5 243.5,0.5 201.5,0.5"/>
<text text-anchor="start" x="206.5" y="-33.3" font-family="Times,serif" font-size="14.00">Quux</text>
<polygon fill="none" stroke="black" points="32.5,-24.5 32.5,-49.5 81.5,-49.5 81.5,-24.5 32.5,-24.5"/>
<text text-anchor="start" x="37.5" y="-33.3" font-family="Times,serif" font-size="14.00">Garply</text>
<polygon fill="none" stroke="black" points="81.5,-24.5 81.5,-49.5 128.5,-49.5 128.5,-24.5 81.5,-24.5"/>
<text text-anchor="start" x="86.5" y="-33.3" font-family="Times,serif" font-size="14.00">Waldo</text>
<polygon fill="none" stroke="black" points="128.5,-24.5 128.5,-49.5 166.5,-49.5 166.5,-24.5 128.5,-24.5"/>
<text text-anchor="start" x="133.5" y="-34.3" font-family="Times,serif" font-weight="bold" font-style="italic" font-size="14.00" fill="royalblue">Fred</text>
<polygon fill="none" stroke="black" points="32.5,0.5 32.5,-24.5 166.5,-24.5 166.5,0.5 32.5,0.5"/>
<text text-anchor="start" x="128.5" y="-8.3" font-family="Times,serif" font-size="14.00">Plugh</text>
</g>
</g>
</svg>
