<?xml version="1.0" encoding="UTF-8" standalone="no"?>
<!DOCTYPE svg PUBLIC "-//W3C//DTD SVG 1.1//EN"
 "http://www.w3.org/Graphics/SVG/1.1/DTD/svg11.dtd">
<!-- Generated by graphviz version 2.44.1 (20200629.0846)
 -->
<!-- Pages: 1 -->
<svg width="62pt" height="116pt"
 viewBox="0.00 0.00 62.00 116.00" xmlns="http://www.w3.org/2000/svg" xmlns:xlink="http://www.w3.org/1999/xlink">
<g id="graph0" class="graph" transform="scale(1 1) rotate(0) translate(4 112)">
<polygon fill="white" stroke="transparent" points="-4,4 -4,-112 58,-112 58,4 -4,4"/>
<!-- Foo -->
<g id="node1" class="node">
<title>Foo</title>
<ellipse fill="none" stroke="black" cx="27" cy="-90" rx="27" ry="18"/>
<text text-anchor="middle" x="27" y="-86.3" font-family="Times,serif" font-size="14.00">Foo</text>
</g>
<!-- Bar -->
<g id="node2" class="node">
<title>Bar</title>
<ellipse fill="none" stroke="black" cx="27" cy="-18" rx="27" ry="18"/>
<text text-anchor="middle" x="27" y="-14.3" font-family="Times,serif" font-size="14.00">Bar</text>
</g>
<!-- Foo&#45;&gt;Bar -->
<g id="edge1" class="edge">
<title>Foo&#45;&gt;Bar</title>
<path fill="none" stroke="royalblue" d="M21.16,-72.41C20.73,-68.46 20.45,-64.07 20.33,-59.55"/>
<path fill="none" stroke="turquoise" d="M20.33,-59.55C20.2,-55.04 20.23,-50.39 20.41,-45.94"/>
<polygon fill="turquoise" stroke="turquoise" points="23.9,-46.18 21.12,-35.96 16.92,-45.68 23.9,-46.18"/>
</g>
<!-- Foo&#45;&gt;Bar -->
<g id="edge2" class="edge">
<title>Foo&#45;&gt;Bar</title>
<path fill="none" stroke="royalblue" d="M31.85,-72.3C32.7,-64.48 32.95,-54.83 32.59,-45.98"/>
<path fill="none" stroke="turquoise" d="M33.83,-72.52C34.7,-64.53 34.95,-54.88 34.59,-45.89"/>
<polygon fill="royalblue" stroke="royalblue" points="37.08,-45.68 32.88,-35.96 30.1,-46.18 37.08,-45.68"/>
</g>
</g>
</svg>
