<?xml version="1.0" encoding="UTF-8" standalone="no"?>
<!DOCTYPE svg PUBLIC "-//W3C//DTD SVG 1.1//EN"
 "http://www.w3.org/Graphics/SVG/1.1/DTD/svg11.dtd">
<!-- Generated by graphviz version 2.44.0 (20200408.0750)
 -->
<!-- Pages: 1 -->
<svg width="213pt" height="44pt"
 viewBox="0.00 0.00 213.04 44.00" xmlns="http://www.w3.org/2000/svg" xmlns:xlink="http://www.w3.org/1999/xlink">
<g id="graph0" class="graph" transform="scale(1 1) rotate(0) translate(4 40)">
<polygon fill="white" stroke="transparent" points="-4,4 -4,-40 209.04,-40 209.04,4 -4,4"/>
<!-- Foo -->
<g id="node1" class="node">
<title>Foo</title>
<polygon fill="none" stroke="orange" points="57.06,-18 42.79,-36 14.25,-36 -0.02,-18 14.25,0 42.79,0 57.06,-18"/>
<text text-anchor="middle" x="28.52" y="-14.3" font-family="Times,serif" font-size="14.00">Foo</text>
</g>
<!-- Bar -->
<g id="node2" class="node">
<title>Bar</title>
<polygon fill="none" stroke="orange" points="129.55,-18 116.04,-36 89,-36 75.48,-18 89,0 116.04,0 129.55,-18"/>
<text text-anchor="middle" x="102.52" y="-14.3" font-family="Times,serif" font-size="14.00">Bar</text>
</g>
<!-- Baz -->
<g id="node3" class="node">
<title>Baz</title>
<polygon fill="none" stroke="orange" points="205.06,-18 190.79,-36 162.25,-36 147.98,-18 162.25,0 190.79,0 205.06,-18"/>
<text text-anchor="middle" x="176.52" y="-14.3" font-family="Times,serif" font-size="14.00">Baz</text>
</g>
</g>
</svg>
