<?xml version="1.0" encoding="UTF-8" standalone="no"?>
<!DOCTYPE svg PUBLIC "-//W3C//DTD SVG 1.1//EN"
 "http://www.w3.org/Graphics/SVG/1.1/DTD/svg11.dtd">
<!-- Generated by graphviz version 2.44.0 (20200408.0750)
 -->
<!-- Pages: 1 -->
<svg width="85pt" height="151pt"
 viewBox="0.00 0.00 84.50 151.00" xmlns="http://www.w3.org/2000/svg" xmlns:xlink="http://www.w3.org/1999/xlink">
<g id="graph0" class="graph" transform="scale(1 1) rotate(0) translate(4 147)">
<polygon fill="white" stroke="transparent" points="-4,4 -4,-147 80.5,-147 80.5,4 -4,4"/>
<!-- node1 -->
<g id="node1" class="node">
<title>node1</title>
<polygon fill="none" stroke="black" points="0,-73.5 0,-142.5 69,-142.5 69,-73.5 0,-73.5"/>
<text text-anchor="middle" x="11.5" y="-104.3" font-family="Times,serif" font-size="14.00">a</text>
<polyline fill="none" stroke="black" points="23,-73.5 23,-142.5 "/>
<text text-anchor="middle" x="34.5" y="-127.3" font-family="Times,serif" font-size="14.00">b</text>
<polyline fill="none" stroke="black" points="23,-119.5 46,-119.5 "/>
<text text-anchor="middle" x="34.5" y="-104.3" font-family="Times,serif" font-size="14.00">c</text>
<polyline fill="none" stroke="black" points="23,-96.5 46,-96.5 "/>
<text text-anchor="middle" x="34.5" y="-81.3" font-family="Times,serif" font-size="14.00">d</text>
<polyline fill="none" stroke="black" points="46,-73.5 46,-142.5 "/>
<text text-anchor="middle" x="57.5" y="-104.3" font-family="Times,serif" font-size="14.00">e</text>
</g>
<!-- node2 -->
<g id="node2" class="node">
<title>node2</title>
<polygon fill="none" stroke="black" points="22.5,-0.5 22.5,-36.5 76.5,-36.5 76.5,-0.5 22.5,-0.5"/>
<text text-anchor="middle" x="36" y="-14.8" font-family="Times,serif" font-size="14.00">a</text>
<polyline fill="none" stroke="black" points="49.5,-0.5 49.5,-36.5 "/>
<text text-anchor="middle" x="63" y="-14.8" font-family="Times,serif" font-size="14.00">b</text>
</g>
<!-- node1&#45;&gt;node2 -->
<g id="edge1" class="edge">
<title>node1:w&#45;&gt;node2:w</title>
<path fill="none" stroke="black" d="M22.5,-108C5.8,-108 2.41,-44.87 13.54,-24.65"/>
<polygon fill="black" stroke="black" points="15.73,-27.39 21.5,-18.5 11.45,-21.85 15.73,-27.39"/>
</g>
</g>
</svg>
