<?xml version="1.0" encoding="UTF-8" standalone="no"?>
<!DOCTYPE svg PUBLIC "-//W3C//DTD SVG 1.1//EN"
 "http://www.w3.org/Graphics/SVG/1.1/DTD/svg11.dtd">
<!-- Generated by graphviz version 2.44.0 (20200408.0750)
 -->
<!-- Pages: 1 -->
<svg width="281pt" height="150pt"
 viewBox="0.00 0.00 281.00 150.00" xmlns="http://www.w3.org/2000/svg" xmlns:xlink="http://www.w3.org/1999/xlink">
<g id="graph0" class="graph" transform="scale(1 1) rotate(0) translate(4 146)">
<polygon fill="white" stroke="transparent" points="-4,4 -4,-146 277,-146 277,4 -4,4"/>
<!-- Bar -->
<g id="node1" class="node">
<title>Bar</title>
<polygon fill="none" stroke="black" points="0,-0.5 0,-69.5 273,-69.5 273,-0.5 0,-0.5"/>
<text text-anchor="middle" x="19" y="-38.8" font-family="Times,serif" font-size="14.00">Foo</text>
<text text-anchor="middle" x="19" y="-23.8" font-family="Times,serif" font-size="14.00">Bar</text>
<polyline fill="none" stroke="black" points="38,-0.5 38,-69.5 "/>
<text text-anchor="middle" x="112" y="-54.3" font-family="Times,serif" font-size="14.00">Baz</text>
<polyline fill="none" stroke="black" points="38,-46.5 186,-46.5 "/>
<text text-anchor="middle" x="65" y="-31.3" font-family="Times,serif" font-size="14.00">Garply</text>
<polyline fill="none" stroke="black" points="92,-23.5 92,-46.5 "/>
<text text-anchor="middle" x="118.5" y="-31.3" font-family="Times,serif" font-size="14.00">Waldo</text>
<polyline fill="none" stroke="black" points="145,-23.5 145,-46.5 "/>
<text text-anchor="middle" x="165.5" y="-31.3" font-family="Times,serif" font-size="14.00">Fred</text>
<polyline fill="none" stroke="black" points="38,-23.5 186,-23.5 "/>
<text text-anchor="middle" x="112" y="-8.3" font-family="Times,serif" font-size="14.00">Plugh</text>
<polyline fill="none" stroke="black" points="186,-0.5 186,-69.5 "/>
<text text-anchor="middle" x="206" y="-31.3" font-family="Times,serif" font-size="14.00">Qux</text>
<polyline fill="none" stroke="black" points="226,-0.5 226,-69.5 "/>
<text text-anchor="middle" x="249.5" y="-31.3" font-family="Times,serif" font-size="14.00">Quux</text>
</g>
<!-- Foo -->
<g id="node2" class="node">
<title>Foo</title>
<ellipse fill="none" stroke="black" cx="186.5" cy="-124" rx="27" ry="18"/>
<text text-anchor="middle" x="186.5" y="-120.3" font-family="Times,serif" font-size="14.00">Foo</text>
</g>
<!-- Foo&#45;&gt;Bar -->
<g id="edge1" class="edge">
<title>Foo&#45;&gt;Bar:ne</title>
<path fill="none" stroke="black" d="M192.52,-106.22C196.72,-91.71 200.32,-70.7 192.5,-55.32"/>
<polygon fill="black" stroke="black" points="195.19,-53.06 186.5,-47 189.51,-57.16 195.19,-53.06"/>
</g>
</g>
</svg>
