<?xml version="1.0" encoding="UTF-8" standalone="no"?>
<!DOCTYPE svg PUBLIC "-//W3C//DTD SVG 1.1//EN"
 "http://www.w3.org/Graphics/SVG/1.1/DTD/svg11.dtd">
<!-- Generated by graphviz version 2.44.0 (20200408.0750)
 -->
<!-- Pages: 1 -->
<svg width="133pt" height="151pt"
 viewBox="0.00 0.00 133.00 151.00" xmlns="http://www.w3.org/2000/svg" xmlns:xlink="http://www.w3.org/1999/xlink">
<g id="graph0" class="graph" transform="scale(1 1) rotate(0) translate(4 147)">
<polygon fill="white" stroke="transparent" points="-4,4 -4,-147 129,-147 129,4 -4,4"/>
<!-- Foo -->
<g id="node1" class="node">
<title>Foo</title>
<polygon fill="none" stroke="black" points="0,-73.5 0,-142.5 125,-142.5 125,-73.5 0,-73.5"/>
<text text-anchor="middle" x="19" y="-104.3" font-family="Times,serif" font-size="14.00">Foo</text>
<polyline fill="none" stroke="black" points="38,-73.5 38,-142.5 "/>
<text text-anchor="middle" x="58" y="-127.3" font-family="Times,serif" font-size="14.00">Bar</text>
<polyline fill="none" stroke="black" points="38,-119.5 78,-119.5 "/>
<text text-anchor="middle" x="58" y="-104.3" font-family="Times,serif" font-size="14.00">Baz</text>
<polyline fill="none" stroke="black" points="38,-96.5 78,-96.5 "/>
<text text-anchor="middle" x="58" y="-81.3" font-family="Times,serif" font-size="14.00">Qux</text>
<polyline fill="none" stroke="black" points="78,-73.5 78,-142.5 "/>
<text text-anchor="middle" x="101.5" y="-104.3" font-family="Times,serif" font-size="14.00">Quux</text>
</g>
<!-- Bar -->
<g id="node2" class="node">
<title>Bar</title>
<polygon fill="none" stroke="black" points="37.5,-0.5 37.5,-36.5 111.5,-36.5 111.5,-0.5 37.5,-0.5"/>
<text text-anchor="middle" x="56.5" y="-14.8" font-family="Times,serif" font-size="14.00">Foo</text>
<polyline fill="none" stroke="black" points="75.5,-0.5 75.5,-36.5 "/>
<text text-anchor="middle" x="93.5" y="-14.8" font-family="Times,serif" font-size="14.00">Bar</text>
</g>
<!-- Foo&#45;&gt;Bar -->
<g id="edge1" class="edge">
<title>Foo:w&#45;&gt;Bar:w</title>
<path fill="none" stroke="black" d="M37.5,-108C1.45,-108 -2.75,-34.49 26.39,-20.71"/>
<polygon fill="black" stroke="black" points="27.48,-24.06 36.5,-18.5 25.98,-17.22 27.48,-24.06"/>
</g>
</g>
</svg>
