<?xml version="1.0" encoding="UTF-8" standalone="no"?>
<!DOCTYPE svg PUBLIC "-//W3C//DTD SVG 1.1//EN"
 "http://www.w3.org/Graphics/SVG/1.1/DTD/svg11.dtd">
<!-- Generated by graphviz version 2.44.1 (20200629.0846)
 -->
<!-- Pages: 1 -->
<svg width="210pt" height="116pt"
 viewBox="0.00 0.00 209.60 116.00" xmlns="http://www.w3.org/2000/svg" xmlns:xlink="http://www.w3.org/1999/xlink">
<g id="graph0" class="graph" transform="scale(1 1) rotate(0) translate(4 112)">
<polygon fill="white" stroke="transparent" points="-4,4 -4,-112 205.6,-112 205.6,4 -4,4"/>
<!-- foo -->
<g id="node1" class="node">
<title>foo</title>
<ellipse fill="orange" stroke="orange" cx="27" cy="-90" rx="27" ry="18"/>
<text text-anchor="middle" x="27" y="-86.3" font-family="Times,serif" font-size="14.00">foo</text>
</g>
<!-- bar -->
<g id="node2" class="node">
<title>bar</title>
<ellipse fill="orange" stroke="orange" cx="27" cy="-18" rx="27" ry="18"/>
<text text-anchor="middle" x="27" y="-14.3" font-family="Times,serif" font-size="14.00">bar</text>
</g>
<!-- foo&#45;&gt;bar -->
<g id="edge1" class="edge">
<title>foo&#45;&gt;bar</title>
<path fill="none" stroke="black" d="M27,-71.7C27,-63.98 27,-54.71 27,-46.11"/>
<polygon fill="black" stroke="black" points="30.5,-46.1 27,-36.1 23.5,-46.1 30.5,-46.1"/>
</g>
<!-- baz -->
<g id="node3" class="node">
<title>baz</title>
<ellipse fill="turquoise" stroke="turquoise" cx="99" cy="-90" rx="27" ry="18"/>
<text text-anchor="middle" x="99" y="-86.3" font-family="Times,serif" font-size="14.00">baz</text>
</g>
<!-- qux -->
<g id="node4" class="node">
<title>qux</title>
<ellipse fill="turquoise" stroke="turquoise" cx="99" cy="-18" rx="27" ry="18"/>
<text text-anchor="middle" x="99" y="-14.3" font-family="Times,serif" font-size="14.00">qux</text>
</g>
<!-- baz&#45;&gt;qux -->
<g id="edge2" class="edge">
<title>baz&#45;&gt;qux</title>
<path fill="none" stroke="black" d="M99,-71.7C99,-63.98 99,-54.71 99,-46.11"/>
<polygon fill="black" stroke="black" points="102.5,-46.1 99,-36.1 95.5,-46.1 102.5,-46.1"/>
</g>
<!-- quux -->
<g id="node5" class="node">
<title>quux</title>
<ellipse fill="turquoise" stroke="turquoise" cx="173" cy="-90" rx="28.7" ry="18"/>
<text text-anchor="middle" x="173" y="-86.3" font-family="Times,serif" font-size="14.00">quux</text>
</g>
<!-- fred -->
<g id="node6" class="node">
<title>fred</title>
<ellipse fill="turquoise" stroke="turquoise" cx="173" cy="-18" rx="27" ry="18"/>
<text text-anchor="middle" x="173" y="-14.3" font-family="Times,serif" font-size="14.00">fred</text>
</g>
<!-- quux&#45;&gt;fred -->
<g id="edge3" class="edge">
<title>quux&#45;&gt;fred</title>
<path fill="none" stroke="black" stroke-dasharray="5,2" d="M173,-71.7C173,-63.98 173,-54.71 173,-46.11"/>
<polygon fill="black" stroke="black" points="176.5,-46.1 173,-36.1 169.5,-46.1 176.5,-46.1"/>
</g>
</g>
</svg>
